IBM Plex Serif-Text-FL_extracted.otf.ufo
<glyph name="exclam" format="2">
  <advance width="282"/>
  <unicode hex="0021"/>
  <outline>
    <contour>
      <point x="121" y="191" type="line"/>
      <point x="161" y="191" type="line"/>
      <point x="190" y="501" type="line"/>
      <point x="190" y="698" type="line"/>
      <point x="92" y="698" type="line"/>
      <point x="92" y="501" type="line"/>
    </contour>
    <contour>
      <point x="141" y="-12" type="curve" smooth="yes"/>
      <point x="184" y="-12"/>
      <point x="208" y="17"/>
      <point x="208" y="53" type="curve" smooth="yes"/>
      <point x="208" y="59" type="line" smooth="yes"/>
      <point x="208" y="95"/>
      <point x="184" y="124"/>
      <point x="141" y="124" type="curve" smooth="yes"/>
      <point x="98" y="124"/>
      <point x="74" y="95"/>
      <point x="74" y="59" type="curve" smooth="yes"/>
      <point x="74" y="53" type="line" smooth="yes"/>
      <point x="74" y="17"/>
      <point x="98" y="-12"/>
    </contour>
  </outline>
</glyph>
<glyph name="quotedbl" format="2">
  <advance width="426"/>
  <unicode hex="0022"/>
  <outline>
    <contour>
      <point x="105" y="462" type="line"/>
      <point x="139" y="462" type="line"/>
      <point x="164" y="652" type="line"/>
      <point x="164" y="748" type="line"/>
      <point x="80" y="748" type="line"/>
      <point x="80" y="652" type="line"/>
    </contour>
    <contour>
      <point x="287" y="462" type="line"/>
      <point x="321" y="462" type="line"/>
      <point x="346" y="652" type="line"/>
      <point x="346" y="748" type="line"/>
      <point x="262" y="748" type="line"/>
      <point x="262" y="652" type="line"/>
    </contour>
  </outline>
</glyph>
<glyph name="numbersign" format="2">
  <advance width="684"/>
  <unicode hex="0023"/>
  <outline>
    <contour>
      <point x="279" y="438" type="line"/>
      <point x="436" y="438" type="line"/>
      <point x="405" y="260" type="line"/>
      <point x="248" y="260" type="line"/>
    </contour>
    <contour>
      <point x="143" y="0" type="line"/>
      <point x="205" y="0" type="line"/>
      <point x="239" y="204" type="line"/>
      <point x="396" y="204" type="line"/>
      <point x="362" y="0" type="line"/>
      <point x="423" y="0" type="line"/>
      <point x="458" y="204" type="line"/>
      <point x="592" y="204" type="line"/>
      <point x="592" y="260" type="line"/>
      <point x="467" y="260" type="line"/>
      <point x="497" y="438" type="line"/>
      <point x="632" y="438" type="line"/>
      <point x="632" y="494" type="line"/>
      <point x="507" y="494" type="line"/>
      <point x="541" y="698" type="line"/>
      <point x="479" y="698" type="line"/>
      <point x="445" y="494" type="line"/>
      <point x="288" y="494" type="line"/>
      <point x="322" y="698" type="line"/>
      <point x="261" y="698" type="line"/>
      <point x="226" y="494" type="line"/>
      <point x="92" y="494" type="line"/>
      <point x="92" y="438" type="line"/>
      <point x="217" y="438" type="line"/>
      <point x="187" y="260" type="line"/>
      <point x="52" y="260" type="line"/>
      <point x="52" y="204" type="line"/>
      <point x="177" y="204" type="line"/>
    </contour>
  </outline>
</glyph>
<glyph name="dollar" format="2">
  <advance width="593"/>
  <unicode hex="0024"/>
  <outline>
    <contour>
      <point x="327" y="302" type="line"/>
      <point x="411" y="283"/>
      <point x="451" y="243"/>
      <point x="451" y="174" type="curve" smooth="yes"/>
      <point x="451" y="102"/>
      <point x="411" y="58"/>
      <point x="327" y="47" type="curve"/>
    </contour>
    <contour>
      <point x="276" y="417" type="line"/>
      <point x="192" y="440"/>
      <point x="152" y="476"/>
      <point x="152" y="540" type="curve" smooth="yes"/>
      <point x="152" y="600"/>
      <point x="195" y="644"/>
      <point x="276" y="652" type="curve"/>
    </contour>
    <contour>
      <point x="274" y="-82" type="line"/>
      <point x="329" y="-82" type="line"/>
      <point x="329" y="-4" type="line"/>
      <point x="460" y="11"/>
      <point x="531" y="87"/>
      <point x="531" y="200" type="curve" smooth="yes"/>
      <point x="531" y="308"/>
      <point x="467" y="369"/>
      <point x="327" y="404" type="curve"/>
      <point x="327" y="653" type="line"/>
      <point x="372" y="652"/>
      <point x="404" y="644"/>
      <point x="423" y="635" type="curve"/>
      <point x="423" y="632" type="line"/>
      <point x="398" y="619"/>
      <point x="382" y="598"/>
      <point x="382" y="569" type="curve" smooth="yes"/>
      <point x="382" y="534"/>
      <point x="403" y="505"/>
      <point x="446" y="505" type="curve" smooth="yes"/>
      <point x="487" y="505"/>
      <point x="512" y="533"/>
      <point x="512" y="576" type="curve" smooth="yes"/>
      <point x="512" y="644"/>
      <point x="446" y="696"/>
      <point x="329" y="703" type="curve"/>
      <point x="329" y="780" type="line"/>
      <point x="274" y="780" type="line"/>
      <point x="274" y="702" type="line"/>
      <point x="153" y="691"/>
      <point x="72" y="626"/>
      <point x="72" y="521" type="curve" smooth="yes"/>
      <point x="72" y="408"/>
      <point x="143" y="348"/>
      <point x="276" y="315" type="curve"/>
      <point x="276" y="45" type="line"/>
      <point x="221" y="46"/>
      <point x="183" y="53"/>
      <point x="159" y="64" type="curve"/>
      <point x="159" y="67" type="line"/>
      <point x="184" y="80"/>
      <point x="200" y="101"/>
      <point x="200" y="130" type="curve" smooth="yes"/>
      <point x="200" y="165"/>
      <point x="179" y="194"/>
      <point x="136" y="194" type="curve" smooth="yes"/>
      <point x="95" y="194"/>
      <point x="70" y="166"/>
      <point x="70" y="123" type="curve" smooth="yes"/>
      <point x="70" y="52"/>
      <point x="145" y="-1"/>
      <point x="274" y="-5" type="curve"/>
    </contour>
  </outline>
</glyph>
<glyph name="percent" format="2">
  <advance width="914"/>
  <unicode hex="0025"/>
  <outline>
    <contour>
      <point x="184" y="0" type="line"/>
      <point x="248" y="0" type="line"/>
      <point x="730" y="698" type="line"/>
      <point x="666" y="698" type="line"/>
    </contour>
    <contour>
      <point x="690" y="-12" type="curve" smooth="yes"/>
      <point x="790" y="-12"/>
      <point x="852" y="57"/>
      <point x="852" y="186" type="curve" smooth="yes"/>
      <point x="852" y="315"/>
      <point x="790" y="384"/>
      <point x="690" y="384" type="curve" smooth="yes"/>
      <point x="590" y="384"/>
      <point x="528" y="315"/>
      <point x="528" y="186" type="curve" smooth="yes"/>
      <point x="528" y="57"/>
      <point x="590" y="-12"/>
    </contour>
    <contour>
      <point x="224" y="314" type="curve" smooth="yes"/>
      <point x="324" y="314"/>
      <point x="386" y="383"/>
      <point x="386" y="512" type="curve" smooth="yes"/>
      <point x="386" y="641"/>
      <point x="324" y="710"/>
      <point x="224" y="710" type="curve" smooth="yes"/>
      <point x="124" y="710"/>
      <point x="62" y="641"/>
      <point x="62" y="512" type="curve" smooth="yes"/>
      <point x="62" y="383"/>
      <point x="124" y="314"/>
    </contour>
    <contour>
      <point x="690" y="31" type="curve" smooth="yes"/>
      <point x="637" y="31"/>
      <point x="610" y="69"/>
      <point x="610" y="144" type="curve" smooth="yes"/>
      <point x="610" y="228" type="line" smooth="yes"/>
      <point x="610" y="303"/>
      <point x="637" y="341"/>
      <point x="690" y="341" type="curve" smooth="yes"/>
      <point x="743" y="341"/>
      <point x="770" y="303"/>
      <point x="770" y="228" type="curve" smooth="yes"/>
      <point x="770" y="144" type="line" smooth="yes"/>
      <point x="770" y="69"/>
      <point x="743" y="31"/>
    </contour>
    <contour>
      <point x="224" y="357" type="curve" smooth="yes"/>
      <point x="171" y="357"/>
      <point x="144" y="395"/>
      <point x="144" y="470" type="curve" smooth="yes"/>
      <point x="144" y="554" type="line" smooth="yes"/>
      <point x="144" y="629"/>
      <point x="171" y="667"/>
      <point x="224" y="667" type="curve" smooth="yes"/>
      <point x="277" y="667"/>
      <point x="304" y="629"/>
      <point x="304" y="554" type="curve" smooth="yes"/>
      <point x="304" y="470" type="line" smooth="yes"/>
      <point x="304" y="395"/>
      <point x="277" y="357"/>
    </contour>
  </outline>
</glyph>
<glyph name="ampersand" format="2">
  <advance width="717"/>
  <unicode hex="0026"/>
  <outline>
    <contour>
      <point x="308" y="45" type="curve" smooth="yes"/>
      <point x="216" y="45"/>
      <point x="154" y="94"/>
      <point x="154" y="174" type="curve" smooth="yes"/>
      <point x="154" y="193" type="line" smooth="yes"/>
      <point x="154" y="253"/>
      <point x="171" y="300"/>
      <point x="232" y="340" type="curve"/>
      <point x="449" y="98" type="line"/>
      <point x="414" y="63"/>
      <point x="367" y="45"/>
    </contour>
    <contour>
      <point x="279" y="420" type="line" smooth="yes"/>
      <point x="242" y="463"/>
      <point x="209" y="502"/>
      <point x="209" y="549" type="curve" smooth="yes"/>
      <point x="209" y="560" type="line" smooth="yes"/>
      <point x="209" y="616"/>
      <point x="242" y="659"/>
      <point x="305" y="659" type="curve" smooth="yes"/>
      <point x="365" y="659"/>
      <point x="401" y="620"/>
      <point x="401" y="568" type="curve" smooth="yes"/>
      <point x="401" y="554" type="line" smooth="yes"/>
      <point x="401" y="498"/>
      <point x="363" y="455"/>
      <point x="284" y="414" type="curve"/>
    </contour>
    <contour>
      <point x="293" y="-12" type="curve" smooth="yes"/>
      <point x="369" y="-12"/>
      <point x="432" y="15"/>
      <point x="481" y="62" type="curve"/>
      <point x="492" y="49" type="line" smooth="yes"/>
      <point x="523" y="14"/>
      <point x="555" y="0"/>
      <point x="606" y="0" type="curve" smooth="yes"/>
      <point x="684" y="0" type="line"/>
      <point x="684" y="50" type="line"/>
      <point x="628" y="50"/>
      <point x="601" y="62"/>
      <point x="572" y="93" type="curve" smooth="yes"/>
      <point x="538" y="132" type="line"/>
      <point x="570" y="187"/>
      <point x="590" y="256"/>
      <point x="597" y="332" type="curve"/>
      <point x="675" y="332" type="line"/>
      <point x="675" y="382" type="line"/>
      <point x="470" y="382" type="line"/>
      <point x="470" y="332" type="line"/>
      <point x="542" y="332" type="line"/>
      <point x="538" y="272"/>
      <point x="526" y="215"/>
      <point x="503" y="171" type="curve"/>
      <point x="313" y="381" type="line"/>
      <point x="408" y="426"/>
      <point x="490" y="488"/>
      <point x="490" y="571" type="curve" smooth="yes"/>
      <point x="490" y="655"/>
      <point x="419" y="710"/>
      <point x="308" y="710" type="curve" smooth="yes"/>
      <point x="192" y="710"/>
      <point x="116" y="648"/>
      <point x="116" y="551" type="curve" smooth="yes"/>
      <point x="116" y="488"/>
      <point x="145" y="436"/>
      <point x="186" y="391" type="curve" smooth="yes"/>
      <point x="201" y="374" type="line"/>
      <point x="110" y="326"/>
      <point x="49" y="273"/>
      <point x="49" y="177" type="curve" smooth="yes"/>
      <point x="49" y="60"/>
      <point x="146" y="-12"/>
    </contour>
  </outline>
</glyph>
<glyph name="quotesingle" format="2">
  <advance width="244"/>
  <unicode hex="0027"/>
  <outline>
    <contour>
      <point x="105" y="462" type="line"/>
      <point x="139" y="462" type="line"/>
      <point x="164" y="652" type="line"/>
      <point x="164" y="748" type="line"/>
      <point x="80" y="748" type="line"/>
      <point x="80" y="652" type="line"/>
    </contour>
  </outline>
</glyph>
<glyph name="parenleft" format="2">
  <advance width="328"/>
  <unicode hex="0028"/>
  <outline>
    <contour>
      <point x="332" y="-120" type="line"/>
      <point x="222" y="-37"/>
      <point x="158" y="113"/>
      <point x="158" y="274" type="curve" smooth="yes"/>
      <point x="158" y="350" type="line" smooth="yes"/>
      <point x="158" y="511"/>
      <point x="222" y="661"/>
      <point x="332" y="744" type="curve"/>
      <point x="304" y="778" type="line"/>
      <point x="186" y="706"/>
      <point x="55" y="535"/>
      <point x="55" y="312" type="curve" smooth="yes"/>
      <point x="55" y="89"/>
      <point x="186" y="-82"/>
      <point x="304" y="-154" type="curve"/>
    </contour>
  </outline>
</glyph>
<glyph name="parenright" format="2">
  <advance width="328"/>
  <unicode hex="0029"/>
  <outline>
    <contour>
      <point x="24" y="-154" type="line"/>
      <point x="142" y="-82"/>
      <point x="273" y="89"/>
      <point x="273" y="312" type="curve" smooth="yes"/>
      <point x="273" y="535"/>
      <point x="142" y="706"/>
      <point x="24" y="778" type="curve"/>
      <point x="-4" y="744" type="line"/>
      <point x="106" y="661"/>
      <point x="170" y="511"/>
      <point x="170" y="350" type="curve" smooth="yes"/>
      <point x="170" y="274" type="line" smooth="yes"/>
      <point x="170" y="113"/>
      <point x="106" y="-37"/>
      <point x="-4" y="-120" type="curve"/>
    </contour>
  </outline>
</glyph>
<glyph name="asterisk" format="2">
  <advance width="471"/>
  <unicode hex="002A"/>
  <outline>
    <contour>
      <point x="279" y="548" type="line"/>
      <point x="385" y="554" type="line"/>
      <point x="436" y="570" type="line"/>
      <point x="410" y="650" type="line"/>
      <point x="360" y="633" type="line"/>
      <point x="269" y="576" type="line"/>
    </contour>
    <contour>
      <point x="317" y="365" type="line"/>
      <point x="384" y="415" type="line"/>
      <point x="353" y="458" type="line"/>
      <point x="271" y="526" type="line"/>
      <point x="247" y="508" type="line"/>
      <point x="286" y="409" type="line"/>
    </contour>
    <contour>
      <point x="221" y="589" type="line"/>
      <point x="250" y="589" type="line"/>
      <point x="277" y="694" type="line"/>
      <point x="277" y="747" type="line"/>
      <point x="194" y="747" type="line"/>
      <point x="194" y="694" type="line"/>
    </contour>
    <contour>
      <point x="192" y="548" type="line"/>
      <point x="202" y="576" type="line"/>
      <point x="111" y="633" type="line"/>
      <point x="61" y="650" type="line"/>
      <point x="35" y="570" type="line"/>
      <point x="86" y="554" type="line"/>
    </contour>
    <contour>
      <point x="154" y="365" type="line"/>
      <point x="185" y="409" type="line"/>
      <point x="224" y="508" type="line"/>
      <point x="200" y="526" type="line"/>
      <point x="118" y="458" type="line"/>
      <point x="87" y="415" type="line"/>
    </contour>
  </outline>
</glyph>
<glyph name="plus" format="2">
  <advance width="600"/>
  <unicode hex="002B"/>
  <outline>
    <contour>
      <point x="269" y="76" type="line"/>
      <point x="331" y="76" type="line"/>
      <point x="331" y="276" type="line"/>
      <point x="534" y="276" type="line"/>
      <point x="534" y="334" type="line"/>
      <point x="331" y="334" type="line"/>
      <point x="331" y="534" type="line"/>
      <point x="269" y="534" type="line"/>
      <point x="269" y="334" type="line"/>
      <point x="66" y="334" type="line"/>
      <point x="66" y="276" type="line"/>
      <point x="269" y="276" type="line"/>
    </contour>
  </outline>
</glyph>
<glyph name="comma" format="2">
  <advance width="267"/>
  <unicode hex="002C"/>
  <outline>
    <contour>
      <point x="99" y="-138" type="line"/>
      <point x="157" y="-96"/>
      <point x="201" y="-17"/>
      <point x="201" y="45" type="curve" smooth="yes"/>
      <point x="201" y="55" type="line" smooth="yes"/>
      <point x="201" y="94"/>
      <point x="177" y="124"/>
      <point x="134" y="124" type="curve" smooth="yes"/>
      <point x="91" y="124"/>
      <point x="67" y="95"/>
      <point x="67" y="59" type="curve" smooth="yes"/>
      <point x="67" y="53" type="line" smooth="yes"/>
      <point x="67" y="18"/>
      <point x="91" y="-12"/>
      <point x="130" y="-12" type="curve" smooth="yes"/>
      <point x="132" y="-12" type="line"/>
      <point x="121" y="-53"/>
      <point x="88" y="-97"/>
      <point x="41" y="-138" type="curve"/>
    </contour>
  </outline>
</glyph>
<glyph name="period" format="2">
  <advance width="266"/>
  <unicode hex="002E"/>
  <outline>
    <contour>
      <point x="133" y="-12" type="curve" smooth="yes"/>
      <point x="176" y="-12"/>
      <point x="200" y="17"/>
      <point x="200" y="53" type="curve" smooth="yes"/>
      <point x="200" y="59" type="line" smooth="yes"/>
      <point x="200" y="95"/>
      <point x="176" y="124"/>
      <point x="133" y="124" type="curve" smooth="yes"/>
      <point x="90" y="124"/>
      <point x="66" y="95"/>
      <point x="66" y="59" type="curve" smooth="yes"/>
      <point x="66" y="53" type="line" smooth="yes"/>
      <point x="66" y="17"/>
      <point x="90" y="-12"/>
    </contour>
  </outline>
</glyph>
<glyph name="slash" format="2">
  <advance width="380"/>
  <unicode hex="002F"/>
  <outline>
    <contour>
      <point x="8" y="-143" type="line"/>
      <point x="72" y="-143" type="line"/>
      <point x="338" y="748" type="line"/>
      <point x="274" y="748" type="line"/>
    </contour>
  </outline>
</glyph>
<glyph name="zero" format="2">
  <advance width="600"/>
  <unicode hex="0030"/>
  <outline>
    <contour>
      <point x="300" y="-12" type="curve" smooth="yes"/>
      <point x="464" y="-12"/>
      <point x="552" y="114"/>
      <point x="552" y="349" type="curve" smooth="yes"/>
      <point x="552" y="584"/>
      <point x="464" y="710"/>
      <point x="300" y="710" type="curve" smooth="yes"/>
      <point x="136" y="710"/>
      <point x="48" y="584"/>
      <point x="48" y="349" type="curve" smooth="yes"/>
      <point x="48" y="114"/>
      <point x="136" y="-12"/>
    </contour>
    <contour>
      <point x="300" y="41" type="curve" smooth="yes"/>
      <point x="192" y="41"/>
      <point x="157" y="129"/>
      <point x="157" y="276" type="curve" smooth="yes"/>
      <point x="157" y="422" type="line" smooth="yes"/>
      <point x="157" y="569"/>
      <point x="192" y="657"/>
      <point x="300" y="657" type="curve" smooth="yes"/>
      <point x="408" y="657"/>
      <point x="443" y="569"/>
      <point x="443" y="422" type="curve" smooth="yes"/>
      <point x="443" y="276" type="line" smooth="yes"/>
      <point x="443" y="129"/>
      <point x="408" y="41"/>
    </contour>
  </outline>
</glyph>
<glyph name="one" format="2">
  <advance width="600"/>
  <unicode hex="0031"/>
  <outline>
    <contour>
      <point x="99" y="0" type="line"/>
      <point x="533" y="0" type="line"/>
      <point x="533" y="49" type="line"/>
      <point x="369" y="49" type="line"/>
      <point x="369" y="698" type="line"/>
      <point x="283" y="698" type="line"/>
      <point x="74" y="588" type="line"/>
      <point x="91" y="542" type="line"/>
      <point x="268" y="620" type="line"/>
      <point x="268" y="49" type="line"/>
      <point x="99" y="49" type="line"/>
    </contour>
  </outline>
</glyph>
<glyph name="two" format="2">
  <advance width="600"/>
  <unicode hex="0032"/>
  <outline>
    <contour>
      <point x="54" y="0" type="line"/>
      <point x="516" y="0" type="line"/>
      <point x="516" y="182" type="line"/>
      <point x="462" y="182" type="line"/>
      <point x="462" y="87" type="line"/>
      <point x="135" y="87" type="line"/>
      <point x="135" y="91" type="line"/>
      <point x="322" y="251" type="line" smooth="yes"/>
      <point x="413" y="326"/>
      <point x="489" y="401"/>
      <point x="489" y="519" type="curve" smooth="yes"/>
      <point x="489" y="639"/>
      <point x="404" y="710"/>
      <point x="264" y="710" type="curve" smooth="yes"/>
      <point x="147" y="710"/>
      <point x="62" y="650"/>
      <point x="62" y="582" type="curve" smooth="yes"/>
      <point x="62" y="539"/>
      <point x="86" y="513"/>
      <point x="125" y="513" type="curve" smooth="yes"/>
      <point x="164" y="513"/>
      <point x="190" y="541"/>
      <point x="190" y="577" type="curve" smooth="yes"/>
      <point x="190" y="604"/>
      <point x="172" y="627"/>
      <point x="153" y="635" type="curve"/>
      <point x="153" y="639" type="line"/>
      <point x="172" y="650"/>
      <point x="204" y="659"/>
      <point x="247" y="659" type="curve" smooth="yes"/>
      <point x="330" y="659"/>
      <point x="380" y="610"/>
      <point x="380" y="527" type="curve" smooth="yes"/>
      <point x="380" y="503" type="line" smooth="yes"/>
      <point x="380" y="424"/>
      <point x="340" y="361"/>
      <point x="275" y="296" type="curve" smooth="yes"/>
      <point x="54" y="74" type="line"/>
    </contour>
  </outline>
</glyph>
<glyph name="three" format="2">
  <advance width="600"/>
  <unicode hex="0033"/>
  <outline>
    <contour>
      <point x="269" y="-12" type="curve" smooth="yes"/>
      <point x="424" y="-12"/>
      <point x="523" y="65"/>
      <point x="523" y="191" type="curve" smooth="yes"/>
      <point x="523" y="297"/>
      <point x="436" y="351"/>
      <point x="353" y="367" type="curve"/>
      <point x="353" y="371" type="line"/>
      <point x="433" y="387"/>
      <point x="509" y="445"/>
      <point x="509" y="535" type="curve" smooth="yes"/>
      <point x="509" y="652"/>
      <point x="411" y="710"/>
      <point x="280" y="710" type="curve" smooth="yes"/>
      <point x="156" y="710"/>
      <point x="79" y="646"/>
      <point x="79" y="582" type="curve" smooth="yes"/>
      <point x="79" y="539"/>
      <point x="103" y="513"/>
      <point x="142" y="513" type="curve" smooth="yes"/>
      <point x="181" y="513"/>
      <point x="207" y="541"/>
      <point x="207" y="577" type="curve" smooth="yes"/>
      <point x="207" y="604"/>
      <point x="189" y="627"/>
      <point x="170" y="635" type="curve"/>
      <point x="170" y="639" type="line"/>
      <point x="190" y="651"/>
      <point x="225" y="659"/>
      <point x="270" y="659" type="curve" smooth="yes"/>
      <point x="349" y="659"/>
      <point x="400" y="621"/>
      <point x="400" y="546" type="curve" smooth="yes"/>
      <point x="400" y="511" type="line" smooth="yes"/>
      <point x="400" y="442"/>
      <point x="350" y="392"/>
      <point x="254" y="392" type="curve" smooth="yes"/>
      <point x="181" y="392" type="line"/>
      <point x="181" y="338" type="line"/>
      <point x="258" y="338" type="line" smooth="yes"/>
      <point x="361" y="338"/>
      <point x="414" y="290"/>
      <point x="414" y="206" type="curve" smooth="yes"/>
      <point x="414" y="172" type="line" smooth="yes"/>
      <point x="414" y="84"/>
      <point x="354" y="39"/>
      <point x="253" y="39" type="curve" smooth="yes"/>
      <point x="206" y="39"/>
      <point x="170" y="47"/>
      <point x="150" y="59" type="curve"/>
      <point x="150" y="63" type="line"/>
      <point x="169" y="71"/>
      <point x="187" y="94"/>
      <point x="187" y="121" type="curve" smooth="yes"/>
      <point x="187" y="158"/>
      <point x="161" y="185"/>
      <point x="122" y="185" type="curve" smooth="yes"/>
      <point x="85" y="185"/>
      <point x="59" y="159"/>
      <point x="59" y="116" type="curve" smooth="yes"/>
      <point x="59" y="52"/>
      <point x="138" y="-12"/>
    </contour>
  </outline>
</glyph>
<glyph name="four" format="2">
  <advance width="600"/>
  <unicode hex="0034"/>
  <outline>
    <contour>
      <point x="355" y="602" type="line"/>
      <point x="359" y="602" type="line"/>
      <point x="359" y="235" type="line"/>
      <point x="103" y="235" type="line"/>
    </contour>
    <contour>
      <point x="359" y="0" type="line"/>
      <point x="455" y="0" type="line"/>
      <point x="455" y="161" type="line"/>
      <point x="556" y="161" type="line"/>
      <point x="556" y="235" type="line"/>
      <point x="455" y="235" type="line"/>
      <point x="455" y="698" type="line"/>
      <point x="360" y="698" type="line"/>
      <point x="39" y="226" type="line"/>
      <point x="39" y="161" type="line"/>
      <point x="359" y="161" type="line"/>
    </contour>
  </outline>
</glyph>
<glyph name="five" format="2">
  <advance width="600"/>
  <unicode hex="0035"/>
  <outline>
    <contour>
      <point x="268" y="-12" type="curve" smooth="yes"/>
      <point x="424" y="-12"/>
      <point x="527" y="77"/>
      <point x="527" y="209" type="curve" smooth="yes"/>
      <point x="527" y="356"/>
      <point x="433" y="430"/>
      <point x="308" y="430" type="curve" smooth="yes"/>
      <point x="228" y="430"/>
      <point x="175" y="388"/>
      <point x="150" y="341" type="curve"/>
      <point x="146" y="342" type="line"/>
      <point x="165" y="603" type="line"/>
      <point x="495" y="603" type="line"/>
      <point x="495" y="698" type="line"/>
      <point x="120" y="698" type="line"/>
      <point x="95" y="313" type="line"/>
      <point x="152" y="301" type="line"/>
      <point x="173" y="336"/>
      <point x="214" y="365"/>
      <point x="274" y="365" type="curve" smooth="yes"/>
      <point x="367" y="365"/>
      <point x="418" y="309"/>
      <point x="418" y="214" type="curve" smooth="yes"/>
      <point x="418" y="190" type="line" smooth="yes"/>
      <point x="418" y="94"/>
      <point x="365" y="39"/>
      <point x="258" y="39" type="curve" smooth="yes"/>
      <point x="213" y="39"/>
      <point x="175" y="47"/>
      <point x="155" y="59" type="curve"/>
      <point x="155" y="63" type="line"/>
      <point x="174" y="71"/>
      <point x="192" y="94"/>
      <point x="192" y="121" type="curve" smooth="yes"/>
      <point x="192" y="158"/>
      <point x="166" y="185"/>
      <point x="127" y="185" type="curve" smooth="yes"/>
      <point x="90" y="185"/>
      <point x="64" y="159"/>
      <point x="64" y="116" type="curve" smooth="yes"/>
      <point x="64" y="52"/>
      <point x="144" y="-12"/>
    </contour>
  </outline>
</glyph>
<glyph name="six" format="2">
  <advance width="600"/>
  <unicode hex="0036"/>
  <outline>
    <contour>
      <point x="302" y="41" type="curve" smooth="yes"/>
      <point x="205" y="41"/>
      <point x="169" y="106"/>
      <point x="169" y="198" type="curve" smooth="yes"/>
      <point x="169" y="218" type="line" smooth="yes"/>
      <point x="169" y="310"/>
      <point x="205" y="375"/>
      <point x="302" y="375" type="curve" smooth="yes"/>
      <point x="399" y="375"/>
      <point x="435" y="310"/>
      <point x="435" y="218" type="curve" smooth="yes"/>
      <point x="435" y="198" type="line" smooth="yes"/>
      <point x="435" y="106"/>
      <point x="399" y="41"/>
    </contour>
    <contour>
      <point x="303" y="-12" type="curve" smooth="yes"/>
      <point x="442" y="-12"/>
      <point x="540" y="81"/>
      <point x="540" y="217" type="curve" smooth="yes"/>
      <point x="540" y="352"/>
      <point x="464" y="437"/>
      <point x="336" y="437" type="curve" smooth="yes"/>
      <point x="246" y="437"/>
      <point x="192" y="385"/>
      <point x="173" y="337" type="curve"/>
      <point x="167" y="338" type="line"/>
      <point x="180" y="506"/>
      <point x="289" y="632"/>
      <point x="461" y="666" type="curve"/>
      <point x="447" y="710" type="line"/>
      <point x="231" y="681"/>
      <point x="62" y="525"/>
      <point x="62" y="266" type="curve" smooth="yes"/>
      <point x="62" y="93"/>
      <point x="148" y="-12"/>
    </contour>
  </outline>
</glyph>
<glyph name="seven" format="2">
  <advance width="600"/>
  <unicode hex="0037"/>
  <outline>
    <contour>
      <point x="184" y="0" type="line"/>
      <point x="272" y="0" type="line"/>
      <point x="532" y="626" type="line"/>
      <point x="532" y="698" type="line"/>
      <point x="68" y="698" type="line"/>
      <point x="68" y="489" type="line"/>
      <point x="122" y="489" type="line"/>
      <point x="122" y="603" type="line"/>
      <point x="466" y="603" type="line"/>
    </contour>
  </outline>
</glyph>
<glyph name="eight" format="2">
  <advance width="600"/>
  <unicode hex="0038"/>
  <outline>
    <contour>
      <point x="300" y="391" type="curve" smooth="yes"/>
      <point x="214" y="391"/>
      <point x="181" y="449"/>
      <point x="181" y="518" type="curve" smooth="yes"/>
      <point x="181" y="533" type="line" smooth="yes"/>
      <point x="181" y="602"/>
      <point x="214" y="660"/>
      <point x="300" y="660" type="curve" smooth="yes"/>
      <point x="385" y="660"/>
      <point x="419" y="602"/>
      <point x="419" y="533" type="curve" smooth="yes"/>
      <point x="419" y="518" type="line" smooth="yes"/>
      <point x="419" y="449"/>
      <point x="385" y="391"/>
    </contour>
    <contour>
      <point x="300" y="39" type="curve" smooth="yes"/>
      <point x="207" y="39"/>
      <point x="161" y="99"/>
      <point x="161" y="180" type="curve" smooth="yes"/>
      <point x="161" y="201" type="line" smooth="yes"/>
      <point x="161" y="282"/>
      <point x="207" y="342"/>
      <point x="300" y="342" type="curve" smooth="yes"/>
      <point x="393" y="342"/>
      <point x="439" y="282"/>
      <point x="439" y="201" type="curve" smooth="yes"/>
      <point x="439" y="180" type="line" smooth="yes"/>
      <point x="439" y="99"/>
      <point x="393" y="39"/>
    </contour>
    <contour>
      <point x="300" y="-12" type="curve" smooth="yes"/>
      <point x="452" y="-12"/>
      <point x="545" y="66"/>
      <point x="545" y="186" type="curve" smooth="yes"/>
      <point x="545" y="291"/>
      <point x="463" y="348"/>
      <point x="379" y="361" type="curve"/>
      <point x="379" y="368" type="line"/>
      <point x="452" y="379"/>
      <point x="524" y="443"/>
      <point x="524" y="532" type="curve" smooth="yes"/>
      <point x="524" y="644"/>
      <point x="434" y="710"/>
      <point x="300" y="710" type="curve" smooth="yes"/>
      <point x="166" y="710"/>
      <point x="76" y="644"/>
      <point x="76" y="532" type="curve" smooth="yes"/>
      <point x="76" y="443"/>
      <point x="148" y="379"/>
      <point x="220" y="368" type="curve"/>
      <point x="220" y="361" type="line"/>
      <point x="138" y="348"/>
      <point x="55" y="291"/>
      <point x="55" y="186" type="curve" smooth="yes"/>
      <point x="55" y="66"/>
      <point x="148" y="-12"/>
    </contour>
  </outline>
</glyph>
<glyph name="nine" format="2">
  <advance width="600"/>
  <unicode hex="0039"/>
  <outline>
    <contour>
      <point x="298" y="323" type="curve" smooth="yes"/>
      <point x="201" y="323"/>
      <point x="165" y="388"/>
      <point x="165" y="480" type="curve" smooth="yes"/>
      <point x="165" y="500" type="line" smooth="yes"/>
      <point x="165" y="592"/>
      <point x="201" y="657"/>
      <point x="298" y="657" type="curve" smooth="yes"/>
      <point x="395" y="657"/>
      <point x="431" y="592"/>
      <point x="431" y="500" type="curve" smooth="yes"/>
      <point x="431" y="480" type="line" smooth="yes"/>
      <point x="431" y="388"/>
      <point x="395" y="323"/>
    </contour>
    <contour>
      <point x="153" y="-12" type="line"/>
      <point x="369" y="17"/>
      <point x="538" y="173"/>
      <point x="538" y="432" type="curve" smooth="yes"/>
      <point x="538" y="605"/>
      <point x="452" y="710"/>
      <point x="297" y="710" type="curve" smooth="yes"/>
      <point x="158" y="710"/>
      <point x="60" y="617"/>
      <point x="60" y="481" type="curve" smooth="yes"/>
      <point x="60" y="346"/>
      <point x="136" y="261"/>
      <point x="264" y="261" type="curve" smooth="yes"/>
      <point x="354" y="261"/>
      <point x="406" y="313"/>
      <point x="427" y="361" type="curve"/>
      <point x="433" y="360" type="line"/>
      <point x="420" y="192"/>
      <point x="311" y="67"/>
      <point x="139" y="32" type="curve"/>
    </contour>
  </outline>
</glyph>
<glyph name="colon" format="2">
  <advance width="287"/>
  <unicode hex="003A"/>
  <outline>
    <contour>
      <point x="143" y="-12" type="curve" smooth="yes"/>
      <point x="186" y="-12"/>
      <point x="210" y="17"/>
      <point x="210" y="53" type="curve" smooth="yes"/>
      <point x="210" y="59" type="line" smooth="yes"/>
      <point x="210" y="95"/>
      <point x="186" y="124"/>
      <point x="143" y="124" type="curve" smooth="yes"/>
      <point x="100" y="124"/>
      <point x="76" y="95"/>
      <point x="76" y="59" type="curve" smooth="yes"/>
      <point x="76" y="53" type="line" smooth="yes"/>
      <point x="76" y="17"/>
      <point x="100" y="-12"/>
    </contour>
    <contour>
      <point x="143" y="394" type="curve" smooth="yes"/>
      <point x="186" y="394"/>
      <point x="210" y="423"/>
      <point x="210" y="459" type="curve" smooth="yes"/>
      <point x="210" y="465" type="line" smooth="yes"/>
      <point x="210" y="501"/>
      <point x="186" y="530"/>
      <point x="143" y="530" type="curve" smooth="yes"/>
      <point x="100" y="530"/>
      <point x="76" y="501"/>
      <point x="76" y="465" type="curve" smooth="yes"/>
      <point x="76" y="459" type="line" smooth="yes"/>
      <point x="76" y="423"/>
      <point x="100" y="394"/>
    </contour>
  </outline>
</glyph>
<glyph name="semicolon" format="2">
  <advance width="288"/>
  <unicode hex="003B"/>
  <outline>
    <contour>
      <point x="109" y="-138" type="line"/>
      <point x="167" y="-96"/>
      <point x="211" y="-17"/>
      <point x="211" y="45" type="curve" smooth="yes"/>
      <point x="211" y="55" type="line" smooth="yes"/>
      <point x="211" y="94"/>
      <point x="187" y="124"/>
      <point x="144" y="124" type="curve" smooth="yes"/>
      <point x="101" y="124"/>
      <point x="77" y="95"/>
      <point x="77" y="59" type="curve" smooth="yes"/>
      <point x="77" y="53" type="line" smooth="yes"/>
      <point x="77" y="18"/>
      <point x="101" y="-12"/>
      <point x="140" y="-12" type="curve" smooth="yes"/>
      <point x="142" y="-12" type="line"/>
      <point x="131" y="-53"/>
      <point x="98" y="-97"/>
      <point x="51" y="-138" type="curve"/>
    </contour>
    <contour>
      <point x="144" y="394" type="curve" smooth="yes"/>
      <point x="187" y="394"/>
      <point x="211" y="423"/>
      <point x="211" y="459" type="curve" smooth="yes"/>
      <point x="211" y="465" type="line" smooth="yes"/>
      <point x="211" y="501"/>
      <point x="187" y="530"/>
      <point x="144" y="530" type="curve" smooth="yes"/>
      <point x="101" y="530"/>
      <point x="77" y="501"/>
      <point x="77" y="465" type="curve" smooth="yes"/>
      <point x="77" y="459" type="line" smooth="yes"/>
      <point x="77" y="423"/>
      <point x="101" y="394"/>
    </contour>
  </outline>
</glyph>
<glyph name="less" format="2">
  <advance width="600"/>
  <unicode hex="003C"/>
  <outline>
    <contour>
      <point x="511" y="-12" type="line"/>
      <point x="511" y="57" type="line"/>
      <point x="158" y="263" type="line"/>
      <point x="158" y="269" type="line"/>
      <point x="511" y="475" type="line"/>
      <point x="511" y="544" type="line"/>
      <point x="89" y="300" type="line"/>
      <point x="89" y="232" type="line"/>
    </contour>
  </outline>
</glyph>
<glyph name="equal" format="2">
  <advance width="600"/>
  <unicode hex="003D"/>
  <outline>
    <contour>
      <point x="66" y="381" type="line"/>
      <point x="534" y="381" type="line"/>
      <point x="534" y="439" type="line"/>
      <point x="66" y="439" type="line"/>
    </contour>
    <contour>
      <point x="66" y="171" type="line"/>
      <point x="534" y="171" type="line"/>
      <point x="534" y="229" type="line"/>
      <point x="66" y="229" type="line"/>
    </contour>
  </outline>
</glyph>
<glyph name="greater" format="2">
  <advance width="600"/>
  <unicode hex="003E"/>
  <outline>
    <contour>
      <point x="89" y="-12" type="line"/>
      <point x="511" y="232" type="line"/>
      <point x="511" y="300" type="line"/>
      <point x="89" y="544" type="line"/>
      <point x="89" y="475" type="line"/>
      <point x="442" y="269" type="line"/>
      <point x="442" y="263" type="line"/>
      <point x="89" y="57" type="line"/>
    </contour>
  </outline>
</glyph>
<glyph name="question" format="2">
  <advance width="495"/>
  <unicode hex="003F"/>
  <outline>
    <contour>
      <point x="198" y="-12" type="curve" smooth="yes"/>
      <point x="241" y="-12"/>
      <point x="265" y="17"/>
      <point x="265" y="53" type="curve" smooth="yes"/>
      <point x="265" y="59" type="line" smooth="yes"/>
      <point x="265" y="95"/>
      <point x="241" y="124"/>
      <point x="198" y="124" type="curve" smooth="yes"/>
      <point x="155" y="124"/>
      <point x="131" y="95"/>
      <point x="131" y="59" type="curve" smooth="yes"/>
      <point x="131" y="53" type="line" smooth="yes"/>
      <point x="131" y="17"/>
      <point x="155" y="-12"/>
    </contour>
    <contour>
      <point x="168" y="210" type="line"/>
      <point x="227" y="210" type="line"/>
      <point x="227" y="320" type="line"/>
      <point x="355" y="331"/>
      <point x="454" y="404"/>
      <point x="454" y="526" type="curve" smooth="yes"/>
      <point x="454" y="639"/>
      <point x="372" y="710"/>
      <point x="240" y="710" type="curve" smooth="yes"/>
      <point x="128" y="710"/>
      <point x="39" y="652"/>
      <point x="39" y="582" type="curve" smooth="yes"/>
      <point x="39" y="539"/>
      <point x="63" y="513"/>
      <point x="102" y="513" type="curve" smooth="yes"/>
      <point x="141" y="513"/>
      <point x="167" y="541"/>
      <point x="167" y="577" type="curve" smooth="yes"/>
      <point x="167" y="604"/>
      <point x="149" y="627"/>
      <point x="130" y="635" type="curve"/>
      <point x="130" y="639" type="line"/>
      <point x="150" y="650"/>
      <point x="180" y="659"/>
      <point x="224" y="659" type="curve" smooth="yes"/>
      <point x="299" y="659"/>
      <point x="347" y="615"/>
      <point x="347" y="536" type="curve" smooth="yes"/>
      <point x="347" y="514" type="line" smooth="yes"/>
      <point x="347" y="425"/>
      <point x="276" y="379"/>
      <point x="168" y="374" type="curve"/>
    </contour>
  </outline>
</glyph>
<glyph name="at" format="2">
  <advance width="918"/>
  <unicode hex="0040"/>
  <outline>
    <contour>
      <point x="450" y="123" type="curve" smooth="yes"/>
      <point x="383" y="123"/>
      <point x="351" y="168"/>
      <point x="351" y="237" type="curve" smooth="yes"/>
      <point x="351" y="341" type="line" smooth="yes"/>
      <point x="351" y="410"/>
      <point x="383" y="455"/>
      <point x="450" y="455" type="curve" smooth="yes"/>
      <point x="514" y="455"/>
      <point x="549" y="421"/>
      <point x="549" y="362" type="curve" smooth="yes"/>
      <point x="549" y="216" type="line" smooth="yes"/>
      <point x="549" y="157"/>
      <point x="514" y="123"/>
    </contour>
    <contour>
      <point x="452" y="-121" type="curve" smooth="yes"/>
      <point x="535" y="-121"/>
      <point x="611" y="-114"/>
      <point x="678" y="-103" type="curve"/>
      <point x="678" y="-71" type="line"/>
      <point x="453" y="-71" type="line" smooth="yes"/>
      <point x="261" y="-71"/>
      <point x="139" y="67"/>
      <point x="139" y="265" type="curve" smooth="yes"/>
      <point x="139" y="320" type="line" smooth="yes"/>
      <point x="139" y="515"/>
      <point x="258" y="665"/>
      <point x="458" y="665" type="curve" smooth="yes"/>
      <point x="658" y="665"/>
      <point x="777" y="530"/>
      <point x="777" y="350" type="curve" smooth="yes"/>
      <point x="777" y="306" type="line" smooth="yes"/>
      <point x="777" y="173"/>
      <point x="744" y="111"/>
      <point x="680" y="111" type="curve" smooth="yes"/>
      <point x="643" y="111"/>
      <point x="624" y="136"/>
      <point x="624" y="185" type="curve" smooth="yes"/>
      <point x="624" y="500" type="line"/>
      <point x="584" y="500" type="line"/>
      <point x="551" y="431" type="line"/>
      <point x="547" y="431" type="line"/>
      <point x="531" y="475"/>
      <point x="494" y="509"/>
      <point x="434" y="509" type="curve" smooth="yes"/>
      <point x="342" y="509"/>
      <point x="268" y="437"/>
      <point x="268" y="289" type="curve" smooth="yes"/>
      <point x="268" y="141"/>
      <point x="342" y="69"/>
      <point x="434" y="69" type="curve" smooth="yes"/>
      <point x="497" y="69"/>
      <point x="532" y="105"/>
      <point x="555" y="157" type="curve"/>
      <point x="559" y="157" type="line"/>
      <point x="566" y="105"/>
      <point x="605" y="69"/>
      <point x="674" y="69" type="curve" smooth="yes"/>
      <point x="795" y="69"/>
      <point x="843" y="183"/>
      <point x="843" y="322" type="curve" smooth="yes"/>
      <point x="843" y="551"/>
      <point x="687" y="710"/>
      <point x="458" y="710" type="curve" smooth="yes"/>
      <point x="226" y="710"/>
      <point x="74" y="537"/>
      <point x="74" y="289" type="curve" smooth="yes"/>
      <point x="74" y="41"/>
      <point x="224" y="-121"/>
    </contour>
  </outline>
</glyph>
<glyph name="B" format="2">
  <advance width="676"/>
  <unicode hex="0042"/>
  <outline>
    <contour>
      <point x="227" y="644" type="line"/>
      <point x="371" y="644" type="line" smooth="yes"/>
      <point x="442" y="644"/>
      <point x="481" y="602"/>
      <point x="481" y="538" type="curve" smooth="yes"/>
      <point x="481" y="494" type="line" smooth="yes"/>
      <point x="481" y="430"/>
      <point x="442" y="388"/>
      <point x="371" y="388" type="curve" smooth="yes"/>
      <point x="227" y="388" type="line"/>
    </contour>
    <contour>
      <point x="227" y="334" type="line"/>
      <point x="387" y="334" type="line" smooth="yes"/>
      <point x="463" y="334"/>
      <point x="508" y="287"/>
      <point x="508" y="216" type="curve" smooth="yes"/>
      <point x="508" y="172" type="line" smooth="yes"/>
      <point x="508" y="101"/>
      <point x="463" y="54"/>
      <point x="387" y="54" type="curve" smooth="yes"/>
      <point x="227" y="54" type="line"/>
    </contour>
    <contour>
      <point x="52" y="0" type="line"/>
      <point x="419" y="0" type="line" smooth="yes"/>
      <point x="536" y="0"/>
      <point x="614" y="75"/>
      <point x="614" y="194" type="curve" smooth="yes"/>
      <point x="614" y="302"/>
      <point x="524" y="358"/>
      <point x="452" y="363" type="curve"/>
      <point x="452" y="367" type="line"/>
      <point x="521" y="380"/>
      <point x="587" y="434"/>
      <point x="587" y="533" type="curve" smooth="yes"/>
      <point x="587" y="632"/>
      <point x="516" y="698"/>
      <point x="391" y="698" type="curve" smooth="yes"/>
      <point x="52" y="698" type="line"/>
      <point x="52" y="648" type="line"/>
      <point x="126" y="648" type="line"/>
      <point x="126" y="50" type="line"/>
      <point x="52" y="50" type="line"/>
    </contour>
  </outline>
</glyph>
<glyph name="C" format="2">
  <advance width="651"/>
  <unicode hex="0043"/>
  <outline>
    <contour>
      <point x="346" y="-12" type="curve" smooth="yes"/>
      <point x="486" y="-12"/>
      <point x="568" y="85"/>
      <point x="595" y="165" type="curve"/>
      <point x="553" y="187" type="line"/>
      <point x="524" y="111"/>
      <point x="459" y="57"/>
      <point x="366" y="57" type="curve" smooth="yes"/>
      <point x="238" y="57"/>
      <point x="162" y="144"/>
      <point x="162" y="285" type="curve" smooth="yes"/>
      <point x="162" y="422" type="line" smooth="yes"/>
      <point x="162" y="552"/>
      <point x="221" y="653"/>
      <point x="352" y="653" type="curve" smooth="yes"/>
      <point x="445" y="653"/>
      <point x="506" y="608"/>
      <point x="506" y="541" type="curve" smooth="yes"/>
      <point x="506" y="491" type="line"/>
      <point x="586" y="491" type="line"/>
      <point x="586" y="698" type="line"/>
      <point x="506" y="698" type="line"/>
      <point x="506" y="636" type="line"/>
      <point x="502" y="636" type="line"/>
      <point x="483" y="676"/>
      <point x="426" y="710"/>
      <point x="339" y="710" type="curve" smooth="yes"/>
      <point x="171" y="710"/>
      <point x="50" y="581"/>
      <point x="50" y="349" type="curve" smooth="yes"/>
      <point x="50" y="130"/>
      <point x="166" y="-12"/>
    </contour>
  </outline>
</glyph>
<glyph name="F" format="2">
  <advance width="628"/>
  <unicode hex="0046"/>
  <outline>
    <contour>
      <point x="52" y="0" type="line"/>
      <point x="321" y="0" type="line"/>
      <point x="321" y="50" type="line"/>
      <point x="227" y="50" type="line"/>
      <point x="227" y="320" type="line"/>
      <point x="412" y="320" type="line"/>
      <point x="412" y="244" type="line"/>
      <point x="475" y="244" type="line"/>
      <point x="475" y="450" type="line"/>
      <point x="412" y="450" type="line"/>
      <point x="412" y="374" type="line"/>
      <point x="227" y="374" type="line"/>
      <point x="227" y="644" type="line"/>
      <point x="496" y="644" type="line"/>
      <point x="496" y="527" type="line"/>
      <point x="576" y="527" type="line"/>
      <point x="576" y="698" type="line"/>
      <point x="52" y="698" type="line"/>
      <point x="52" y="648" type="line"/>
      <point x="126" y="648" type="line"/>
      <point x="126" y="50" type="line"/>
      <point x="52" y="50" type="line"/>
    </contour>
  </outline>
</glyph>
<glyph name="I" format="2">
  <advance width="353"/>
  <unicode hex="0049"/>
  <outline>
    <contour>
      <point x="52" y="0" type="line"/>
      <point x="301" y="0" type="line"/>
      <point x="301" y="50" type="line"/>
      <point x="227" y="50" type="line"/>
      <point x="227" y="648" type="line"/>
      <point x="301" y="648" type="line"/>
      <point x="301" y="698" type="line"/>
      <point x="52" y="698" type="line"/>
      <point x="52" y="648" type="line"/>
      <point x="126" y="648" type="line"/>
      <point x="126" y="50" type="line"/>
      <point x="52" y="50" type="line"/>
    </contour>
  </outline>
</glyph>
<glyph name="J" format="2">
  <advance width="467"/>
  <unicode hex="004A"/>
  <outline>
    <contour>
      <point x="157" y="-12" type="curve" smooth="yes"/>
      <point x="282" y="-12"/>
      <point x="350" y="51"/>
      <point x="350" y="168" type="curve" smooth="yes"/>
      <point x="350" y="648" type="line"/>
      <point x="424" y="648" type="line"/>
      <point x="424" y="698" type="line"/>
      <point x="155" y="698" type="line"/>
      <point x="155" y="648" type="line"/>
      <point x="249" y="648" type="line"/>
      <point x="249" y="151" type="line" smooth="yes"/>
      <point x="249" y="74"/>
      <point x="218" y="35"/>
      <point x="156" y="35" type="curve" smooth="yes"/>
      <point x="136" y="35"/>
      <point x="118" y="38"/>
      <point x="105" y="42" type="curve"/>
      <point x="105" y="45" type="line"/>
      <point x="120" y="52"/>
      <point x="135" y="68"/>
      <point x="135" y="95" type="curve" smooth="yes"/>
      <point x="135" y="130"/>
      <point x="113" y="155"/>
      <point x="78" y="155" type="curve" smooth="yes"/>
      <point x="38" y="155"/>
      <point x="14" y="126"/>
      <point x="14" y="87" type="curve" smooth="yes"/>
      <point x="14" y="30"/>
      <point x="61" y="-12"/>
    </contour>
  </outline>
</glyph>
<glyph name="K" format="2">
  <advance width="717"/>
  <unicode hex="004B"/>
  <outline>
    <contour>
      <point x="52" y="0" type="line"/>
      <point x="301" y="0" type="line"/>
      <point x="301" y="50" type="line"/>
      <point x="227" y="50" type="line"/>
      <point x="227" y="251" type="line"/>
      <point x="321" y="353" type="line"/>
      <point x="513" y="50" type="line"/>
      <point x="445" y="50" type="line"/>
      <point x="445" y="0" type="line"/>
      <point x="698" y="0" type="line"/>
      <point x="698" y="50" type="line"/>
      <point x="630" y="50" type="line"/>
      <point x="390" y="423" type="line"/>
      <point x="600" y="648" type="line"/>
      <point x="668" y="648" type="line"/>
      <point x="668" y="698" type="line"/>
      <point x="448" y="698" type="line"/>
      <point x="448" y="648" type="line"/>
      <point x="526" y="648" type="line"/>
      <point x="328" y="433" type="line"/>
      <point x="231" y="324" type="line"/>
      <point x="227" y="324" type="line"/>
      <point x="227" y="648" type="line"/>
      <point x="301" y="648" type="line"/>
      <point x="301" y="698" type="line"/>
      <point x="52" y="698" type="line"/>
      <point x="52" y="648" type="line"/>
      <point x="126" y="648" type="line"/>
      <point x="126" y="50" type="line"/>
      <point x="52" y="50" type="line"/>
    </contour>
  </outline>
</glyph>
<glyph name="M" format="2">
  <advance width="876"/>
  <unicode hex="004D"/>
  <outline>
    <contour>
      <point x="52" y="0" type="line"/>
      <point x="259" y="0" type="line"/>
      <point x="259" y="50" type="line"/>
      <point x="185" y="50" type="line"/>
      <point x="185" y="593" type="line"/>
      <point x="189" y="593" type="line"/>
      <point x="241" y="476" type="line"/>
      <point x="414" y="115" type="line"/>
      <point x="593" y="476" type="line"/>
      <point x="645" y="593" type="line"/>
      <point x="649" y="593" type="line"/>
      <point x="649" y="50" type="line"/>
      <point x="575" y="50" type="line"/>
      <point x="575" y="0" type="line"/>
      <point x="824" y="0" type="line"/>
      <point x="824" y="50" type="line"/>
      <point x="750" y="50" type="line"/>
      <point x="750" y="648" type="line"/>
      <point x="824" y="648" type="line"/>
      <point x="824" y="698" type="line"/>
      <point x="642" y="698" type="line"/>
      <point x="442" y="284" type="line"/>
      <point x="438" y="284" type="line"/>
      <point x="243" y="698" type="line"/>
      <point x="52" y="698" type="line"/>
      <point x="52" y="648" type="line"/>
      <point x="126" y="648" type="line"/>
      <point x="126" y="50" type="line"/>
      <point x="52" y="50" type="line"/>
    </contour>
  </outline>
</glyph>
<glyph name="N" format="2">
  <advance width="780"/>
  <unicode hex="004E"/>
  <outline>
    <contour>
      <point x="52" y="0" type="line"/>
      <point x="259" y="0" type="line"/>
      <point x="259" y="50" type="line"/>
      <point x="185" y="50" type="line"/>
      <point x="185" y="598" type="line"/>
      <point x="189" y="598" type="line"/>
      <point x="580" y="0" type="line"/>
      <point x="662" y="0" type="line"/>
      <point x="662" y="648" type="line"/>
      <point x="736" y="648" type="line"/>
      <point x="736" y="698" type="line"/>
      <point x="529" y="698" type="line"/>
      <point x="529" y="648" type="line"/>
      <point x="603" y="648" type="line"/>
      <point x="603" y="149" type="line"/>
      <point x="599" y="149" type="line"/>
      <point x="240" y="698" type="line"/>
      <point x="52" y="698" type="line"/>
      <point x="52" y="648" type="line"/>
      <point x="126" y="648" type="line"/>
      <point x="126" y="50" type="line"/>
      <point x="52" y="50" type="line"/>
    </contour>
  </outline>
</glyph>
<glyph name="O" format="2">
  <advance width="724"/>
  <unicode hex="004F"/>
  <outline>
    <contour>
      <point x="362" y="-12" type="curve" smooth="yes"/>
      <point x="549" y="-12"/>
      <point x="674" y="125"/>
      <point x="674" y="349" type="curve" smooth="yes"/>
      <point x="674" y="573"/>
      <point x="549" y="710"/>
      <point x="362" y="710" type="curve" smooth="yes"/>
      <point x="175" y="710"/>
      <point x="50" y="573"/>
      <point x="50" y="349" type="curve" smooth="yes"/>
      <point x="50" y="125"/>
      <point x="175" y="-12"/>
    </contour>
    <contour>
      <point x="362" y="45" type="curve" smooth="yes"/>
      <point x="235" y="45"/>
      <point x="162" y="140"/>
      <point x="162" y="281" type="curve" smooth="yes"/>
      <point x="162" y="417" type="line" smooth="yes"/>
      <point x="162" y="558"/>
      <point x="235" y="653"/>
      <point x="362" y="653" type="curve" smooth="yes"/>
      <point x="489" y="653"/>
      <point x="562" y="558"/>
      <point x="562" y="417" type="curve" smooth="yes"/>
      <point x="562" y="281" type="line" smooth="yes"/>
      <point x="562" y="140"/>
      <point x="489" y="45"/>
    </contour>
  </outline>
</glyph>
<glyph name="Q" format="2">
  <advance width="724"/>
  <unicode hex="0051"/>
  <outline>
    <contour>
      <point x="362" y="45" type="curve" smooth="yes"/>
      <point x="235" y="45"/>
      <point x="162" y="140"/>
      <point x="162" y="281" type="curve" smooth="yes"/>
      <point x="162" y="417" type="line" smooth="yes"/>
      <point x="162" y="558"/>
      <point x="235" y="653"/>
      <point x="362" y="653" type="curve" smooth="yes"/>
      <point x="489" y="653"/>
      <point x="562" y="558"/>
      <point x="562" y="417" type="curve" smooth="yes"/>
      <point x="562" y="281" type="line" smooth="yes"/>
      <point x="562" y="140"/>
      <point x="489" y="45"/>
    </contour>
    <contour>
      <point x="580" y="-176" type="line"/>
      <point x="580" y="-126" type="line"/>
      <point x="553" y="-126" type="line" smooth="yes"/>
      <point x="509" y="-126"/>
      <point x="489" y="-113"/>
      <point x="461" y="-74" type="curve" smooth="yes"/>
      <point x="412" y="-8" type="line"/>
      <point x="570" y="13"/>
      <point x="674" y="145"/>
      <point x="674" y="349" type="curve" smooth="yes"/>
      <point x="674" y="573"/>
      <point x="549" y="710"/>
      <point x="362" y="710" type="curve" smooth="yes"/>
      <point x="175" y="710"/>
      <point x="50" y="573"/>
      <point x="50" y="349" type="curve" smooth="yes"/>
      <point x="50" y="147"/>
      <point x="150" y="16"/>
      <point x="306" y="-8" type="curve"/>
      <point x="368" y="-99" type="line" smooth="yes"/>
      <point x="405" y="-154"/>
      <point x="439" y="-176"/>
      <point x="516" y="-176" type="curve" smooth="yes"/>
    </contour>
  </outline>
</glyph>
<glyph name="T" format="2">
  <advance width="665"/>
  <unicode hex="0054"/>
  <outline>
    <contour>
      <point x="189" y="0" type="line"/>
      <point x="478" y="0" type="line"/>
      <point x="478" y="50" type="line"/>
      <point x="384" y="50" type="line"/>
      <point x="384" y="644" type="line"/>
      <point x="550" y="644" type="line"/>
      <point x="550" y="527" type="line"/>
      <point x="630" y="527" type="line"/>
      <point x="630" y="698" type="line"/>
      <point x="35" y="698" type="line"/>
      <point x="35" y="527" type="line"/>
      <point x="115" y="527" type="line"/>
      <point x="115" y="644" type="line"/>
      <point x="283" y="644" type="line"/>
      <point x="283" y="50" type="line"/>
      <point x="189" y="50" type="line"/>
    </contour>
  </outline>
</glyph>
<glyph name="U" format="2">
  <advance width="741"/>
  <unicode hex="0055"/>
  <outline>
    <contour>
      <point x="381" y="-12" type="curve" smooth="yes"/>
      <point x="561" y="-12"/>
      <point x="624" y="80"/>
      <point x="624" y="279" type="curve" smooth="yes"/>
      <point x="624" y="648" type="line"/>
      <point x="698" y="648" type="line"/>
      <point x="698" y="698" type="line"/>
      <point x="491" y="698" type="line"/>
      <point x="491" y="648" type="line"/>
      <point x="565" y="648" type="line"/>
      <point x="565" y="255" type="line" smooth="yes"/>
      <point x="565" y="116"/>
      <point x="517" y="49"/>
      <point x="389" y="49" type="curve" smooth="yes"/>
      <point x="261" y="49"/>
      <point x="219" y="116"/>
      <point x="219" y="255" type="curve" smooth="yes"/>
      <point x="219" y="648" type="line"/>
      <point x="293" y="648" type="line"/>
      <point x="293" y="698" type="line"/>
      <point x="44" y="698" type="line"/>
      <point x="44" y="648" type="line"/>
      <point x="118" y="648" type="line"/>
      <point x="118" y="269" type="line" smooth="yes"/>
      <point x="118" y="66"/>
      <point x="193" y="-12"/>
    </contour>
  </outline>
</glyph>
<glyph name="V" format="2">
  <advance width="670"/>
  <unicode hex="0056"/>
  <outline>
    <contour>
      <point x="287" y="0" type="line"/>
      <point x="383" y="0" type="line"/>
      <point x="597" y="648" type="line"/>
      <point x="649" y="648" type="line"/>
      <point x="649" y="698" type="line"/>
      <point x="446" y="698" type="line"/>
      <point x="446" y="648" type="line"/>
      <point x="534" y="648" type="line"/>
      <point x="434" y="342" type="line"/>
      <point x="358" y="93" type="line"/>
      <point x="354" y="93" type="line"/>
      <point x="278" y="341" type="line"/>
      <point x="178" y="648" type="line"/>
      <point x="266" y="648" type="line"/>
      <point x="266" y="698" type="line"/>
      <point x="21" y="698" type="line"/>
      <point x="21" y="648" type="line"/>
      <point x="73" y="648" type="line"/>
    </contour>
  </outline>
</glyph>
<glyph name="Y" format="2">
  <advance width="644"/>
  <unicode hex="0059"/>
  <outline>
    <contour>
      <point x="181" y="0" type="line"/>
      <point x="464" y="0" type="line"/>
      <point x="464" y="50" type="line"/>
      <point x="373" y="50" type="line"/>
      <point x="373" y="289" type="line"/>
      <point x="571" y="648" type="line"/>
      <point x="623" y="648" type="line"/>
      <point x="623" y="698" type="line"/>
      <point x="420" y="698" type="line"/>
      <point x="420" y="648" type="line"/>
      <point x="506" y="648" type="line"/>
      <point x="348" y="347" type="line"/>
      <point x="344" y="347" type="line"/>
      <point x="186" y="648" type="line"/>
      <point x="272" y="648" type="line"/>
      <point x="272" y="698" type="line"/>
      <point x="21" y="698" type="line"/>
      <point x="21" y="648" type="line"/>
      <point x="73" y="648" type="line"/>
      <point x="272" y="281" type="line"/>
      <point x="272" y="50" type="line"/>
      <point x="181" y="50" type="line"/>
    </contour>
  </outline>
</glyph>
<glyph name="Z" format="2">
  <advance width="641"/>
  <unicode hex="005A"/>
  <outline>
    <contour>
      <point x="57" y="0" type="line"/>
      <point x="579" y="0" type="line"/>
      <point x="579" y="182" type="line"/>
      <point x="498" y="182" type="line"/>
      <point x="498" y="54" type="line"/>
      <point x="173" y="54" type="line"/>
      <point x="569" y="645" type="line"/>
      <point x="569" y="698" type="line"/>
      <point x="67" y="698" type="line"/>
      <point x="67" y="527" type="line"/>
      <point x="148" y="527" type="line"/>
      <point x="148" y="644" type="line"/>
      <point x="453" y="644" type="line"/>
      <point x="57" y="53" type="line"/>
    </contour>
  </outline>
</glyph>
<glyph name="bracketleft" format="2">
  <advance width="290"/>
  <unicode hex="005B"/>
  <outline>
    <contour>
      <point x="57" y="-138" type="line"/>
      <point x="264" y="-138" type="line"/>
      <point x="264" y="-89" type="line"/>
      <point x="145" y="-89" type="line"/>
      <point x="145" y="711" type="line"/>
      <point x="264" y="711" type="line"/>
      <point x="264" y="760" type="line"/>
      <point x="57" y="760" type="line"/>
    </contour>
  </outline>
</glyph>
<glyph name="backslash" format="2">
  <advance width="380"/>
  <unicode hex="005C"/>
  <outline>
    <contour>
      <point x="308" y="-143" type="line"/>
      <point x="372" y="-143" type="line"/>
      <point x="106" y="748" type="line"/>
      <point x="42" y="748" type="line"/>
    </contour>
  </outline>
</glyph>
<glyph name="bracketright" format="2">
  <advance width="290"/>
  <unicode hex="005D"/>
  <outline>
    <contour>
      <point x="26" y="-138" type="line"/>
      <point x="233" y="-138" type="line"/>
      <point x="233" y="760" type="line"/>
      <point x="26" y="760" type="line"/>
      <point x="26" y="711" type="line"/>
      <point x="145" y="711" type="line"/>
      <point x="145" y="-89" type="line"/>
      <point x="26" y="-89" type="line"/>
    </contour>
  </outline>
</glyph>
<glyph name="asciicircum" format="2">
  <advance width="600"/>
  <unicode hex="005E"/>
  <outline>
    <contour>
      <point x="106" y="313" type="line"/>
      <point x="297" y="630" type="line"/>
      <point x="303" y="630" type="line"/>
      <point x="494" y="313" type="line"/>
      <point x="545" y="341" type="line"/>
      <point x="338" y="698" type="line"/>
      <point x="262" y="698" type="line"/>
      <point x="55" y="341" type="line"/>
    </contour>
  </outline>
</glyph>
<glyph name="underscore" format="2">
  <advance width="563"/>
  <unicode hex="005F"/>
  <outline>
    <contour>
      <point x="25" y="-160" type="line"/>
      <point x="537" y="-160" type="line"/>
      <point x="537" y="-98" type="line"/>
      <point x="25" y="-98" type="line"/>
    </contour>
  </outline>
</glyph>
<glyph name="grave" format="2">
  <advance width="600"/>
  <unicode hex="0060"/>
  <outline>
    <contour>
      <point x="306" y="584" type="line"/>
      <point x="337" y="600" type="line"/>
      <point x="262" y="783" type="line"/>
      <point x="174" y="740" type="line"/>
    </contour>
  </outline>
</glyph>
<glyph name="b" format="2">
  <advance width="605"/>
  <unicode hex="0062"/>
  <outline>
    <contour>
      <point x="316" y="52" type="curve" smooth="yes"/>
      <point x="254" y="52"/>
      <point x="192" y="90"/>
      <point x="192" y="153" type="curve" smooth="yes"/>
      <point x="192" y="365" type="line" smooth="yes"/>
      <point x="192" y="428"/>
      <point x="254" y="466"/>
      <point x="316" y="466" type="curve" smooth="yes"/>
      <point x="401" y="466"/>
      <point x="453" y="405"/>
      <point x="453" y="306" type="curve" smooth="yes"/>
      <point x="453" y="212" type="line" smooth="yes"/>
      <point x="453" y="113"/>
      <point x="401" y="52"/>
    </contour>
    <contour>
      <point x="345" y="-12" type="curve" smooth="yes"/>
      <point x="473" y="-12"/>
      <point x="556" y="86"/>
      <point x="556" y="259" type="curve" smooth="yes"/>
      <point x="556" y="432"/>
      <point x="473" y="530"/>
      <point x="345" y="530" type="curve" smooth="yes"/>
      <point x="265" y="530"/>
      <point x="217" y="488"/>
      <point x="196" y="439" type="curve"/>
      <point x="192" y="439" type="line"/>
      <point x="192" y="760" type="line"/>
      <point x="25" y="727" type="line"/>
      <point x="25" y="689" type="line"/>
      <point x="96" y="676" type="line"/>
      <point x="96" y="0" type="line"/>
      <point x="136" y="0" type="line"/>
      <point x="188" y="79" type="line"/>
      <point x="192" y="79" type="line"/>
      <point x="213" y="30"/>
      <point x="264" y="-12"/>
    </contour>
  </outline>
</glyph>
<glyph name="f" format="2">
  <advance width="350"/>
  <unicode hex="0066"/>
  <outline>
    <contour>
      <point x="44" y="0" type="line"/>
      <point x="302" y="0" type="line"/>
      <point x="302" y="50" type="line"/>
      <point x="211" y="50" type="line"/>
      <point x="211" y="465" type="line"/>
      <point x="320" y="465" type="line"/>
      <point x="320" y="518" type="line"/>
      <point x="211" y="518" type="line"/>
      <point x="211" y="605" type="line" smooth="yes"/>
      <point x="211" y="677"/>
      <point x="239" y="719"/>
      <point x="294" y="719" type="curve" smooth="yes"/>
      <point x="307" y="719"/>
      <point x="320" y="718"/>
      <point x="328" y="715" type="curve"/>
      <point x="328" y="712" type="line"/>
      <point x="312" y="705"/>
      <point x="301" y="691"/>
      <point x="301" y="666" type="curve" smooth="yes"/>
      <point x="301" y="639"/>
      <point x="322" y="615"/>
      <point x="353" y="615" type="curve" smooth="yes"/>
      <point x="386" y="615"/>
      <point x="408" y="640"/>
      <point x="408" y="675" type="curve" smooth="yes"/>
      <point x="408" y="727"/>
      <point x="364" y="760"/>
      <point x="288" y="760" type="curve" smooth="yes"/>
      <point x="185" y="760"/>
      <point x="115" y="693"/>
      <point x="115" y="591" type="curve" smooth="yes"/>
      <point x="115" y="518" type="line"/>
      <point x="44" y="518" type="line"/>
      <point x="44" y="465" type="line"/>
      <point x="115" y="465" type="line"/>
      <point x="115" y="50" type="line"/>
      <point x="44" y="50" type="line"/>
    </contour>
  </outline>
</glyph>
<glyph name="g" format="2">
  <advance width="551"/>
  <unicode hex="0067"/>
  <outline>
    <contour>
      <point x="122" y="-83" type="curve" smooth="yes"/>
      <point x="122" y="-47"/>
      <point x="137" y="-19"/>
      <point x="176" y="0" type="curve"/>
      <point x="335" y="0" type="line" smooth="yes"/>
      <point x="416" y="0"/>
      <point x="447" y="-24"/>
      <point x="447" y="-73" type="curve" smooth="yes"/>
      <point x="447" y="-128"/>
      <point x="391" y="-160"/>
      <point x="295" y="-160" type="curve" smooth="yes"/>
      <point x="245" y="-160" type="line" smooth="yes"/>
      <point x="168" y="-160"/>
      <point x="122" y="-134"/>
    </contour>
    <contour>
      <point x="269" y="236" type="curve" smooth="yes"/>
      <point x="200" y="236"/>
      <point x="166" y="276"/>
      <point x="166" y="341" type="curve" smooth="yes"/>
      <point x="166" y="377" type="line" smooth="yes"/>
      <point x="166" y="442"/>
      <point x="200" y="482"/>
      <point x="269" y="482" type="curve" smooth="yes"/>
      <point x="338" y="482"/>
      <point x="372" y="442"/>
      <point x="372" y="377" type="curve" smooth="yes"/>
      <point x="372" y="341" type="line" smooth="yes"/>
      <point x="372" y="276"/>
      <point x="338" y="236"/>
    </contour>
    <contour>
      <point x="265" y="-212" type="curve" smooth="yes"/>
      <point x="438" y="-212"/>
      <point x="526" y="-148"/>
      <point x="526" y="-47" type="curve" smooth="yes"/>
      <point x="526" y="41"/>
      <point x="471" y="91"/>
      <point x="348" y="91" type="curve" smooth="yes"/>
      <point x="230" y="91" type="line" smooth="yes"/>
      <point x="174" y="91"/>
      <point x="150" y="104"/>
      <point x="150" y="136" type="curve" smooth="yes"/>
      <point x="150" y="164"/>
      <point x="179" y="186"/>
      <point x="211" y="194" type="curve"/>
      <point x="229" y="190"/>
      <point x="248" y="188"/>
      <point x="268" y="188" type="curve" smooth="yes"/>
      <point x="385" y="188"/>
      <point x="472" y="253"/>
      <point x="472" y="359" type="curve" smooth="yes"/>
      <point x="472" y="410"/>
      <point x="452" y="443"/>
      <point x="433" y="464" type="curve"/>
      <point x="433" y="511" type="line"/>
      <point x="437" y="511" type="line"/>
      <point x="446" y="496"/>
      <point x="463" y="490"/>
      <point x="482" y="490" type="curve" smooth="yes"/>
      <point x="517" y="490"/>
      <point x="536" y="510"/>
      <point x="536" y="541" type="curve" smooth="yes"/>
      <point x="536" y="572"/>
      <point x="512" y="592"/>
      <point x="481" y="592" type="curve" smooth="yes"/>
      <point x="439" y="592"/>
      <point x="406" y="567"/>
      <point x="403" y="490" type="curve"/>
      <point x="371" y="513"/>
      <point x="328" y="530"/>
      <point x="268" y="530" type="curve" smooth="yes"/>
      <point x="151" y="530"/>
      <point x="66" y="465"/>
      <point x="66" y="359" type="curve" smooth="yes"/>
      <point x="66" y="286"/>
      <point x="105" y="233"/>
      <point x="169" y="206" type="curve"/>
      <point x="169" y="202" type="line"/>
      <point x="122" y="190"/>
      <point x="80" y="160"/>
      <point x="80" y="104" type="curve" smooth="yes"/>
      <point x="80" y="59"/>
      <point x="103" y="29"/>
      <point x="146" y="16" type="curve"/>
      <point x="146" y="12" type="line"/>
      <point x="91" y="-1"/>
      <point x="39" y="-36"/>
      <point x="39" y="-90" type="curve" smooth="yes"/>
      <point x="39" y="-165"/>
      <point x="97" y="-212"/>
    </contour>
  </outline>
</glyph>
<glyph name="h" format="2">
  <advance width="630"/>
  <unicode hex="0068"/>
  <outline>
    <contour>
      <point x="34" y="0" type="line"/>
      <point x="272" y="0" type="line"/>
      <point x="272" y="50" type="line"/>
      <point x="201" y="50" type="line"/>
      <point x="201" y="367" type="line" smooth="yes"/>
      <point x="201" y="433"/>
      <point x="260" y="464"/>
      <point x="316" y="464" type="curve" smooth="yes"/>
      <point x="393" y="464"/>
      <point x="429" y="421"/>
      <point x="429" y="329" type="curve" smooth="yes"/>
      <point x="429" y="50" type="line"/>
      <point x="359" y="50" type="line"/>
      <point x="359" y="0" type="line"/>
      <point x="596" y="0" type="line"/>
      <point x="596" y="50" type="line"/>
      <point x="525" y="50" type="line"/>
      <point x="525" y="336" type="line" smooth="yes"/>
      <point x="525" y="465"/>
      <point x="476" y="530"/>
      <point x="351" y="530" type="curve" smooth="yes"/>
      <point x="270" y="530"/>
      <point x="221" y="481"/>
      <point x="205" y="438" type="curve"/>
      <point x="201" y="438" type="line"/>
      <point x="201" y="760" type="line"/>
      <point x="34" y="727" type="line"/>
      <point x="34" y="689" type="line"/>
      <point x="105" y="676" type="line"/>
      <point x="105" y="50" type="line"/>
      <point x="34" y="50" type="line"/>
    </contour>
  </outline>
</glyph>
<glyph name="i" format="2">
  <advance width="319"/>
  <unicode hex="0069"/>
  <outline>
    <contour>
      <point x="48" y="0" type="line"/>
      <point x="286" y="0" type="line"/>
      <point x="286" y="50" type="line"/>
      <point x="215" y="50" type="line"/>
      <point x="215" y="530" type="line"/>
      <point x="48" y="497" type="line"/>
      <point x="48" y="459" type="line"/>
      <point x="119" y="446" type="line"/>
      <point x="119" y="50" type="line"/>
      <point x="48" y="50" type="line"/>
    </contour>
    <contour>
      <point x="167" y="627" type="curve" smooth="yes"/>
      <point x="206" y="627"/>
      <point x="227" y="653"/>
      <point x="227" y="686" type="curve" smooth="yes"/>
      <point x="227" y="691" type="line" smooth="yes"/>
      <point x="227" y="724"/>
      <point x="206" y="750"/>
      <point x="167" y="750" type="curve" smooth="yes"/>
      <point x="128" y="750"/>
      <point x="107" y="724"/>
      <point x="107" y="691" type="curve" smooth="yes"/>
      <point x="107" y="686" type="line" smooth="yes"/>
      <point x="107" y="653"/>
      <point x="128" y="627"/>
    </contour>
  </outline>
</glyph>
<glyph name="k" format="2">
  <advance width="594"/>
  <unicode hex="006B"/>
  <outline>
    <contour>
      <point x="34" y="0" type="line"/>
      <point x="272" y="0" type="line"/>
      <point x="272" y="50" type="line"/>
      <point x="201" y="50" type="line"/>
      <point x="201" y="175" type="line"/>
      <point x="283" y="262" type="line"/>
      <point x="419" y="50" type="line"/>
      <point x="359" y="50" type="line"/>
      <point x="359" y="0" type="line"/>
      <point x="581" y="0" type="line"/>
      <point x="581" y="50" type="line"/>
      <point x="527" y="50" type="line"/>
      <point x="348" y="324" type="line"/>
      <point x="487" y="468" type="line"/>
      <point x="560" y="468" type="line"/>
      <point x="560" y="518" type="line"/>
      <point x="343" y="518" type="line"/>
      <point x="343" y="468" type="line"/>
      <point x="410" y="468" type="line"/>
      <point x="285" y="332" type="line"/>
      <point x="205" y="241" type="line"/>
      <point x="201" y="241" type="line"/>
      <point x="201" y="760" type="line"/>
      <point x="34" y="727" type="line"/>
      <point x="34" y="689" type="line"/>
      <point x="105" y="676" type="line"/>
      <point x="105" y="50" type="line"/>
      <point x="34" y="50" type="line"/>
    </contour>
  </outline>
</glyph>
<glyph name="l" format="2">
  <advance width="306"/>
  <unicode hex="006C"/>
  <outline>
    <contour>
      <point x="34" y="0" type="line"/>
      <point x="272" y="0" type="line"/>
      <point x="272" y="50" type="line"/>
      <point x="201" y="50" type="line"/>
      <point x="201" y="760" type="line"/>
      <point x="34" y="727" type="line"/>
      <point x="34" y="689" type="line"/>
      <point x="105" y="676" type="line"/>
      <point x="105" y="50" type="line"/>
      <point x="34" y="50" type="line"/>
    </contour>
  </outline>
</glyph>
<glyph name="m" format="2">
  <advance width="958"/>
  <unicode hex="006D"/>
  <outline>
    <contour>
      <point x="48" y="0" type="line"/>
      <point x="286" y="0" type="line"/>
      <point x="286" y="50" type="line"/>
      <point x="215" y="50" type="line"/>
      <point x="215" y="366" type="line" smooth="yes"/>
      <point x="215" y="433"/>
      <point x="271" y="464"/>
      <point x="328" y="464" type="curve" smooth="yes"/>
      <point x="404" y="464"/>
      <point x="438" y="421"/>
      <point x="438" y="329" type="curve" smooth="yes"/>
      <point x="438" y="50" type="line"/>
      <point x="367" y="50" type="line"/>
      <point x="367" y="0" type="line"/>
      <point x="605" y="0" type="line"/>
      <point x="605" y="50" type="line"/>
      <point x="534" y="50" type="line"/>
      <point x="534" y="366" type="line" smooth="yes"/>
      <point x="534" y="433"/>
      <point x="590" y="464"/>
      <point x="646" y="464" type="curve" smooth="yes"/>
      <point x="722" y="464"/>
      <point x="757" y="421"/>
      <point x="757" y="329" type="curve" smooth="yes"/>
      <point x="757" y="50" type="line"/>
      <point x="687" y="50" type="line"/>
      <point x="687" y="0" type="line"/>
      <point x="924" y="0" type="line"/>
      <point x="924" y="50" type="line"/>
      <point x="853" y="50" type="line"/>
      <point x="853" y="335" type="line" smooth="yes"/>
      <point x="853" y="464"/>
      <point x="805" y="530"/>
      <point x="681" y="530" type="curve" smooth="yes"/>
      <point x="593" y="530"/>
      <point x="547" y="477"/>
      <point x="525" y="428" type="curve"/>
      <point x="521" y="428" type="line"/>
      <point x="501" y="496"/>
      <point x="450" y="530"/>
      <point x="362" y="530" type="curve" smooth="yes"/>
      <point x="281" y="530"/>
      <point x="233" y="481"/>
      <point x="217" y="438" type="curve"/>
      <point x="213" y="438" type="line"/>
      <point x="213" y="530" type="line"/>
      <point x="48" y="497" type="line"/>
      <point x="48" y="459" type="line"/>
      <point x="119" y="446" type="line"/>
      <point x="119" y="50" type="line"/>
      <point x="48" y="50" type="line"/>
    </contour>
  </outline>
</glyph>
<glyph name="n" format="2">
  <advance width="644"/>
  <unicode hex="006E"/>
  <outline>
    <contour>
      <point x="48" y="0" type="line"/>
      <point x="286" y="0" type="line"/>
      <point x="286" y="50" type="line"/>
      <point x="215" y="50" type="line"/>
      <point x="215" y="367" type="line" smooth="yes"/>
      <point x="215" y="433"/>
      <point x="274" y="464"/>
      <point x="330" y="464" type="curve" smooth="yes"/>
      <point x="407" y="464"/>
      <point x="443" y="421"/>
      <point x="443" y="329" type="curve" smooth="yes"/>
      <point x="443" y="50" type="line"/>
      <point x="373" y="50" type="line"/>
      <point x="373" y="0" type="line"/>
      <point x="610" y="0" type="line"/>
      <point x="610" y="50" type="line"/>
      <point x="539" y="50" type="line"/>
      <point x="539" y="336" type="line" smooth="yes"/>
      <point x="539" y="465"/>
      <point x="490" y="530"/>
      <point x="365" y="530" type="curve" smooth="yes"/>
      <point x="283" y="530"/>
      <point x="233" y="481"/>
      <point x="217" y="438" type="curve"/>
      <point x="213" y="438" type="line"/>
      <point x="213" y="530" type="line"/>
      <point x="48" y="497" type="line"/>
      <point x="48" y="459" type="line"/>
      <point x="119" y="446" type="line"/>
      <point x="119" y="50" type="line"/>
      <point x="48" y="50" type="line"/>
    </contour>
  </outline>
</glyph>
<glyph name="p" format="2">
  <advance width="617"/>
  <unicode hex="0070"/>
  <outline>
    <contour>
      <point x="329" y="52" type="curve" smooth="yes"/>
      <point x="267" y="52"/>
      <point x="205" y="90"/>
      <point x="205" y="153" type="curve" smooth="yes"/>
      <point x="205" y="365" type="line" smooth="yes"/>
      <point x="205" y="428"/>
      <point x="267" y="466"/>
      <point x="329" y="466" type="curve" smooth="yes"/>
      <point x="414" y="466"/>
      <point x="466" y="405"/>
      <point x="466" y="306" type="curve" smooth="yes"/>
      <point x="466" y="212" type="line" smooth="yes"/>
      <point x="466" y="113"/>
      <point x="414" y="52"/>
    </contour>
    <contour>
      <point x="38" y="-200" type="line"/>
      <point x="296" y="-200" type="line"/>
      <point x="296" y="-150" type="line"/>
      <point x="205" y="-150" type="line"/>
      <point x="205" y="79" type="line"/>
      <point x="209" y="79" type="line"/>
      <point x="230" y="30"/>
      <point x="278" y="-12"/>
      <point x="358" y="-12" type="curve" smooth="yes"/>
      <point x="486" y="-12"/>
      <point x="569" y="86"/>
      <point x="569" y="259" type="curve" smooth="yes"/>
      <point x="569" y="432"/>
      <point x="486" y="530"/>
      <point x="358" y="530" type="curve" smooth="yes"/>
      <point x="278" y="530"/>
      <point x="230" y="488"/>
      <point x="209" y="439" type="curve"/>
      <point x="205" y="439" type="line"/>
      <point x="205" y="530" type="line"/>
      <point x="38" y="497" type="line"/>
      <point x="38" y="459" type="line"/>
      <point x="109" y="446" type="line"/>
      <point x="109" y="-150" type="line"/>
      <point x="38" y="-150" type="line"/>
    </contour>
  </outline>
</glyph>
<glyph name="r" format="2">
  <advance width="454"/>
  <unicode hex="0072"/>
  <outline>
    <contour>
      <point x="48" y="0" type="line"/>
      <point x="306" y="0" type="line"/>
      <point x="306" y="50" type="line"/>
      <point x="215" y="50" type="line"/>
      <point x="215" y="367" type="line" smooth="yes"/>
      <point x="215" y="420"/>
      <point x="272" y="480"/>
      <point x="326" y="480" type="curve" smooth="yes"/>
      <point x="337" y="480"/>
      <point x="343" y="479"/>
      <point x="348" y="478" type="curve"/>
      <point x="348" y="475" type="line"/>
      <point x="333" y="472"/>
      <point x="322" y="456"/>
      <point x="322" y="431" type="curve" smooth="yes"/>
      <point x="322" y="400"/>
      <point x="345" y="376"/>
      <point x="384" y="376" type="curve" smooth="yes"/>
      <point x="419" y="376"/>
      <point x="443" y="401"/>
      <point x="443" y="444" type="curve" smooth="yes"/>
      <point x="443" y="500"/>
      <point x="404" y="530"/>
      <point x="344" y="530" type="curve" smooth="yes"/>
      <point x="273" y="530"/>
      <point x="236" y="482"/>
      <point x="217" y="438" type="curve"/>
      <point x="213" y="438" type="line"/>
      <point x="213" y="530" type="line"/>
      <point x="48" y="497" type="line"/>
      <point x="48" y="459" type="line"/>
      <point x="119" y="446" type="line"/>
      <point x="119" y="50" type="line"/>
      <point x="48" y="50" type="line"/>
    </contour>
  </outline>
</glyph>
<glyph name="t" format="2">
  <advance width="357"/>
  <unicode hex="0074"/>
  <outline>
    <contour>
      <point x="203" y="-6" type="curve" smooth="yes"/>
      <point x="254" y="-6"/>
      <point x="308" y="4"/>
      <point x="331" y="16" type="curve"/>
      <point x="331" y="54" type="line"/>
      <point x="201" y="54" type="line"/>
      <point x="201" y="465" type="line"/>
      <point x="331" y="465" type="line"/>
      <point x="331" y="518" type="line"/>
      <point x="201" y="518" type="line"/>
      <point x="201" y="654" type="line"/>
      <point x="150" y="654" type="line"/>
      <point x="124" y="565" type="line" smooth="yes"/>
      <point x="113" y="533"/>
      <point x="104" y="518"/>
      <point x="51" y="518" type="curve" smooth="yes"/>
      <point x="39" y="518" type="line"/>
      <point x="39" y="465" type="line"/>
      <point x="106" y="465" type="line"/>
      <point x="106" y="90" type="line" smooth="yes"/>
      <point x="106" y="22"/>
      <point x="131" y="-6"/>
    </contour>
  </outline>
</glyph>
<glyph name="v" format="2">
  <advance width="540"/>
  <unicode hex="0076"/>
  <outline>
    <contour>
      <point x="233" y="0" type="line"/>
      <point x="307" y="0" type="line"/>
      <point x="486" y="468" type="line"/>
      <point x="537" y="468" type="line"/>
      <point x="537" y="518" type="line"/>
      <point x="353" y="518" type="line"/>
      <point x="353" y="468" type="line"/>
      <point x="424" y="468" type="line"/>
      <point x="292" y="99" type="line"/>
      <point x="288" y="99" type="line"/>
      <point x="156" y="468" type="line"/>
      <point x="227" y="468" type="line"/>
      <point x="227" y="518" type="line"/>
      <point x="3" y="518" type="line"/>
      <point x="3" y="468" type="line"/>
      <point x="54" y="468" type="line"/>
    </contour>
  </outline>
</glyph>
<glyph name="x" format="2">
  <advance width="567"/>
  <unicode hex="0078"/>
  <outline>
    <contour>
      <point x="28" y="0" type="line"/>
      <point x="212" y="0" type="line"/>
      <point x="212" y="50" type="line"/>
      <point x="151" y="50" type="line"/>
      <point x="261" y="210" type="line"/>
      <point x="266" y="210" type="line"/>
      <point x="373" y="50" type="line"/>
      <point x="314" y="50" type="line"/>
      <point x="314" y="0" type="line"/>
      <point x="540" y="0" type="line"/>
      <point x="540" y="50" type="line"/>
      <point x="489" y="50" type="line"/>
      <point x="336" y="269" type="line"/>
      <point x="478" y="468" type="line"/>
      <point x="535" y="468" type="line"/>
      <point x="535" y="518" type="line"/>
      <point x="351" y="518" type="line"/>
      <point x="351" y="468" type="line"/>
      <point x="412" y="468" type="line"/>
      <point x="307" y="310" type="line"/>
      <point x="303" y="310" type="line"/>
      <point x="196" y="468" type="line"/>
      <point x="255" y="468" type="line"/>
      <point x="255" y="518" type="line"/>
      <point x="31" y="518" type="line"/>
      <point x="31" y="468" type="line"/>
      <point x="82" y="468" type="line"/>
      <point x="233" y="251" type="line"/>
      <point x="85" y="50" type="line"/>
      <point x="28" y="50" type="line"/>
    </contour>
  </outline>
</glyph>
<glyph name="z" format="2">
  <advance width="508"/>
  <unicode hex="007A"/>
  <outline>
    <contour>
      <point x="46" y="0" type="line"/>
      <point x="462" y="0" type="line"/>
      <point x="462" y="156" type="line"/>
      <point x="395" y="156" type="line"/>
      <point x="395" y="52" type="line"/>
      <point x="165" y="52" type="line"/>
      <point x="454" y="478" type="line"/>
      <point x="454" y="518" type="line"/>
      <point x="54" y="518" type="line"/>
      <point x="54" y="362" type="line"/>
      <point x="121" y="362" type="line"/>
      <point x="121" y="466" type="line"/>
      <point x="335" y="466" type="line"/>
      <point x="46" y="40" type="line"/>
    </contour>
  </outline>
</glyph>
<glyph name="braceleft" format="2">
  <advance width="334"/>
  <unicode hex="007B"/>
  <outline>
    <contour>
      <point x="304" y="-138" type="line"/>
      <point x="304" y="-89" type="line"/>
      <point x="204" y="-89" type="line"/>
      <point x="204" y="177" type="line" smooth="yes"/>
      <point x="204" y="243"/>
      <point x="153" y="294"/>
      <point x="93" y="305" type="curve"/>
      <point x="93" y="317" type="line"/>
      <point x="153" y="328"/>
      <point x="204" y="379"/>
      <point x="204" y="445" type="curve" smooth="yes"/>
      <point x="204" y="711" type="line"/>
      <point x="304" y="711" type="line"/>
      <point x="304" y="760" type="line"/>
      <point x="203" y="760" type="line" smooth="yes"/>
      <point x="144" y="760"/>
      <point x="116" y="726"/>
      <point x="116" y="675" type="curve" smooth="yes"/>
      <point x="116" y="427" type="line" smooth="yes"/>
      <point x="116" y="368"/>
      <point x="74" y="339"/>
      <point x="15" y="339" type="curve"/>
      <point x="15" y="283" type="line"/>
      <point x="74" y="283"/>
      <point x="116" y="254"/>
      <point x="116" y="195" type="curve" smooth="yes"/>
      <point x="116" y="-53" type="line" smooth="yes"/>
      <point x="116" y="-104"/>
      <point x="144" y="-138"/>
      <point x="203" y="-138" type="curve" smooth="yes"/>
    </contour>
  </outline>
</glyph>
<glyph name="bar" format="2">
  <advance width="313"/>
  <unicode hex="007C"/>
  <outline>
    <contour>
      <point x="126" y="-138" type="line"/>
      <point x="187" y="-138" type="line"/>
      <point x="187" y="760" type="line"/>
      <point x="126" y="760" type="line"/>
    </contour>
  </outline>
</glyph>
<glyph name="braceright" format="2">
  <advance width="334"/>
  <unicode hex="007D"/>
  <outline>
    <contour>
      <point x="29" y="-138" type="line"/>
      <point x="130" y="-138" type="line" smooth="yes"/>
      <point x="189" y="-138"/>
      <point x="217" y="-104"/>
      <point x="217" y="-53" type="curve" smooth="yes"/>
      <point x="217" y="195" type="line" smooth="yes"/>
      <point x="217" y="254"/>
      <point x="259" y="283"/>
      <point x="318" y="283" type="curve"/>
      <point x="318" y="339" type="line"/>
      <point x="259" y="339"/>
      <point x="217" y="368"/>
      <point x="217" y="427" type="curve" smooth="yes"/>
      <point x="217" y="675" type="line" smooth="yes"/>
      <point x="217" y="726"/>
      <point x="189" y="760"/>
      <point x="130" y="760" type="curve" smooth="yes"/>
      <point x="29" y="760" type="line"/>
      <point x="29" y="711" type="line"/>
      <point x="129" y="711" type="line"/>
      <point x="129" y="445" type="line" smooth="yes"/>
      <point x="129" y="379"/>
      <point x="180" y="327"/>
      <point x="240" y="317" type="curve"/>
      <point x="240" y="305" type="line"/>
      <point x="180" y="295"/>
      <point x="129" y="243"/>
      <point x="129" y="177" type="curve" smooth="yes"/>
      <point x="129" y="-89" type="line"/>
      <point x="29" y="-89" type="line"/>
    </contour>
  </outline>
</glyph>
<glyph name="asciitilde" format="2">
  <advance width="600"/>
  <unicode hex="007E"/>
  <outline>
    <contour>
      <point x="418" y="240" type="curve" smooth="yes"/>
      <point x="478" y="240"/>
      <point x="510" y="263"/>
      <point x="537" y="296" type="curve"/>
      <point x="510" y="334" type="line"/>
      <point x="479" y="313"/>
      <point x="458" y="303"/>
      <point x="423" y="303" type="curve" smooth="yes"/>
      <point x="383" y="303"/>
      <point x="349" y="318"/>
      <point x="310" y="337" type="curve" smooth="yes"/>
      <point x="263" y="360"/>
      <point x="230" y="374"/>
      <point x="182" y="374" type="curve" smooth="yes"/>
      <point x="122" y="374"/>
      <point x="90" y="351"/>
      <point x="63" y="318" type="curve"/>
      <point x="90" y="280" type="line"/>
      <point x="121" y="301"/>
      <point x="142" y="311"/>
      <point x="177" y="311" type="curve" smooth="yes"/>
      <point x="217" y="311"/>
      <point x="251" y="296"/>
      <point x="290" y="277" type="curve" smooth="yes"/>
      <point x="337" y="254"/>
      <point x="370" y="240"/>
    </contour>
  </outline>
</glyph>
<glyph name="exclamdown" format="2">
  <advance width="282"/>
  <unicode hex="00A1"/>
  <outline>
    <contour>
      <point x="92" y="-180" type="line"/>
      <point x="190" y="-180" type="line"/>
      <point x="190" y="17" type="line"/>
      <point x="161" y="327" type="line"/>
      <point x="121" y="327" type="line"/>
      <point x="92" y="17" type="line"/>
    </contour>
    <contour>
      <point x="141" y="394" type="curve" smooth="yes"/>
      <point x="184" y="394"/>
      <point x="208" y="423"/>
      <point x="208" y="459" type="curve" smooth="yes"/>
      <point x="208" y="465" type="line" smooth="yes"/>
      <point x="208" y="501"/>
      <point x="184" y="530"/>
      <point x="141" y="530" type="curve" smooth="yes"/>
      <point x="98" y="530"/>
      <point x="74" y="501"/>
      <point x="74" y="465" type="curve" smooth="yes"/>
      <point x="74" y="459" type="line" smooth="yes"/>
      <point x="74" y="423"/>
      <point x="98" y="394"/>
    </contour>
  </outline>
</glyph>
<glyph name="cent" format="2">
  <advance width="523"/>
  <unicode hex="00A2"/>
  <outline>
    <contour>
      <point x="258" y="62" type="line"/>
      <point x="189" y="81"/>
      <point x="148" y="142"/>
      <point x="148" y="231" type="curve" smooth="yes"/>
      <point x="148" y="310" type="line" smooth="yes"/>
      <point x="148" y="391"/>
      <point x="190" y="453"/>
      <point x="258" y="472" type="curve"/>
    </contour>
    <contour>
      <point x="256" y="-114" type="line"/>
      <point x="311" y="-114" type="line"/>
      <point x="311" y="-11" type="line"/>
      <point x="408" y="0"/>
      <point x="460" y="62"/>
      <point x="484" y="126" type="curve"/>
      <point x="448" y="149" type="line"/>
      <point x="421" y="98"/>
      <point x="384" y="60"/>
      <point x="309" y="57" type="curve"/>
      <point x="309" y="479" type="line"/>
      <point x="345" y="479"/>
      <point x="370" y="473"/>
      <point x="390" y="462" type="curve"/>
      <point x="390" y="458" type="line"/>
      <point x="363" y="447"/>
      <point x="347" y="427"/>
      <point x="347" y="400" type="curve" smooth="yes"/>
      <point x="347" y="365"/>
      <point x="368" y="338"/>
      <point x="407" y="338" type="curve" smooth="yes"/>
      <point x="448" y="338"/>
      <point x="472" y="362"/>
      <point x="472" y="405" type="curve" smooth="yes"/>
      <point x="472" y="473"/>
      <point x="411" y="524"/>
      <point x="311" y="529" type="curve"/>
      <point x="311" y="629" type="line"/>
      <point x="256" y="629" type="line"/>
      <point x="256" y="527" type="line"/>
      <point x="131" y="511"/>
      <point x="44" y="410"/>
      <point x="44" y="259" type="curve" smooth="yes"/>
      <point x="44" y="107"/>
      <point x="120" y="2"/>
      <point x="256" y="-11" type="curve"/>
    </contour>
  </outline>
</glyph>
<glyph name="sterling" format="2">
  <advance width="588"/>
  <unicode hex="00A3"/>
  <outline>
    <contour>
      <point x="62" y="0" type="line"/>
      <point x="526" y="0" type="line"/>
      <point x="526" y="181" type="line"/>
      <point x="472" y="181" type="line"/>
      <point x="472" y="82" type="line"/>
      <point x="134" y="82" type="line"/>
      <point x="134" y="87" type="line"/>
      <point x="186" y="114"/>
      <point x="242" y="176"/>
      <point x="242" y="259" type="curve" smooth="yes"/>
      <point x="242" y="276"/>
      <point x="240" y="291"/>
      <point x="237" y="306" type="curve"/>
      <point x="405" y="306" type="line"/>
      <point x="405" y="358" type="line"/>
      <point x="226" y="358" type="line"/>
      <point x="211" y="410"/>
      <point x="191" y="459"/>
      <point x="191" y="526" type="curve" smooth="yes"/>
      <point x="191" y="602"/>
      <point x="234" y="655"/>
      <point x="334" y="655" type="curve" smooth="yes"/>
      <point x="373" y="655"/>
      <point x="410" y="649"/>
      <point x="429" y="638" type="curve"/>
      <point x="429" y="634" type="line"/>
      <point x="402" y="621"/>
      <point x="387" y="600"/>
      <point x="387" y="571" type="curve" smooth="yes"/>
      <point x="387" y="536"/>
      <point x="408" y="507"/>
      <point x="451" y="507" type="curve" smooth="yes"/>
      <point x="494" y="507"/>
      <point x="519" y="535"/>
      <point x="519" y="579" type="curve" smooth="yes"/>
      <point x="519" y="654"/>
      <point x="438" y="710"/>
      <point x="312" y="710" type="curve" smooth="yes"/>
      <point x="181" y="710"/>
      <point x="93" y="630"/>
      <point x="93" y="516" type="curve" smooth="yes"/>
      <point x="93" y="459"/>
      <point x="113" y="409"/>
      <point x="130" y="358" type="curve"/>
      <point x="54" y="358" type="line"/>
      <point x="54" y="306" type="line"/>
      <point x="146" y="306" type="line"/>
      <point x="151" y="286"/>
      <point x="155" y="267"/>
      <point x="155" y="246" type="curve" smooth="yes"/>
      <point x="155" y="174"/>
      <point x="119" y="107"/>
      <point x="62" y="80" type="curve"/>
    </contour>
  </outline>
</glyph>
<glyph name="currency" format="2">
  <advance width="634"/>
  <unicode hex="00A4"/>
  <outline>
    <contour>
      <point x="317" y="170" type="curve" smooth="yes"/>
      <point x="233" y="170"/>
      <point x="195" y="227"/>
      <point x="195" y="304" type="curve" smooth="yes"/>
      <point x="195" y="394" type="line" smooth="yes"/>
      <point x="195" y="471"/>
      <point x="233" y="528"/>
      <point x="317" y="528" type="curve" smooth="yes"/>
      <point x="401" y="528"/>
      <point x="439" y="471"/>
      <point x="439" y="394" type="curve" smooth="yes"/>
      <point x="439" y="304" type="line" smooth="yes"/>
      <point x="439" y="227"/>
      <point x="401" y="170"/>
    </contour>
    <contour>
      <point x="317" y="117" type="curve" smooth="yes"/>
      <point x="370" y="117"/>
      <point x="414" y="131"/>
      <point x="449" y="159" type="curve"/>
      <point x="548" y="59" type="line"/>
      <point x="598" y="109" type="line"/>
      <point x="497" y="210" type="line"/>
      <point x="521" y="247"/>
      <point x="533" y="294"/>
      <point x="533" y="349" type="curve" smooth="yes"/>
      <point x="533" y="404"/>
      <point x="521" y="451"/>
      <point x="497" y="488" type="curve"/>
      <point x="598" y="589" type="line"/>
      <point x="548" y="639" type="line"/>
      <point x="449" y="539" type="line"/>
      <point x="414" y="567"/>
      <point x="370" y="581"/>
      <point x="317" y="581" type="curve" smooth="yes"/>
      <point x="264" y="581"/>
      <point x="220" y="567"/>
      <point x="185" y="539" type="curve"/>
      <point x="86" y="639" type="line"/>
      <point x="36" y="589" type="line"/>
      <point x="137" y="488" type="line"/>
      <point x="113" y="451"/>
      <point x="101" y="404"/>
      <point x="101" y="349" type="curve" smooth="yes"/>
      <point x="101" y="294"/>
      <point x="113" y="247"/>
      <point x="137" y="210" type="curve"/>
      <point x="36" y="109" type="line"/>
      <point x="86" y="59" type="line"/>
      <point x="185" y="159" type="line"/>
      <point x="220" y="131"/>
      <point x="264" y="117"/>
    </contour>
  </outline>
</glyph>
<glyph name="yen" format="2">
  <advance width="652"/>
  <unicode hex="00A5"/>
  <outline>
    <contour>
      <point x="182" y="0" type="line"/>
      <point x="471" y="0" type="line"/>
      <point x="471" y="50" type="line"/>
      <point x="377" y="50" type="line"/>
      <point x="377" y="151" type="line"/>
      <point x="548" y="151" type="line"/>
      <point x="548" y="201" type="line"/>
      <point x="377" y="201" type="line"/>
      <point x="377" y="301" type="line"/>
      <point x="548" y="301" type="line"/>
      <point x="548" y="351" type="line"/>
      <point x="399" y="351" type="line"/>
      <point x="575" y="648" type="line"/>
      <point x="630" y="648" type="line"/>
      <point x="630" y="698" type="line"/>
      <point x="424" y="698" type="line"/>
      <point x="424" y="648" type="line"/>
      <point x="510" y="648" type="line"/>
      <point x="349" y="366" type="line"/>
      <point x="345" y="366" type="line"/>
      <point x="190" y="648" type="line"/>
      <point x="276" y="648" type="line"/>
      <point x="276" y="698" type="line"/>
      <point x="23" y="698" type="line"/>
      <point x="23" y="648" type="line"/>
      <point x="78" y="648" type="line"/>
      <point x="247" y="351" type="line"/>
      <point x="105" y="351" type="line"/>
      <point x="105" y="301" type="line"/>
      <point x="276" y="301" type="line"/>
      <point x="276" y="201" type="line"/>
      <point x="105" y="201" type="line"/>
      <point x="105" y="151" type="line"/>
      <point x="276" y="151" type="line"/>
      <point x="276" y="50" type="line"/>
      <point x="182" y="50" type="line"/>
    </contour>
  </outline>
</glyph>
<glyph name="brokenbar" format="2">
  <advance width="313"/>
  <unicode hex="00A6"/>
  <outline>
    <contour>
      <point x="126" y="401" type="line"/>
      <point x="187" y="401" type="line"/>
      <point x="187" y="760" type="line"/>
      <point x="126" y="760" type="line"/>
    </contour>
    <contour>
      <point x="126" y="-138" type="line"/>
      <point x="187" y="-138" type="line"/>
      <point x="187" y="221" type="line"/>
      <point x="126" y="221" type="line"/>
    </contour>
  </outline>
</glyph>
<glyph name="section" format="2">
  <advance width="589"/>
  <unicode hex="00A7"/>
  <outline>
    <contour>
      <point x="352" y="161" type="curve"/>
      <point x="341" y="165"/>
      <point x="328" y="170"/>
      <point x="317" y="173" type="curve" smooth="yes"/>
      <point x="249" y="192" type="line" smooth="yes"/>
      <point x="188" y="209"/>
      <point x="157" y="238"/>
      <point x="157" y="289" type="curve" smooth="yes"/>
      <point x="157" y="352"/>
      <point x="189" y="383"/>
      <point x="238" y="394" type="curve"/>
      <point x="249" y="390"/>
      <point x="262" y="385"/>
      <point x="273" y="382" type="curve" smooth="yes"/>
      <point x="341" y="363" type="line" smooth="yes"/>
      <point x="402" y="346"/>
      <point x="433" y="317"/>
      <point x="433" y="266" type="curve" smooth="yes"/>
      <point x="433" y="203"/>
      <point x="401" y="172"/>
    </contour>
    <contour>
      <point x="270" y="-155" type="curve" smooth="yes"/>
      <point x="397" y="-155"/>
      <point x="466" y="-95"/>
      <point x="466" y="5" type="curve" smooth="yes"/>
      <point x="466" y="66"/>
      <point x="441" y="111"/>
      <point x="392" y="140" type="curve"/>
      <point x="392" y="144" type="line"/>
      <point x="467" y="167"/>
      <point x="518" y="219"/>
      <point x="518" y="291" type="curve" smooth="yes"/>
      <point x="518" y="378"/>
      <point x="462" y="421"/>
      <point x="361" y="450" type="curve" smooth="yes"/>
      <point x="297" y="468" type="line" smooth="yes"/>
      <point x="241" y="485"/>
      <point x="209" y="516"/>
      <point x="209" y="568" type="curve" smooth="yes"/>
      <point x="209" y="631"/>
      <point x="251" y="661"/>
      <point x="330" y="661" type="curve" smooth="yes"/>
      <point x="353" y="661"/>
      <point x="374" y="658"/>
      <point x="394" y="651" type="curve"/>
      <point x="394" y="649" type="line"/>
      <point x="375" y="638"/>
      <point x="360" y="627"/>
      <point x="360" y="599" type="curve" smooth="yes"/>
      <point x="360" y="568"/>
      <point x="382" y="544"/>
      <point x="417" y="544" type="curve" smooth="yes"/>
      <point x="454" y="544"/>
      <point x="480" y="569"/>
      <point x="480" y="610" type="curve" smooth="yes"/>
      <point x="480" y="671"/>
      <point x="419" y="710"/>
      <point x="319" y="710" type="curve" smooth="yes"/>
      <point x="192" y="710"/>
      <point x="123" y="650"/>
      <point x="123" y="550" type="curve" smooth="yes"/>
      <point x="123" y="489"/>
      <point x="148" y="444"/>
      <point x="197" y="415" type="curve"/>
      <point x="197" y="411" type="line"/>
      <point x="122" y="388"/>
      <point x="71" y="336"/>
      <point x="71" y="264" type="curve" smooth="yes"/>
      <point x="71" y="177"/>
      <point x="125" y="134"/>
      <point x="228" y="105" type="curve" smooth="yes"/>
      <point x="292" y="87" type="line" smooth="yes"/>
      <point x="348" y="70"/>
      <point x="380" y="39"/>
      <point x="380" y="-13" type="curve" smooth="yes"/>
      <point x="380" y="-76"/>
      <point x="338" y="-106"/>
      <point x="259" y="-106" type="curve" smooth="yes"/>
      <point x="236" y="-106"/>
      <point x="215" y="-103"/>
      <point x="195" y="-96" type="curve"/>
      <point x="195" y="-94" type="line"/>
      <point x="214" y="-83"/>
      <point x="229" y="-72"/>
      <point x="229" y="-44" type="curve" smooth="yes"/>
      <point x="229" y="-13"/>
      <point x="207" y="11"/>
      <point x="172" y="11" type="curve" smooth="yes"/>
      <point x="135" y="11"/>
      <point x="109" y="-14"/>
      <point x="109" y="-55" type="curve" smooth="yes"/>
      <point x="109" y="-116"/>
      <point x="170" y="-155"/>
    </contour>
  </outline>
</glyph>
<glyph name="dieresis" format="2">
  <advance width="600"/>
  <unicode hex="00A8"/>
  <outline>
    <contour>
      <point x="394" y="615" type="curve" smooth="yes"/>
      <point x="429" y="615"/>
      <point x="449" y="637"/>
      <point x="449" y="668" type="curve" smooth="yes"/>
      <point x="449" y="672" type="line" smooth="yes"/>
      <point x="449" y="703"/>
      <point x="429" y="725"/>
      <point x="394" y="725" type="curve" smooth="yes"/>
      <point x="359" y="725"/>
      <point x="339" y="703"/>
      <point x="339" y="672" type="curve" smooth="yes"/>
      <point x="339" y="668" type="line" smooth="yes"/>
      <point x="339" y="637"/>
      <point x="359" y="615"/>
    </contour>
    <contour>
      <point x="206" y="615" type="curve" smooth="yes"/>
      <point x="241" y="615"/>
      <point x="261" y="637"/>
      <point x="261" y="668" type="curve" smooth="yes"/>
      <point x="261" y="672" type="line" smooth="yes"/>
      <point x="261" y="703"/>
      <point x="241" y="725"/>
      <point x="206" y="725" type="curve" smooth="yes"/>
      <point x="171" y="725"/>
      <point x="151" y="703"/>
      <point x="151" y="672" type="curve" smooth="yes"/>
      <point x="151" y="668" type="line" smooth="yes"/>
      <point x="151" y="637"/>
      <point x="171" y="615"/>
    </contour>
  </outline>
</glyph>
<glyph name="copyright" format="2">
  <advance width="780"/>
  <unicode hex="00A9"/>
  <outline>
    <contour>
      <point x="390" y="-12" type="curve" smooth="yes"/>
      <point x="582" y="-12"/>
      <point x="726" y="127"/>
      <point x="726" y="349" type="curve" smooth="yes"/>
      <point x="726" y="571"/>
      <point x="582" y="710"/>
      <point x="390" y="710" type="curve" smooth="yes"/>
      <point x="198" y="710"/>
      <point x="54" y="571"/>
      <point x="54" y="349" type="curve" smooth="yes"/>
      <point x="54" y="127"/>
      <point x="198" y="-12"/>
    </contour>
    <contour>
      <point x="390" y="37" type="curve" smooth="yes"/>
      <point x="226" y="37"/>
      <point x="110" y="158"/>
      <point x="110" y="318" type="curve" smooth="yes"/>
      <point x="110" y="380" type="line" smooth="yes"/>
      <point x="110" y="540"/>
      <point x="226" y="661"/>
      <point x="390" y="661" type="curve" smooth="yes"/>
      <point x="554" y="661"/>
      <point x="670" y="540"/>
      <point x="670" y="380" type="curve" smooth="yes"/>
      <point x="670" y="318" type="line" smooth="yes"/>
      <point x="670" y="158"/>
      <point x="554" y="37"/>
    </contour>
    <contour>
      <point x="398" y="151" type="curve" smooth="yes"/>
      <point x="481" y="151"/>
      <point x="528" y="201"/>
      <point x="547" y="252" type="curve"/>
      <point x="518" y="269" type="line"/>
      <point x="499" y="233"/>
      <point x="470" y="207"/>
      <point x="411" y="207" type="curve" smooth="yes"/>
      <point x="343" y="207"/>
      <point x="298" y="253"/>
      <point x="298" y="329" type="curve" smooth="yes"/>
      <point x="298" y="388" type="line" smooth="yes"/>
      <point x="298" y="457"/>
      <point x="345" y="506"/>
      <point x="413" y="506" type="curve" smooth="yes"/>
      <point x="444" y="506"/>
      <point x="462" y="502"/>
      <point x="475" y="495" type="curve"/>
      <point x="475" y="493" type="line"/>
      <point x="454" y="484"/>
      <point x="443" y="469"/>
      <point x="443" y="449" type="curve" smooth="yes"/>
      <point x="443" y="422"/>
      <point x="460" y="401"/>
      <point x="488" y="401" type="curve" smooth="yes"/>
      <point x="519" y="401"/>
      <point x="538" y="421"/>
      <point x="538" y="452" type="curve" smooth="yes"/>
      <point x="538" y="507"/>
      <point x="486" y="547"/>
      <point x="405" y="547" type="curve" smooth="yes"/>
      <point x="297" y="547"/>
      <point x="220" y="470"/>
      <point x="220" y="348" type="curve" smooth="yes"/>
      <point x="220" y="231"/>
      <point x="283" y="151"/>
    </contour>
  </outline>
</glyph>
<glyph name="ordfeminine" format="2">
  <advance width="408"/>
  <unicode hex="00AA"/>
  <outline>
    <contour>
      <point x="176" y="385" type="curve" smooth="yes"/>
      <point x="137" y="385"/>
      <point x="113" y="400"/>
      <point x="113" y="435" type="curve" smooth="yes"/>
      <point x="113" y="446" type="line" smooth="yes"/>
      <point x="113" y="487"/>
      <point x="136" y="508"/>
      <point x="205" y="508" type="curve" smooth="yes"/>
      <point x="248" y="508" type="line"/>
      <point x="248" y="447" type="line" smooth="yes"/>
      <point x="248" y="404"/>
      <point x="216" y="385"/>
    </contour>
    <contour>
      <point x="149" y="342" type="curve" smooth="yes"/>
      <point x="209" y="342"/>
      <point x="236" y="369"/>
      <point x="251" y="400" type="curve"/>
      <point x="254" y="400" type="line"/>
      <point x="254" y="397" type="line" smooth="yes"/>
      <point x="254" y="362"/>
      <point x="273" y="342"/>
      <point x="313" y="342" type="curve" smooth="yes"/>
      <point x="336" y="342"/>
      <point x="356" y="349"/>
      <point x="367" y="356" type="curve"/>
      <point x="367" y="383" type="line"/>
      <point x="319" y="383" type="line"/>
      <point x="319" y="594" type="line" smooth="yes"/>
      <point x="319" y="663"/>
      <point x="273" y="704"/>
      <point x="192" y="704" type="curve" smooth="yes"/>
      <point x="107" y="704"/>
      <point x="57" y="666"/>
      <point x="57" y="627" type="curve" smooth="yes"/>
      <point x="57" y="600"/>
      <point x="75" y="584"/>
      <point x="100" y="584" type="curve" smooth="yes"/>
      <point x="125" y="584"/>
      <point x="142" y="599"/>
      <point x="142" y="622" type="curve" smooth="yes"/>
      <point x="142" y="639"/>
      <point x="131" y="653"/>
      <point x="120" y="657" type="curve"/>
      <point x="120" y="660" type="line"/>
      <point x="132" y="667"/>
      <point x="149" y="669"/>
      <point x="172" y="669" type="curve" smooth="yes"/>
      <point x="223" y="669"/>
      <point x="248" y="641"/>
      <point x="248" y="586" type="curve" smooth="yes"/>
      <point x="248" y="540" type="line"/>
      <point x="199" y="540" type="line" smooth="yes"/>
      <point x="84" y="540"/>
      <point x="41" y="504"/>
      <point x="41" y="436" type="curve" smooth="yes"/>
      <point x="41" y="379"/>
      <point x="78" y="342"/>
    </contour>
  </outline>
</glyph>
<glyph name="guillemotleft" format="2">
  <advance width="516"/>
  <unicode hex="00AB"/>
  <outline>
    <contour>
      <point x="230" y="78" type="line"/>
      <point x="252" y="108" type="line"/>
      <point x="131" y="283" type="line"/>
      <point x="252" y="458" type="line"/>
      <point x="230" y="488" type="line"/>
      <point x="36" y="307" type="line"/>
      <point x="36" y="259" type="line"/>
    </contour>
    <contour>
      <point x="440" y="78" type="line"/>
      <point x="462" y="108" type="line"/>
      <point x="341" y="283" type="line"/>
      <point x="462" y="458" type="line"/>
      <point x="440" y="488" type="line"/>
      <point x="246" y="307" type="line"/>
      <point x="246" y="259" type="line"/>
    </contour>
  </outline>
</glyph>
<glyph name="logicalnot" format="2">
  <advance width="600"/>
  <unicode hex="00AC"/>
  <outline>
    <contour>
      <point x="456" y="81" type="line"/>
      <point x="518" y="81" type="line"/>
      <point x="518" y="334" type="line"/>
      <point x="66" y="334" type="line"/>
      <point x="66" y="276" type="line"/>
      <point x="456" y="276" type="line"/>
    </contour>
  </outline>
</glyph>
<glyph name="softhyphen" format="2">
  <advance width="394"/>
  <unicode hex="00AD"/>
  <outline>
    <contour>
      <point x="63" y="266" type="line"/>
      <point x="331" y="266" type="line"/>
      <point x="331" y="344" type="line"/>
      <point x="63" y="344" type="line"/>
    </contour>
  </outline>
</glyph>
<glyph name="registered" format="2">
  <advance width="474"/>
  <unicode hex="00AE"/>
  <outline>
    <contour>
      <point x="206" y="586" type="line"/>
      <point x="244" y="586" type="line" smooth="yes"/>
      <point x="263" y="586"/>
      <point x="273" y="575"/>
      <point x="273" y="556" type="curve" smooth="yes"/>
      <point x="273" y="542" type="line" smooth="yes"/>
      <point x="273" y="523"/>
      <point x="263" y="512"/>
      <point x="244" y="512" type="curve" smooth="yes"/>
      <point x="206" y="512" type="line"/>
    </contour>
    <contour>
      <point x="237" y="298" type="curve" smooth="yes"/>
      <point x="345" y="298"/>
      <point x="436" y="386"/>
      <point x="436" y="504" type="curve" smooth="yes"/>
      <point x="436" y="622"/>
      <point x="345" y="710"/>
      <point x="237" y="710" type="curve" smooth="yes"/>
      <point x="129" y="710"/>
      <point x="38" y="622"/>
      <point x="38" y="504" type="curve" smooth="yes"/>
      <point x="38" y="386"/>
      <point x="129" y="298"/>
    </contour>
    <contour>
      <point x="237" y="331" type="curve" smooth="yes"/>
      <point x="145" y="331"/>
      <point x="78" y="405"/>
      <point x="78" y="492" type="curve" smooth="yes"/>
      <point x="78" y="516" type="line" smooth="yes"/>
      <point x="78" y="603"/>
      <point x="145" y="677"/>
      <point x="237" y="677" type="curve" smooth="yes"/>
      <point x="329" y="677"/>
      <point x="396" y="603"/>
      <point x="396" y="516" type="curve" smooth="yes"/>
      <point x="396" y="492" type="line" smooth="yes"/>
      <point x="396" y="405"/>
      <point x="329" y="331"/>
    </contour>
    <contour>
      <point x="145" y="398" type="line"/>
      <point x="223" y="398" type="line"/>
      <point x="223" y="418" type="line"/>
      <point x="206" y="418" type="line"/>
      <point x="206" y="490" type="line"/>
      <point x="232" y="490" type="line"/>
      <point x="266" y="427" type="line" smooth="yes"/>
      <point x="278" y="404"/>
      <point x="295" y="398"/>
      <point x="322" y="398" type="curve" smooth="yes"/>
      <point x="336" y="398" type="line"/>
      <point x="336" y="418" type="line"/>
      <point x="334" y="418" type="line" smooth="yes"/>
      <point x="322" y="418"/>
      <point x="313" y="424"/>
      <point x="308" y="435" type="curve"/>
      <point x="273" y="497" type="line"/>
      <point x="301" y="505"/>
      <point x="315" y="524"/>
      <point x="315" y="554" type="curve" smooth="yes"/>
      <point x="315" y="591"/>
      <point x="291" y="610"/>
      <point x="250" y="610" type="curve" smooth="yes"/>
      <point x="145" y="610" type="line"/>
      <point x="145" y="590" type="line"/>
      <point x="164" y="590" type="line"/>
      <point x="164" y="418" type="line"/>
      <point x="145" y="418" type="line"/>
    </contour>
  </outline>
</glyph>
<glyph name="macron" format="2">
  <advance width="600"/>
  <unicode hex="00AF"/>
  <outline>
    <contour>
      <point x="157" y="640" type="line"/>
      <point x="443" y="640" type="line"/>
      <point x="443" y="703" type="line"/>
      <point x="157" y="703" type="line"/>
    </contour>
  </outline>
</glyph>
<glyph name="degree" format="2">
  <advance width="466"/>
  <unicode hex="00B0"/>
  <outline>
    <contour>
      <point x="233" y="417" type="curve" smooth="yes"/>
      <point x="168" y="417"/>
      <point x="124" y="470"/>
      <point x="124" y="536" type="curve" smooth="yes"/>
      <point x="124" y="602"/>
      <point x="168" y="655"/>
      <point x="233" y="655" type="curve" smooth="yes"/>
      <point x="298" y="655"/>
      <point x="342" y="602"/>
      <point x="342" y="536" type="curve" smooth="yes"/>
      <point x="342" y="470"/>
      <point x="298" y="417"/>
    </contour>
    <contour>
      <point x="233" y="362" type="curve" smooth="yes"/>
      <point x="330" y="362"/>
      <point x="403" y="437"/>
      <point x="403" y="536" type="curve" smooth="yes"/>
      <point x="403" y="635"/>
      <point x="330" y="710"/>
      <point x="233" y="710" type="curve" smooth="yes"/>
      <point x="136" y="710"/>
      <point x="63" y="635"/>
      <point x="63" y="536" type="curve" smooth="yes"/>
      <point x="63" y="437"/>
      <point x="136" y="362"/>
    </contour>
  </outline>
</glyph>
<glyph name="plusminus" format="2">
  <advance width="600"/>
  <unicode hex="00B1"/>
  <outline>
    <contour>
      <point x="66" y="0" type="line"/>
      <point x="534" y="0" type="line"/>
      <point x="534" y="58" type="line"/>
      <point x="66" y="58" type="line"/>
    </contour>
    <contour>
      <point x="269" y="171" type="line"/>
      <point x="331" y="171" type="line"/>
      <point x="331" y="364" type="line"/>
      <point x="534" y="364" type="line"/>
      <point x="534" y="422" type="line"/>
      <point x="331" y="422" type="line"/>
      <point x="331" y="615" type="line"/>
      <point x="269" y="615" type="line"/>
      <point x="269" y="422" type="line"/>
      <point x="66" y="422" type="line"/>
      <point x="66" y="364" type="line"/>
      <point x="269" y="364" type="line"/>
    </contour>
  </outline>
</glyph>
<glyph name="twosuperior" format="2">
  <advance width="348"/>
  <unicode hex="00B2"/>
  <outline>
    <contour>
      <point x="36" y="330" type="line"/>
      <point x="313" y="330" type="line"/>
      <point x="313" y="432" type="line"/>
      <point x="269" y="432" type="line"/>
      <point x="269" y="388" type="line"/>
      <point x="94" y="388" type="line"/>
      <point x="94" y="393" type="line"/>
      <point x="199" y="461" type="line" smooth="yes"/>
      <point x="251" y="494"/>
      <point x="298" y="536"/>
      <point x="298" y="601" type="curve" smooth="yes"/>
      <point x="298" y="668"/>
      <point x="248" y="704"/>
      <point x="163" y="704" type="curve" smooth="yes"/>
      <point x="91" y="704"/>
      <point x="40" y="669"/>
      <point x="40" y="626" type="curve" smooth="yes"/>
      <point x="40" y="598"/>
      <point x="56" y="581"/>
      <point x="83" y="581" type="curve" smooth="yes"/>
      <point x="110" y="581"/>
      <point x="124" y="599"/>
      <point x="124" y="623" type="curve" smooth="yes"/>
      <point x="124" y="636"/>
      <point x="116" y="650"/>
      <point x="105" y="657" type="curve"/>
      <point x="105" y="659" type="line"/>
      <point x="116" y="665"/>
      <point x="131" y="668"/>
      <point x="150" y="668" type="curve" smooth="yes"/>
      <point x="193" y="668"/>
      <point x="219" y="642"/>
      <point x="219" y="602" type="curve" smooth="yes"/>
      <point x="219" y="591" type="line" smooth="yes"/>
      <point x="219" y="554"/>
      <point x="193" y="522"/>
      <point x="160" y="493" type="curve" smooth="yes"/>
      <point x="36" y="388" type="line"/>
    </contour>
  </outline>
</glyph>
<glyph name="acute" format="2">
  <advance width="600"/>
  <unicode hex="00B4"/>
  <outline>
    <contour>
      <point x="294" y="584" type="line"/>
      <point x="426" y="740" type="line"/>
      <point x="338" y="783" type="line"/>
      <point x="263" y="600" type="line"/>
    </contour>
  </outline>
</glyph>
<glyph name="mu" format="2">
  <advance width="625"/>
  <unicode hex="00B5"/>
  <outline>
    <contour>
      <point x="99" y="-200" type="line"/>
      <point x="198" y="-200" type="line"/>
      <point x="198" y="-143" type="line"/>
      <point x="157" y="40" type="line"/>
      <point x="161" y="41" type="line"/>
      <point x="182" y="8"/>
      <point x="223" y="-12"/>
      <point x="275" y="-12" type="curve" smooth="yes"/>
      <point x="354" y="-12"/>
      <point x="405" y="36"/>
      <point x="421" y="80" type="curve"/>
      <point x="425" y="80" type="line"/>
      <point x="425" y="-12" type="line"/>
      <point x="590" y="21" type="line"/>
      <point x="590" y="59" type="line"/>
      <point x="519" y="72" type="line"/>
      <point x="519" y="530" type="line"/>
      <point x="352" y="497" type="line"/>
      <point x="352" y="459" type="line"/>
      <point x="423" y="446" type="line"/>
      <point x="423" y="151" type="line" smooth="yes"/>
      <point x="423" y="85"/>
      <point x="364" y="54"/>
      <point x="308" y="54" type="curve" smooth="yes"/>
      <point x="231" y="54"/>
      <point x="195" y="97"/>
      <point x="195" y="189" type="curve" smooth="yes"/>
      <point x="195" y="530" type="line"/>
      <point x="28" y="497" type="line"/>
      <point x="28" y="459" type="line"/>
      <point x="99" y="446" type="line"/>
    </contour>
  </outline>
</glyph>
<glyph name="paragraph" format="2">
  <advance width="639"/>
  <unicode hex="00B6"/>
  <outline>
    <contour>
      <point x="355" y="648" type="line"/>
      <point x="441" y="648" type="line"/>
      <point x="441" y="78" type="line" smooth="yes"/>
      <point x="441" y="-18"/>
      <point x="411" y="-75"/>
      <point x="355" y="-99" type="curve"/>
    </contour>
    <contour>
      <point x="292" y="-155" type="curve" smooth="yes"/>
      <point x="420" y="-155"/>
      <point x="494" y="-76"/>
      <point x="494" y="79" type="curve" smooth="yes"/>
      <point x="494" y="648" type="line"/>
      <point x="568" y="648" type="line"/>
      <point x="568" y="698" type="line"/>
      <point x="301" y="698" type="line" smooth="yes"/>
      <point x="161" y="698"/>
      <point x="53" y="632"/>
      <point x="53" y="500" type="curve" smooth="yes"/>
      <point x="53" y="368"/>
      <point x="162" y="301"/>
      <point x="302" y="301" type="curve"/>
      <point x="302" y="-111" type="line"/>
      <point x="291" y="-111" type="line" smooth="yes"/>
      <point x="244" y="-111"/>
      <point x="214" y="-102"/>
      <point x="190" y="-87" type="curve"/>
      <point x="190" y="-84" type="line"/>
      <point x="217" y="-76"/>
      <point x="234" y="-57"/>
      <point x="234" y="-26" type="curve" smooth="yes"/>
      <point x="234" y="9"/>
      <point x="213" y="32"/>
      <point x="177" y="32" type="curve" smooth="yes"/>
      <point x="138" y="32"/>
      <point x="114" y="3"/>
      <point x="114" y="-37" type="curve" smooth="yes"/>
      <point x="114" y="-106"/>
      <point x="187" y="-155"/>
    </contour>
  </outline>
</glyph>
<glyph name="periodcentered" format="2">
  <advance width="324"/>
  <unicode hex="00B7"/>
  <outline>
    <contour>
      <point x="162" y="236" type="curve" smooth="yes"/>
      <point x="205" y="236"/>
      <point x="229" y="265"/>
      <point x="229" y="301" type="curve" smooth="yes"/>
      <point x="229" y="307" type="line" smooth="yes"/>
      <point x="229" y="343"/>
      <point x="205" y="372"/>
      <point x="162" y="372" type="curve" smooth="yes"/>
      <point x="119" y="372"/>
      <point x="95" y="343"/>
      <point x="95" y="307" type="curve" smooth="yes"/>
      <point x="95" y="301" type="line" smooth="yes"/>
      <point x="95" y="265"/>
      <point x="119" y="236"/>
    </contour>
  </outline>
</glyph>
<glyph name="cedilla" format="2">
  <advance width="600"/>
  <unicode hex="00B8"/>
  <outline>
    <contour>
      <point x="311" y="-206" type="curve" smooth="yes"/>
      <point x="371" y="-206"/>
      <point x="424" y="-181"/>
      <point x="424" y="-123" type="curve" smooth="yes"/>
      <point x="424" y="-80"/>
      <point x="392" y="-58"/>
      <point x="349" y="-58" type="curve" smooth="yes"/>
      <point x="338" y="-58"/>
      <point x="325" y="-60"/>
      <point x="312" y="-63" type="curve"/>
      <point x="309" y="-60" type="line"/>
      <point x="325" y="20" type="line"/>
      <point x="283" y="20" type="line"/>
      <point x="264" y="-76" type="line"/>
      <point x="291" y="-79" type="line" smooth="yes"/>
      <point x="342" y="-86"/>
      <point x="352" y="-105"/>
      <point x="352" y="-125" type="curve" smooth="yes"/>
      <point x="352" y="-153"/>
      <point x="331" y="-166"/>
      <point x="300" y="-166" type="curve" smooth="yes"/>
      <point x="273" y="-166"/>
      <point x="254" y="-157"/>
      <point x="241" y="-142" type="curve"/>
      <point x="219" y="-166" type="line"/>
      <point x="234" y="-185"/>
      <point x="260" y="-206"/>
    </contour>
  </outline>
</glyph>
<glyph name="onesuperior" format="2">
  <advance width="358"/>
  <unicode hex="00B9"/>
  <outline>
    <contour>
      <point x="54" y="330" type="line"/>
      <point x="324" y="330" type="line"/>
      <point x="324" y="369" type="line"/>
      <point x="232" y="369" type="line"/>
      <point x="232" y="698" type="line"/>
      <point x="177" y="698" type="line"/>
      <point x="36" y="633" type="line"/>
      <point x="51" y="600" type="line"/>
      <point x="159" y="640" type="line"/>
      <point x="159" y="369" type="line"/>
      <point x="54" y="369" type="line"/>
    </contour>
  </outline>
</glyph>
<glyph name="ordmasculine" format="2">
  <advance width="412"/>
  <unicode hex="00BA"/>
  <outline>
    <contour>
      <point x="206" y="342" type="curve" smooth="yes"/>
      <point x="306" y="342"/>
      <point x="370" y="412"/>
      <point x="370" y="523" type="curve" smooth="yes"/>
      <point x="370" y="634"/>
      <point x="306" y="704"/>
      <point x="206" y="704" type="curve" smooth="yes"/>
      <point x="106" y="704"/>
      <point x="42" y="634"/>
      <point x="42" y="523" type="curve" smooth="yes"/>
      <point x="42" y="412"/>
      <point x="106" y="342"/>
    </contour>
    <contour>
      <point x="206" y="379" type="curve" smooth="yes"/>
      <point x="143" y="379"/>
      <point x="118" y="422"/>
      <point x="118" y="481" type="curve" smooth="yes"/>
      <point x="118" y="565" type="line" smooth="yes"/>
      <point x="118" y="624"/>
      <point x="143" y="667"/>
      <point x="206" y="667" type="curve" smooth="yes"/>
      <point x="269" y="667"/>
      <point x="294" y="624"/>
      <point x="294" y="565" type="curve" smooth="yes"/>
      <point x="294" y="481" type="line" smooth="yes"/>
      <point x="294" y="422"/>
      <point x="269" y="379"/>
    </contour>
  </outline>
</glyph>
<glyph name="guillemotright" format="2">
  <advance width="516"/>
  <unicode hex="00BB"/>
  <outline>
    <contour>
      <point x="76" y="78" type="line"/>
      <point x="270" y="259" type="line"/>
      <point x="270" y="307" type="line"/>
      <point x="76" y="488" type="line"/>
      <point x="54" y="458" type="line"/>
      <point x="175" y="283" type="line"/>
      <point x="54" y="108" type="line"/>
    </contour>
    <contour>
      <point x="286" y="78" type="line"/>
      <point x="480" y="259" type="line"/>
      <point x="480" y="307" type="line"/>
      <point x="286" y="488" type="line"/>
      <point x="264" y="458" type="line"/>
      <point x="385" y="283" type="line"/>
      <point x="264" y="108" type="line"/>
    </contour>
  </outline>
</glyph>
<glyph name="onequarter" format="2">
  <advance width="883"/>
  <unicode hex="00BC"/>
  <outline>
    <contour>
      <point x="54" y="330" type="line"/>
      <point x="324" y="330" type="line"/>
      <point x="324" y="369" type="line"/>
      <point x="232" y="369" type="line"/>
      <point x="232" y="698" type="line"/>
      <point x="177" y="698" type="line"/>
      <point x="36" y="633" type="line"/>
      <point x="51" y="600" type="line"/>
      <point x="159" y="640" type="line"/>
      <point x="159" y="369" type="line"/>
      <point x="54" y="369" type="line"/>
    </contour>
    <contour>
      <point x="194" y="0" type="line"/>
      <point x="260" y="0" type="line"/>
      <point x="753" y="698" type="line"/>
      <point x="687" y="698" type="line"/>
    </contour>
    <contour>
      <point x="710" y="311" type="line"/>
      <point x="714" y="311" type="line"/>
      <point x="714" y="126" type="line"/>
      <point x="576" y="126" type="line"/>
    </contour>
    <contour>
      <point x="714" y="0" type="line"/>
      <point x="783" y="0" type="line"/>
      <point x="783" y="72" type="line"/>
      <point x="837" y="72" type="line"/>
      <point x="837" y="126" type="line"/>
      <point x="783" y="126" type="line"/>
      <point x="783" y="368" type="line"/>
      <point x="707" y="368" type="line"/>
      <point x="532" y="126" type="line"/>
      <point x="532" y="72" type="line"/>
      <point x="714" y="72" type="line"/>
    </contour>
  </outline>
</glyph>
<glyph name="onehalf" format="2">
  <advance width="898"/>
  <unicode hex="00BD"/>
  <outline>
    <contour>
      <point x="54" y="330" type="line"/>
      <point x="324" y="330" type="line"/>
      <point x="324" y="369" type="line"/>
      <point x="232" y="369" type="line"/>
      <point x="232" y="698" type="line"/>
      <point x="177" y="698" type="line"/>
      <point x="36" y="633" type="line"/>
      <point x="51" y="600" type="line"/>
      <point x="159" y="640" type="line"/>
      <point x="159" y="369" type="line"/>
      <point x="54" y="369" type="line"/>
    </contour>
    <contour>
      <point x="194" y="0" type="line"/>
      <point x="260" y="0" type="line"/>
      <point x="753" y="698" type="line"/>
      <point x="687" y="698" type="line"/>
    </contour>
    <contour>
      <point x="586" y="0" type="line"/>
      <point x="863" y="0" type="line"/>
      <point x="863" y="102" type="line"/>
      <point x="819" y="102" type="line"/>
      <point x="819" y="58" type="line"/>
      <point x="644" y="58" type="line"/>
      <point x="644" y="63" type="line"/>
      <point x="749" y="131" type="line" smooth="yes"/>
      <point x="801" y="164"/>
      <point x="848" y="206"/>
      <point x="848" y="271" type="curve" smooth="yes"/>
      <point x="848" y="338"/>
      <point x="798" y="374"/>
      <point x="713" y="374" type="curve" smooth="yes"/>
      <point x="641" y="374"/>
      <point x="590" y="339"/>
      <point x="590" y="296" type="curve" smooth="yes"/>
      <point x="590" y="268"/>
      <point x="606" y="251"/>
      <point x="633" y="251" type="curve" smooth="yes"/>
      <point x="660" y="251"/>
      <point x="674" y="269"/>
      <point x="674" y="293" type="curve" smooth="yes"/>
      <point x="674" y="306"/>
      <point x="666" y="320"/>
      <point x="655" y="327" type="curve"/>
      <point x="655" y="329" type="line"/>
      <point x="666" y="335"/>
      <point x="681" y="338"/>
      <point x="700" y="338" type="curve" smooth="yes"/>
      <point x="743" y="338"/>
      <point x="769" y="312"/>
      <point x="769" y="272" type="curve" smooth="yes"/>
      <point x="769" y="261" type="line" smooth="yes"/>
      <point x="769" y="224"/>
      <point x="743" y="192"/>
      <point x="710" y="163" type="curve" smooth="yes"/>
      <point x="586" y="58" type="line"/>
    </contour>
  </outline>
</glyph>
<glyph name="threequarters" format="2">
  <advance width="831"/>
  <unicode hex="00BE"/>
  <outline>
    <contour>
      <point x="155" y="324" type="curve" smooth="yes"/>
      <point x="243" y="324"/>
      <point x="303" y="362"/>
      <point x="303" y="433" type="curve" smooth="yes"/>
      <point x="303" y="484"/>
      <point x="261" y="514"/>
      <point x="212" y="522" type="curve"/>
      <point x="212" y="526" type="line"/>
      <point x="256" y="533"/>
      <point x="296" y="565"/>
      <point x="296" y="612" type="curve" smooth="yes"/>
      <point x="296" y="675"/>
      <point x="249" y="704"/>
      <point x="162" y="704" type="curve" smooth="yes"/>
      <point x="94" y="704"/>
      <point x="39" y="666"/>
      <point x="39" y="626" type="curve" smooth="yes"/>
      <point x="39" y="599"/>
      <point x="55" y="581"/>
      <point x="82" y="581" type="curve" smooth="yes"/>
      <point x="109" y="581"/>
      <point x="123" y="600"/>
      <point x="123" y="623" type="curve" smooth="yes"/>
      <point x="123" y="636"/>
      <point x="115" y="650"/>
      <point x="104" y="657" type="curve"/>
      <point x="104" y="659" type="line"/>
      <point x="114" y="665"/>
      <point x="130" y="668"/>
      <point x="151" y="668" type="curve" smooth="yes"/>
      <point x="190" y="668"/>
      <point x="217" y="649"/>
      <point x="217" y="612" type="curve" smooth="yes"/>
      <point x="217" y="600" type="line" smooth="yes"/>
      <point x="217" y="568"/>
      <point x="192" y="541"/>
      <point x="145" y="541" type="curve" smooth="yes"/>
      <point x="116" y="541" type="line"/>
      <point x="116" y="502" type="line"/>
      <point x="148" y="502" type="line" smooth="yes"/>
      <point x="199" y="502"/>
      <point x="223" y="478"/>
      <point x="223" y="439" type="curve" smooth="yes"/>
      <point x="223" y="425" type="line" smooth="yes"/>
      <point x="223" y="384"/>
      <point x="195" y="360"/>
      <point x="143" y="360" type="curve" smooth="yes"/>
      <point x="120" y="360"/>
      <point x="104" y="363"/>
      <point x="94" y="369" type="curve"/>
      <point x="94" y="371" type="line"/>
      <point x="105" y="378"/>
      <point x="113" y="392"/>
      <point x="113" y="405" type="curve" smooth="yes"/>
      <point x="113" y="428"/>
      <point x="99" y="447"/>
      <point x="72" y="447" type="curve" smooth="yes"/>
      <point x="45" y="447"/>
      <point x="29" y="429"/>
      <point x="29" y="402" type="curve" smooth="yes"/>
      <point x="29" y="362"/>
      <point x="75" y="324"/>
    </contour>
    <contour>
      <point x="142" y="0" type="line"/>
      <point x="208" y="0" type="line"/>
      <point x="701" y="698" type="line"/>
      <point x="635" y="698" type="line"/>
    </contour>
    <contour>
      <point x="658" y="311" type="line"/>
      <point x="662" y="311" type="line"/>
      <point x="662" y="126" type="line"/>
      <point x="524" y="126" type="line"/>
    </contour>
    <contour>
      <point x="662" y="0" type="line"/>
      <point x="731" y="0" type="line"/>
      <point x="731" y="72" type="line"/>
      <point x="785" y="72" type="line"/>
      <point x="785" y="126" type="line"/>
      <point x="731" y="126" type="line"/>
      <point x="731" y="368" type="line"/>
      <point x="655" y="368" type="line"/>
      <point x="480" y="126" type="line"/>
      <point x="480" y="72" type="line"/>
      <point x="662" y="72" type="line"/>
    </contour>
  </outline>
</glyph>
<glyph name="questiondown" format="2">
  <advance width="495"/>
  <unicode hex="00BF"/>
  <outline>
    <contour>
      <point x="297" y="394" type="curve" smooth="yes"/>
      <point x="340" y="394"/>
      <point x="364" y="423"/>
      <point x="364" y="459" type="curve" smooth="yes"/>
      <point x="364" y="465" type="line" smooth="yes"/>
      <point x="364" y="501"/>
      <point x="340" y="530"/>
      <point x="297" y="530" type="curve" smooth="yes"/>
      <point x="254" y="530"/>
      <point x="230" y="501"/>
      <point x="230" y="465" type="curve" smooth="yes"/>
      <point x="230" y="459" type="line" smooth="yes"/>
      <point x="230" y="423"/>
      <point x="254" y="394"/>
    </contour>
    <contour>
      <point x="255" y="-192" type="curve" smooth="yes"/>
      <point x="367" y="-192"/>
      <point x="456" y="-134"/>
      <point x="456" y="-64" type="curve" smooth="yes"/>
      <point x="456" y="-21"/>
      <point x="432" y="5"/>
      <point x="393" y="5" type="curve" smooth="yes"/>
      <point x="354" y="5"/>
      <point x="328" y="-23"/>
      <point x="328" y="-59" type="curve" smooth="yes"/>
      <point x="328" y="-86"/>
      <point x="346" y="-109"/>
      <point x="365" y="-117" type="curve"/>
      <point x="365" y="-121" type="line"/>
      <point x="345" y="-132"/>
      <point x="315" y="-141"/>
      <point x="271" y="-141" type="curve" smooth="yes"/>
      <point x="196" y="-141"/>
      <point x="148" y="-97"/>
      <point x="148" y="-18" type="curve" smooth="yes"/>
      <point x="148" y="4" type="line" smooth="yes"/>
      <point x="148" y="93"/>
      <point x="219" y="139"/>
      <point x="327" y="144" type="curve"/>
      <point x="327" y="308" type="line"/>
      <point x="268" y="308" type="line"/>
      <point x="268" y="198" type="line"/>
      <point x="140" y="187"/>
      <point x="41" y="114"/>
      <point x="41" y="-8" type="curve" smooth="yes"/>
      <point x="41" y="-121"/>
      <point x="123" y="-192"/>
    </contour>
  </outline>
</glyph>
<glyph name="Aacute" format="2">
  <advance width="689"/>
  <unicode hex="00C1"/>
  <outline>
    <contour>
      <point x="322" y="617" type="line"/>
      <point x="326" y="617" type="line"/>
      <point x="441" y="276" type="line"/>
      <point x="207" y="276" type="line"/>
    </contour>
    <contour>
      <point x="16" y="0" type="line"/>
      <point x="219" y="0" type="line"/>
      <point x="219" y="50" type="line"/>
      <point x="131" y="50" type="line"/>
      <point x="191" y="224" type="line"/>
      <point x="455" y="224" type="line"/>
      <point x="515" y="50" type="line"/>
      <point x="427" y="50" type="line"/>
      <point x="427" y="0" type="line"/>
      <point x="673" y="0" type="line"/>
      <point x="673" y="50" type="line"/>
      <point x="621" y="50" type="line"/>
      <point x="396" y="698" type="line"/>
      <point x="293" y="698" type="line"/>
      <point x="68" y="50" type="line"/>
      <point x="16" y="50" type="line"/>
    </contour>
    <contour>
      <point x="339" y="758" type="line"/>
      <point x="471" y="914" type="line"/>
      <point x="383" y="957" type="line"/>
      <point x="308" y="774" type="line"/>
    </contour>
  </outline>
</glyph>
<glyph name="Acircumflex" format="2">
  <advance width="689"/>
  <unicode hex="00C2"/>
  <outline>
    <contour>
      <point x="322" y="617" type="line"/>
      <point x="326" y="617" type="line"/>
      <point x="441" y="276" type="line"/>
      <point x="207" y="276" type="line"/>
    </contour>
    <contour>
      <point x="16" y="0" type="line"/>
      <point x="219" y="0" type="line"/>
      <point x="219" y="50" type="line"/>
      <point x="131" y="50" type="line"/>
      <point x="191" y="224" type="line"/>
      <point x="455" y="224" type="line"/>
      <point x="515" y="50" type="line"/>
      <point x="427" y="50" type="line"/>
      <point x="427" y="0" type="line"/>
      <point x="673" y="0" type="line"/>
      <point x="673" y="50" type="line"/>
      <point x="621" y="50" type="line"/>
      <point x="396" y="698" type="line"/>
      <point x="293" y="698" type="line"/>
      <point x="68" y="50" type="line"/>
      <point x="16" y="50" type="line"/>
    </contour>
    <contour>
      <point x="216" y="764" type="line"/>
      <point x="345" y="862" type="line"/>
      <point x="474" y="764" type="line"/>
      <point x="502" y="784" type="line"/>
      <point x="376" y="938" type="line"/>
      <point x="314" y="938" type="line"/>
      <point x="188" y="784" type="line"/>
    </contour>
  </outline>
</glyph>
<glyph name="Atilde" format="2">
  <advance width="689"/>
  <unicode hex="00C3"/>
  <outline>
    <contour>
      <point x="322" y="617" type="line"/>
      <point x="326" y="617" type="line"/>
      <point x="441" y="276" type="line"/>
      <point x="207" y="276" type="line"/>
    </contour>
    <contour>
      <point x="16" y="0" type="line"/>
      <point x="219" y="0" type="line"/>
      <point x="219" y="50" type="line"/>
      <point x="131" y="50" type="line"/>
      <point x="191" y="224" type="line"/>
      <point x="455" y="224" type="line"/>
      <point x="515" y="50" type="line"/>
      <point x="427" y="50" type="line"/>
      <point x="427" y="0" type="line"/>
      <point x="673" y="0" type="line"/>
      <point x="673" y="50" type="line"/>
      <point x="621" y="50" type="line"/>
      <point x="396" y="698" type="line"/>
      <point x="293" y="698" type="line"/>
      <point x="68" y="50" type="line"/>
      <point x="16" y="50" type="line"/>
    </contour>
    <contour>
      <point x="409" y="781" type="curve" smooth="yes"/>
      <point x="452" y="781"/>
      <point x="475" y="811"/>
      <point x="508" y="855" type="curve"/>
      <point x="486" y="878" type="line"/>
      <point x="459" y="851"/>
      <point x="451" y="844"/>
      <point x="431" y="844" type="curve" smooth="yes"/>
      <point x="411" y="844"/>
      <point x="382" y="860"/>
      <point x="357" y="873" type="curve" smooth="yes"/>
      <point x="333" y="885"/>
      <point x="308" y="900"/>
      <point x="281" y="900" type="curve" smooth="yes"/>
      <point x="238" y="900"/>
      <point x="215" y="870"/>
      <point x="182" y="826" type="curve"/>
      <point x="204" y="803" type="line"/>
      <point x="231" y="830"/>
      <point x="239" y="837"/>
      <point x="259" y="837" type="curve" smooth="yes"/>
      <point x="279" y="837"/>
      <point x="308" y="821"/>
      <point x="333" y="808" type="curve" smooth="yes"/>
      <point x="357" y="796"/>
      <point x="382" y="781"/>
    </contour>
  </outline>
</glyph>
<glyph name="Aring" format="2">
  <advance width="689"/>
  <unicode hex="00C5"/>
  <outline>
    <contour>
      <point x="322" y="617" type="line"/>
      <point x="326" y="617" type="line"/>
      <point x="441" y="276" type="line"/>
      <point x="207" y="276" type="line"/>
    </contour>
    <contour>
      <point x="16" y="0" type="line"/>
      <point x="219" y="0" type="line"/>
      <point x="219" y="50" type="line"/>
      <point x="131" y="50" type="line"/>
      <point x="191" y="224" type="line"/>
      <point x="455" y="224" type="line"/>
      <point x="515" y="50" type="line"/>
      <point x="427" y="50" type="line"/>
      <point x="427" y="0" type="line"/>
      <point x="673" y="0" type="line"/>
      <point x="673" y="50" type="line"/>
      <point x="621" y="50" type="line"/>
      <point x="396" y="698" type="line"/>
      <point x="293" y="698" type="line"/>
      <point x="68" y="50" type="line"/>
      <point x="16" y="50" type="line"/>
    </contour>
    <contour>
      <point x="345" y="743" type="curve" smooth="yes"/>
      <point x="413" y="743"/>
      <point x="467" y="792"/>
      <point x="467" y="860" type="curve" smooth="yes"/>
      <point x="467" y="928"/>
      <point x="413" y="977"/>
      <point x="345" y="977" type="curve" smooth="yes"/>
      <point x="277" y="977"/>
      <point x="223" y="928"/>
      <point x="223" y="860" type="curve" smooth="yes"/>
      <point x="223" y="792"/>
      <point x="277" y="743"/>
    </contour>
    <contour>
      <point x="345" y="780" type="curve" smooth="yes"/>
      <point x="309" y="780"/>
      <point x="287" y="803"/>
      <point x="287" y="842" type="curve" smooth="yes"/>
      <point x="287" y="878" type="line" smooth="yes"/>
      <point x="287" y="917"/>
      <point x="309" y="940"/>
      <point x="345" y="940" type="curve" smooth="yes"/>
      <point x="381" y="940"/>
      <point x="403" y="917"/>
      <point x="403" y="878" type="curve" smooth="yes"/>
      <point x="403" y="842" type="line" smooth="yes"/>
      <point x="403" y="803"/>
      <point x="381" y="780"/>
    </contour>
  </outline>
</glyph>
<glyph name="AE" format="2">
  <advance width="968"/>
  <unicode hex="00C6"/>
  <outline>
    <contour>
      <point x="440" y="648" type="line"/>
      <point x="450" y="648" type="line"/>
      <point x="450" y="276" type="line"/>
      <point x="247" y="276" type="line"/>
    </contour>
    <contour>
      <point x="15" y="0" type="line"/>
      <point x="209" y="0" type="line"/>
      <point x="209" y="50" type="line"/>
      <point x="133" y="50" type="line"/>
      <point x="223" y="224" type="line"/>
      <point x="450" y="224" type="line"/>
      <point x="450" y="50" type="line"/>
      <point x="376" y="50" type="line"/>
      <point x="376" y="0" type="line"/>
      <point x="909" y="0" type="line"/>
      <point x="909" y="182" type="line"/>
      <point x="829" y="182" type="line"/>
      <point x="829" y="54" type="line"/>
      <point x="551" y="54" type="line"/>
      <point x="551" y="334" type="line"/>
      <point x="736" y="334" type="line"/>
      <point x="736" y="258" type="line"/>
      <point x="799" y="258" type="line"/>
      <point x="799" y="464" type="line"/>
      <point x="736" y="464" type="line"/>
      <point x="736" y="388" type="line"/>
      <point x="551" y="388" type="line"/>
      <point x="551" y="644" type="line"/>
      <point x="820" y="644" type="line"/>
      <point x="820" y="527" type="line"/>
      <point x="900" y="527" type="line"/>
      <point x="900" y="698" type="line"/>
      <point x="302" y="698" type="line"/>
      <point x="302" y="648" type="line"/>
      <point x="378" y="648" type="line"/>
      <point x="67" y="50" type="line"/>
      <point x="15" y="50" type="line"/>
    </contour>
  </outline>
</glyph>
<glyph name="Ccedilla" format="2">
  <advance width="651"/>
  <unicode hex="00C7"/>
  <outline>
    <contour>
      <point x="356" y="-206" type="curve" smooth="yes"/>
      <point x="416" y="-206"/>
      <point x="469" y="-181"/>
      <point x="469" y="-123" type="curve" smooth="yes"/>
      <point x="469" y="-80"/>
      <point x="437" y="-58"/>
      <point x="394" y="-58" type="curve" smooth="yes"/>
      <point x="383" y="-58"/>
      <point x="370" y="-60"/>
      <point x="357" y="-63" type="curve"/>
      <point x="354" y="-60" type="line"/>
      <point x="364" y="-11" type="line"/>
      <point x="493" y="-3"/>
      <point x="570" y="86"/>
      <point x="595" y="165" type="curve"/>
      <point x="553" y="187" type="line"/>
      <point x="524" y="111"/>
      <point x="459" y="57"/>
      <point x="366" y="57" type="curve" smooth="yes"/>
      <point x="238" y="57"/>
      <point x="162" y="144"/>
      <point x="162" y="285" type="curve" smooth="yes"/>
      <point x="162" y="422" type="line" smooth="yes"/>
      <point x="162" y="552"/>
      <point x="221" y="653"/>
      <point x="352" y="653" type="curve" smooth="yes"/>
      <point x="445" y="653"/>
      <point x="506" y="608"/>
      <point x="506" y="541" type="curve" smooth="yes"/>
      <point x="506" y="491" type="line"/>
      <point x="586" y="491" type="line"/>
      <point x="586" y="698" type="line"/>
      <point x="506" y="698" type="line"/>
      <point x="506" y="636" type="line"/>
      <point x="502" y="636" type="line"/>
      <point x="483" y="676"/>
      <point x="426" y="710"/>
      <point x="339" y="710" type="curve" smooth="yes"/>
      <point x="171" y="710"/>
      <point x="50" y="581"/>
      <point x="50" y="349" type="curve" smooth="yes"/>
      <point x="50" y="141"/>
      <point x="155" y="0"/>
      <point x="322" y="-11" type="curve"/>
      <point x="309" y="-76" type="line"/>
      <point x="336" y="-79" type="line" smooth="yes"/>
      <point x="387" y="-86"/>
      <point x="397" y="-105"/>
      <point x="397" y="-125" type="curve" smooth="yes"/>
      <point x="397" y="-153"/>
      <point x="376" y="-166"/>
      <point x="345" y="-166" type="curve" smooth="yes"/>
      <point x="318" y="-166"/>
      <point x="299" y="-157"/>
      <point x="286" y="-142" type="curve"/>
      <point x="264" y="-166" type="line"/>
      <point x="279" y="-185"/>
      <point x="305" y="-206"/>
    </contour>
  </outline>
</glyph>
<glyph name="Eacute" format="2">
  <advance width="644"/>
  <unicode hex="00C9"/>
  <outline>
    <contour>
      <point x="52" y="0" type="line"/>
      <point x="585" y="0" type="line"/>
      <point x="585" y="182" type="line"/>
      <point x="505" y="182" type="line"/>
      <point x="505" y="54" type="line"/>
      <point x="227" y="54" type="line"/>
      <point x="227" y="334" type="line"/>
      <point x="412" y="334" type="line"/>
      <point x="412" y="258" type="line"/>
      <point x="475" y="258" type="line"/>
      <point x="475" y="464" type="line"/>
      <point x="412" y="464" type="line"/>
      <point x="412" y="388" type="line"/>
      <point x="227" y="388" type="line"/>
      <point x="227" y="644" type="line"/>
      <point x="496" y="644" type="line"/>
      <point x="496" y="527" type="line"/>
      <point x="576" y="527" type="line"/>
      <point x="576" y="698" type="line"/>
      <point x="52" y="698" type="line"/>
      <point x="52" y="648" type="line"/>
      <point x="126" y="648" type="line"/>
      <point x="126" y="50" type="line"/>
      <point x="52" y="50" type="line"/>
    </contour>
    <contour>
      <point x="330" y="758" type="line"/>
      <point x="462" y="914" type="line"/>
      <point x="374" y="957" type="line"/>
      <point x="299" y="774" type="line"/>
    </contour>
  </outline>
</glyph>
<glyph name="Ecircumflex" format="2">
  <advance width="644"/>
  <unicode hex="00CA"/>
  <outline>
    <contour>
      <point x="52" y="0" type="line"/>
      <point x="585" y="0" type="line"/>
      <point x="585" y="182" type="line"/>
      <point x="505" y="182" type="line"/>
      <point x="505" y="54" type="line"/>
      <point x="227" y="54" type="line"/>
      <point x="227" y="334" type="line"/>
      <point x="412" y="334" type="line"/>
      <point x="412" y="258" type="line"/>
      <point x="475" y="258" type="line"/>
      <point x="475" y="464" type="line"/>
      <point x="412" y="464" type="line"/>
      <point x="412" y="388" type="line"/>
      <point x="227" y="388" type="line"/>
      <point x="227" y="644" type="line"/>
      <point x="496" y="644" type="line"/>
      <point x="496" y="527" type="line"/>
      <point x="576" y="527" type="line"/>
      <point x="576" y="698" type="line"/>
      <point x="52" y="698" type="line"/>
      <point x="52" y="648" type="line"/>
      <point x="126" y="648" type="line"/>
      <point x="126" y="50" type="line"/>
      <point x="52" y="50" type="line"/>
    </contour>
    <contour>
      <point x="207" y="764" type="line"/>
      <point x="336" y="862" type="line"/>
      <point x="465" y="764" type="line"/>
      <point x="493" y="784" type="line"/>
      <point x="367" y="938" type="line"/>
      <point x="305" y="938" type="line"/>
      <point x="179" y="784" type="line"/>
    </contour>
  </outline>
</glyph>
<glyph name="Igrave" format="2">
  <advance width="353"/>
  <unicode hex="00CC"/>
  <outline>
    <contour>
      <point x="52" y="0" type="line"/>
      <point x="301" y="0" type="line"/>
      <point x="301" y="50" type="line"/>
      <point x="227" y="50" type="line"/>
      <point x="227" y="648" type="line"/>
      <point x="301" y="648" type="line"/>
      <point x="301" y="698" type="line"/>
      <point x="52" y="698" type="line"/>
      <point x="52" y="648" type="line"/>
      <point x="126" y="648" type="line"/>
      <point x="126" y="50" type="line"/>
      <point x="52" y="50" type="line"/>
    </contour>
    <contour>
      <point x="182" y="758" type="line"/>
      <point x="213" y="774" type="line"/>
      <point x="138" y="957" type="line"/>
      <point x="50" y="914" type="line"/>
    </contour>
  </outline>
</glyph>
<glyph name="Iacute" format="2">
  <advance width="353"/>
  <unicode hex="00CD"/>
  <outline>
    <contour>
      <point x="52" y="0" type="line"/>
      <point x="301" y="0" type="line"/>
      <point x="301" y="50" type="line"/>
      <point x="227" y="50" type="line"/>
      <point x="227" y="648" type="line"/>
      <point x="301" y="648" type="line"/>
      <point x="301" y="698" type="line"/>
      <point x="52" y="698" type="line"/>
      <point x="52" y="648" type="line"/>
      <point x="126" y="648" type="line"/>
      <point x="126" y="50" type="line"/>
      <point x="52" y="50" type="line"/>
    </contour>
    <contour>
      <point x="170" y="758" type="line"/>
      <point x="302" y="914" type="line"/>
      <point x="214" y="957" type="line"/>
      <point x="139" y="774" type="line"/>
    </contour>
  </outline>
</glyph>
<glyph name="Icircumflex" format="2">
  <advance width="353"/>
  <unicode hex="00CE"/>
  <outline>
    <contour>
      <point x="52" y="0" type="line"/>
      <point x="301" y="0" type="line"/>
      <point x="301" y="50" type="line"/>
      <point x="227" y="50" type="line"/>
      <point x="227" y="648" type="line"/>
      <point x="301" y="648" type="line"/>
      <point x="301" y="698" type="line"/>
      <point x="52" y="698" type="line"/>
      <point x="52" y="648" type="line"/>
      <point x="126" y="648" type="line"/>
      <point x="126" y="50" type="line"/>
      <point x="52" y="50" type="line"/>
    </contour>
    <contour>
      <point x="47" y="764" type="line"/>
      <point x="176" y="862" type="line"/>
      <point x="305" y="764" type="line"/>
      <point x="333" y="784" type="line"/>
      <point x="207" y="938" type="line"/>
      <point x="145" y="938" type="line"/>
      <point x="19" y="784" type="line"/>
    </contour>
  </outline>
</glyph>
<glyph name="Idieresis" format="2">
  <advance width="353"/>
  <unicode hex="00CF"/>
  <outline>
    <contour>
      <point x="52" y="0" type="line"/>
      <point x="301" y="0" type="line"/>
      <point x="301" y="50" type="line"/>
      <point x="227" y="50" type="line"/>
      <point x="227" y="648" type="line"/>
      <point x="301" y="648" type="line"/>
      <point x="301" y="698" type="line"/>
      <point x="52" y="698" type="line"/>
      <point x="52" y="648" type="line"/>
      <point x="126" y="648" type="line"/>
      <point x="126" y="50" type="line"/>
      <point x="52" y="50" type="line"/>
    </contour>
    <contour>
      <point x="270" y="786" type="curve" smooth="yes"/>
      <point x="305" y="786"/>
      <point x="325" y="808"/>
      <point x="325" y="839" type="curve" smooth="yes"/>
      <point x="325" y="843" type="line" smooth="yes"/>
      <point x="325" y="874"/>
      <point x="305" y="896"/>
      <point x="270" y="896" type="curve" smooth="yes"/>
      <point x="235" y="896"/>
      <point x="215" y="874"/>
      <point x="215" y="843" type="curve" smooth="yes"/>
      <point x="215" y="839" type="line" smooth="yes"/>
      <point x="215" y="808"/>
      <point x="235" y="786"/>
    </contour>
    <contour>
      <point x="82" y="786" type="curve" smooth="yes"/>
      <point x="117" y="786"/>
      <point x="137" y="808"/>
      <point x="137" y="839" type="curve" smooth="yes"/>
      <point x="137" y="843" type="line" smooth="yes"/>
      <point x="137" y="874"/>
      <point x="117" y="896"/>
      <point x="82" y="896" type="curve" smooth="yes"/>
      <point x="47" y="896"/>
      <point x="27" y="874"/>
      <point x="27" y="843" type="curve" smooth="yes"/>
      <point x="27" y="839" type="line" smooth="yes"/>
      <point x="27" y="808"/>
      <point x="47" y="786"/>
    </contour>
  </outline>
</glyph>
<glyph name="Eth" format="2">
  <advance width="715"/>
  <unicode hex="00D0"/>
  <outline>
    <contour>
      <point x="227" y="323" type="line"/>
      <point x="359" y="323" type="line"/>
      <point x="359" y="375" type="line"/>
      <point x="227" y="375" type="line"/>
      <point x="227" y="644" type="line"/>
      <point x="338" y="644" type="line" smooth="yes"/>
      <point x="475" y="644"/>
      <point x="553" y="558"/>
      <point x="553" y="415" type="curve" smooth="yes"/>
      <point x="553" y="283" type="line" smooth="yes"/>
      <point x="553" y="140"/>
      <point x="475" y="54"/>
      <point x="338" y="54" type="curve" smooth="yes"/>
      <point x="227" y="54" type="line"/>
    </contour>
    <contour>
      <point x="52" y="0" type="line"/>
      <point x="351" y="0" type="line" smooth="yes"/>
      <point x="537" y="0"/>
      <point x="665" y="117"/>
      <point x="665" y="349" type="curve" smooth="yes"/>
      <point x="665" y="581"/>
      <point x="537" y="698"/>
      <point x="351" y="698" type="curve" smooth="yes"/>
      <point x="52" y="698" type="line"/>
      <point x="52" y="648" type="line"/>
      <point x="126" y="648" type="line"/>
      <point x="126" y="375" type="line"/>
      <point x="38" y="375" type="line"/>
      <point x="38" y="323" type="line"/>
      <point x="126" y="323" type="line"/>
      <point x="126" y="50" type="line"/>
      <point x="52" y="50" type="line"/>
    </contour>
  </outline>
</glyph>
<glyph name="Ntilde" format="2">
  <advance width="780"/>
  <unicode hex="00D1"/>
  <outline>
    <contour>
      <point x="52" y="0" type="line"/>
      <point x="259" y="0" type="line"/>
      <point x="259" y="50" type="line"/>
      <point x="185" y="50" type="line"/>
      <point x="185" y="598" type="line"/>
      <point x="189" y="598" type="line"/>
      <point x="580" y="0" type="line"/>
      <point x="662" y="0" type="line"/>
      <point x="662" y="648" type="line"/>
      <point x="736" y="648" type="line"/>
      <point x="736" y="698" type="line"/>
      <point x="529" y="698" type="line"/>
      <point x="529" y="648" type="line"/>
      <point x="603" y="648" type="line"/>
      <point x="603" y="149" type="line"/>
      <point x="599" y="149" type="line"/>
      <point x="240" y="698" type="line"/>
      <point x="52" y="698" type="line"/>
      <point x="52" y="648" type="line"/>
      <point x="126" y="648" type="line"/>
      <point x="126" y="50" type="line"/>
      <point x="52" y="50" type="line"/>
    </contour>
    <contour>
      <point x="463" y="781" type="curve" smooth="yes"/>
      <point x="506" y="781"/>
      <point x="529" y="811"/>
      <point x="562" y="855" type="curve"/>
      <point x="540" y="878" type="line"/>
      <point x="513" y="851"/>
      <point x="505" y="844"/>
      <point x="485" y="844" type="curve" smooth="yes"/>
      <point x="465" y="844"/>
      <point x="436" y="860"/>
      <point x="411" y="873" type="curve" smooth="yes"/>
      <point x="387" y="885"/>
      <point x="362" y="900"/>
      <point x="335" y="900" type="curve" smooth="yes"/>
      <point x="292" y="900"/>
      <point x="269" y="870"/>
      <point x="236" y="826" type="curve"/>
      <point x="258" y="803" type="line"/>
      <point x="285" y="830"/>
      <point x="293" y="837"/>
      <point x="313" y="837" type="curve" smooth="yes"/>
      <point x="333" y="837"/>
      <point x="362" y="821"/>
      <point x="387" y="808" type="curve" smooth="yes"/>
      <point x="411" y="796"/>
      <point x="436" y="781"/>
    </contour>
  </outline>
</glyph>
<glyph name="Ograve" format="2">
  <advance width="724"/>
  <unicode hex="00D2"/>
  <outline>
    <contour>
      <point x="362" y="-12" type="curve" smooth="yes"/>
      <point x="549" y="-12"/>
      <point x="674" y="125"/>
      <point x="674" y="349" type="curve" smooth="yes"/>
      <point x="674" y="573"/>
      <point x="549" y="710"/>
      <point x="362" y="710" type="curve" smooth="yes"/>
      <point x="175" y="710"/>
      <point x="50" y="573"/>
      <point x="50" y="349" type="curve" smooth="yes"/>
      <point x="50" y="125"/>
      <point x="175" y="-12"/>
    </contour>
    <contour>
      <point x="362" y="45" type="curve" smooth="yes"/>
      <point x="235" y="45"/>
      <point x="162" y="140"/>
      <point x="162" y="281" type="curve" smooth="yes"/>
      <point x="162" y="417" type="line" smooth="yes"/>
      <point x="162" y="558"/>
      <point x="235" y="653"/>
      <point x="362" y="653" type="curve" smooth="yes"/>
      <point x="489" y="653"/>
      <point x="562" y="558"/>
      <point x="562" y="417" type="curve" smooth="yes"/>
      <point x="562" y="281" type="line" smooth="yes"/>
      <point x="562" y="140"/>
      <point x="489" y="45"/>
    </contour>
    <contour>
      <point x="368" y="758" type="line"/>
      <point x="399" y="774" type="line"/>
      <point x="324" y="957" type="line"/>
      <point x="236" y="914" type="line"/>
    </contour>
  </outline>
</glyph>
<glyph name="Otilde" format="2">
  <advance width="724"/>
  <unicode hex="00D5"/>
  <outline>
    <contour>
      <point x="362" y="-12" type="curve" smooth="yes"/>
      <point x="549" y="-12"/>
      <point x="674" y="125"/>
      <point x="674" y="349" type="curve" smooth="yes"/>
      <point x="674" y="573"/>
      <point x="549" y="710"/>
      <point x="362" y="710" type="curve" smooth="yes"/>
      <point x="175" y="710"/>
      <point x="50" y="573"/>
      <point x="50" y="349" type="curve" smooth="yes"/>
      <point x="50" y="125"/>
      <point x="175" y="-12"/>
    </contour>
    <contour>
      <point x="362" y="45" type="curve" smooth="yes"/>
      <point x="235" y="45"/>
      <point x="162" y="140"/>
      <point x="162" y="281" type="curve" smooth="yes"/>
      <point x="162" y="417" type="line" smooth="yes"/>
      <point x="162" y="558"/>
      <point x="235" y="653"/>
      <point x="362" y="653" type="curve" smooth="yes"/>
      <point x="489" y="653"/>
      <point x="562" y="558"/>
      <point x="562" y="417" type="curve" smooth="yes"/>
      <point x="562" y="281" type="line" smooth="yes"/>
      <point x="562" y="140"/>
      <point x="489" y="45"/>
    </contour>
    <contour>
      <point x="426" y="781" type="curve" smooth="yes"/>
      <point x="469" y="781"/>
      <point x="492" y="811"/>
      <point x="525" y="855" type="curve"/>
      <point x="503" y="878" type="line"/>
      <point x="476" y="851"/>
      <point x="468" y="844"/>
      <point x="448" y="844" type="curve" smooth="yes"/>
      <point x="428" y="844"/>
      <point x="399" y="860"/>
      <point x="374" y="873" type="curve" smooth="yes"/>
      <point x="350" y="885"/>
      <point x="325" y="900"/>
      <point x="298" y="900" type="curve" smooth="yes"/>
      <point x="255" y="900"/>
      <point x="232" y="870"/>
      <point x="199" y="826" type="curve"/>
      <point x="221" y="803" type="line"/>
      <point x="248" y="830"/>
      <point x="256" y="837"/>
      <point x="276" y="837" type="curve" smooth="yes"/>
      <point x="296" y="837"/>
      <point x="325" y="821"/>
      <point x="350" y="808" type="curve" smooth="yes"/>
      <point x="374" y="796"/>
      <point x="399" y="781"/>
    </contour>
  </outline>
</glyph>
<glyph name="Odieresis" format="2">
  <advance width="724"/>
  <unicode hex="00D6"/>
  <outline>
    <contour>
      <point x="362" y="-12" type="curve" smooth="yes"/>
      <point x="549" y="-12"/>
      <point x="674" y="125"/>
      <point x="674" y="349" type="curve" smooth="yes"/>
      <point x="674" y="573"/>
      <point x="549" y="710"/>
      <point x="362" y="710" type="curve" smooth="yes"/>
      <point x="175" y="710"/>
      <point x="50" y="573"/>
      <point x="50" y="349" type="curve" smooth="yes"/>
      <point x="50" y="125"/>
      <point x="175" y="-12"/>
    </contour>
    <contour>
      <point x="362" y="45" type="curve" smooth="yes"/>
      <point x="235" y="45"/>
      <point x="162" y="140"/>
      <point x="162" y="281" type="curve" smooth="yes"/>
      <point x="162" y="417" type="line" smooth="yes"/>
      <point x="162" y="558"/>
      <point x="235" y="653"/>
      <point x="362" y="653" type="curve" smooth="yes"/>
      <point x="489" y="653"/>
      <point x="562" y="558"/>
      <point x="562" y="417" type="curve" smooth="yes"/>
      <point x="562" y="281" type="line" smooth="yes"/>
      <point x="562" y="140"/>
      <point x="489" y="45"/>
    </contour>
    <contour>
      <point x="456" y="786" type="curve" smooth="yes"/>
      <point x="491" y="786"/>
      <point x="511" y="808"/>
      <point x="511" y="839" type="curve" smooth="yes"/>
      <point x="511" y="843" type="line" smooth="yes"/>
      <point x="511" y="874"/>
      <point x="491" y="896"/>
      <point x="456" y="896" type="curve" smooth="yes"/>
      <point x="421" y="896"/>
      <point x="401" y="874"/>
      <point x="401" y="843" type="curve" smooth="yes"/>
      <point x="401" y="839" type="line" smooth="yes"/>
      <point x="401" y="808"/>
      <point x="421" y="786"/>
    </contour>
    <contour>
      <point x="268" y="786" type="curve" smooth="yes"/>
      <point x="303" y="786"/>
      <point x="323" y="808"/>
      <point x="323" y="839" type="curve" smooth="yes"/>
      <point x="323" y="843" type="line" smooth="yes"/>
      <point x="323" y="874"/>
      <point x="303" y="896"/>
      <point x="268" y="896" type="curve" smooth="yes"/>
      <point x="233" y="896"/>
      <point x="213" y="874"/>
      <point x="213" y="843" type="curve" smooth="yes"/>
      <point x="213" y="839" type="line" smooth="yes"/>
      <point x="213" y="808"/>
      <point x="233" y="786"/>
    </contour>
  </outline>
</glyph>
<glyph name="multiply" format="2">
  <advance width="600"/>
  <unicode hex="00D7"/>
  <outline>
    <contour>
      <point x="135" y="98" type="line"/>
      <point x="300" y="263" type="line"/>
      <point x="465" y="98" type="line"/>
      <point x="506" y="139" type="line"/>
      <point x="341" y="304" type="line"/>
      <point x="506" y="469" type="line"/>
      <point x="465" y="510" type="line"/>
      <point x="300" y="345" type="line"/>
      <point x="135" y="510" type="line"/>
      <point x="94" y="469" type="line"/>
      <point x="259" y="304" type="line"/>
      <point x="94" y="139" type="line"/>
    </contour>
  </outline>
</glyph>
<glyph name="Udieresis" format="2">
  <advance width="741"/>
  <unicode hex="00DC"/>
  <outline>
    <contour>
      <point x="381" y="-12" type="curve" smooth="yes"/>
      <point x="561" y="-12"/>
      <point x="624" y="80"/>
      <point x="624" y="279" type="curve" smooth="yes"/>
      <point x="624" y="648" type="line"/>
      <point x="698" y="648" type="line"/>
      <point x="698" y="698" type="line"/>
      <point x="491" y="698" type="line"/>
      <point x="491" y="648" type="line"/>
      <point x="565" y="648" type="line"/>
      <point x="565" y="255" type="line" smooth="yes"/>
      <point x="565" y="116"/>
      <point x="517" y="49"/>
      <point x="389" y="49" type="curve" smooth="yes"/>
      <point x="261" y="49"/>
      <point x="219" y="116"/>
      <point x="219" y="255" type="curve" smooth="yes"/>
      <point x="219" y="648" type="line"/>
      <point x="293" y="648" type="line"/>
      <point x="293" y="698" type="line"/>
      <point x="44" y="698" type="line"/>
      <point x="44" y="648" type="line"/>
      <point x="118" y="648" type="line"/>
      <point x="118" y="269" type="line" smooth="yes"/>
      <point x="118" y="66"/>
      <point x="193" y="-12"/>
    </contour>
    <contour>
      <point x="486" y="786" type="curve" smooth="yes"/>
      <point x="521" y="786"/>
      <point x="541" y="808"/>
      <point x="541" y="839" type="curve" smooth="yes"/>
      <point x="541" y="843" type="line" smooth="yes"/>
      <point x="541" y="874"/>
      <point x="521" y="896"/>
      <point x="486" y="896" type="curve" smooth="yes"/>
      <point x="451" y="896"/>
      <point x="431" y="874"/>
      <point x="431" y="843" type="curve" smooth="yes"/>
      <point x="431" y="839" type="line" smooth="yes"/>
      <point x="431" y="808"/>
      <point x="451" y="786"/>
    </contour>
    <contour>
      <point x="298" y="786" type="curve" smooth="yes"/>
      <point x="333" y="786"/>
      <point x="353" y="808"/>
      <point x="353" y="839" type="curve" smooth="yes"/>
      <point x="353" y="843" type="line" smooth="yes"/>
      <point x="353" y="874"/>
      <point x="333" y="896"/>
      <point x="298" y="896" type="curve" smooth="yes"/>
      <point x="263" y="896"/>
      <point x="243" y="874"/>
      <point x="243" y="843" type="curve" smooth="yes"/>
      <point x="243" y="839" type="line" smooth="yes"/>
      <point x="243" y="808"/>
      <point x="263" y="786"/>
    </contour>
  </outline>
</glyph>
<glyph name="Yacute" format="2">
  <advance width="644"/>
  <unicode hex="00DD"/>
  <outline>
    <contour>
      <point x="181" y="0" type="line"/>
      <point x="464" y="0" type="line"/>
      <point x="464" y="50" type="line"/>
      <point x="373" y="50" type="line"/>
      <point x="373" y="289" type="line"/>
      <point x="571" y="648" type="line"/>
      <point x="623" y="648" type="line"/>
      <point x="623" y="698" type="line"/>
      <point x="420" y="698" type="line"/>
      <point x="420" y="648" type="line"/>
      <point x="506" y="648" type="line"/>
      <point x="348" y="347" type="line"/>
      <point x="344" y="347" type="line"/>
      <point x="186" y="648" type="line"/>
      <point x="272" y="648" type="line"/>
      <point x="272" y="698" type="line"/>
      <point x="21" y="698" type="line"/>
      <point x="21" y="648" type="line"/>
      <point x="73" y="648" type="line"/>
      <point x="272" y="281" type="line"/>
      <point x="272" y="50" type="line"/>
      <point x="181" y="50" type="line"/>
    </contour>
    <contour>
      <point x="340" y="758" type="line"/>
      <point x="472" y="914" type="line"/>
      <point x="384" y="957" type="line"/>
      <point x="309" y="774" type="line"/>
    </contour>
  </outline>
</glyph>
<glyph name="Thorn" format="2">
  <advance width="636"/>
  <unicode hex="00DE"/>
  <outline>
    <contour>
      <point x="227" y="489" type="line"/>
      <point x="373" y="489" type="line" smooth="yes"/>
      <point x="445" y="489"/>
      <point x="484" y="441"/>
      <point x="484" y="376" type="curve" smooth="yes"/>
      <point x="484" y="329" type="line" smooth="yes"/>
      <point x="484" y="264"/>
      <point x="445" y="216"/>
      <point x="373" y="216" type="curve" smooth="yes"/>
      <point x="227" y="216" type="line"/>
    </contour>
    <contour>
      <point x="52" y="0" type="line"/>
      <point x="301" y="0" type="line"/>
      <point x="301" y="50" type="line"/>
      <point x="227" y="50" type="line"/>
      <point x="227" y="162" type="line"/>
      <point x="386" y="162" type="line" smooth="yes"/>
      <point x="515" y="162"/>
      <point x="590" y="232"/>
      <point x="590" y="355" type="curve" smooth="yes"/>
      <point x="590" y="479"/>
      <point x="520" y="543"/>
      <point x="389" y="543" type="curve" smooth="yes"/>
      <point x="227" y="543" type="line"/>
      <point x="227" y="648" type="line"/>
      <point x="301" y="648" type="line"/>
      <point x="301" y="698" type="line"/>
      <point x="52" y="698" type="line"/>
      <point x="52" y="648" type="line"/>
      <point x="126" y="648" type="line"/>
      <point x="126" y="50" type="line"/>
      <point x="52" y="50" type="line"/>
    </contour>
  </outline>
</glyph>
<glyph name="germandbls" format="2">
  <advance width="659"/>
  <unicode hex="00DF"/>
  <outline>
    <contour>
      <point x="444" y="-12" type="curve" smooth="yes"/>
      <point x="564" y="-12"/>
      <point x="632" y="58"/>
      <point x="632" y="149" type="curve" smooth="yes"/>
      <point x="632" y="230"/>
      <point x="584" y="274"/>
      <point x="492" y="299" type="curve" smooth="yes"/>
      <point x="466" y="307" type="line" smooth="yes"/>
      <point x="405" y="326"/>
      <point x="386" y="346"/>
      <point x="386" y="393" type="curve" smooth="yes"/>
      <point x="386" y="444"/>
      <point x="428" y="476"/>
      <point x="521" y="476" type="curve" smooth="yes"/>
      <point x="561" y="476" type="line"/>
      <point x="561" y="539" type="line" smooth="yes"/>
      <point x="561" y="663"/>
      <point x="482" y="760"/>
      <point x="341" y="760" type="curve" smooth="yes"/>
      <point x="200" y="760"/>
      <point x="115" y="674"/>
      <point x="115" y="542" type="curve" smooth="yes"/>
      <point x="115" y="518" type="line"/>
      <point x="44" y="518" type="line"/>
      <point x="44" y="465" type="line"/>
      <point x="115" y="465" type="line"/>
      <point x="115" y="50" type="line"/>
      <point x="44" y="50" type="line"/>
      <point x="44" y="0" type="line"/>
      <point x="211" y="0" type="line"/>
      <point x="211" y="556" type="line" smooth="yes"/>
      <point x="211" y="656"/>
      <point x="252" y="707"/>
      <point x="341" y="707" type="curve" smooth="yes"/>
      <point x="424" y="707"/>
      <point x="469" y="655"/>
      <point x="469" y="554" type="curve" smooth="yes"/>
      <point x="469" y="520" type="line"/>
      <point x="366" y="515"/>
      <point x="299" y="461"/>
      <point x="299" y="373" type="curve" smooth="yes"/>
      <point x="299" y="292"/>
      <point x="338" y="252"/>
      <point x="429" y="225" type="curve" smooth="yes"/>
      <point x="455" y="217" type="line" smooth="yes"/>
      <point x="519" y="198"/>
      <point x="544" y="177"/>
      <point x="544" y="124" type="curve" smooth="yes"/>
      <point x="544" y="67"/>
      <point x="504" y="35"/>
      <point x="431" y="35" type="curve" smooth="yes"/>
      <point x="398" y="35"/>
      <point x="376" y="39"/>
      <point x="353" y="47" type="curve"/>
      <point x="353" y="50" type="line"/>
      <point x="368" y="57"/>
      <point x="379" y="74"/>
      <point x="379" y="97" type="curve" smooth="yes"/>
      <point x="379" y="126"/>
      <point x="361" y="148"/>
      <point x="330" y="148" type="curve" smooth="yes"/>
      <point x="298" y="148"/>
      <point x="277" y="124"/>
      <point x="277" y="89" type="curve" smooth="yes"/>
      <point x="277" y="33"/>
      <point x="335" y="-12"/>
    </contour>
  </outline>
</glyph>
<glyph name="aacute" format="2">
  <advance width="549"/>
  <unicode hex="00E1"/>
  <outline>
    <contour>
      <point x="238" y="50" type="curve" smooth="yes"/>
      <point x="181" y="50"/>
      <point x="146" y="74"/>
      <point x="146" y="125" type="curve" smooth="yes"/>
      <point x="146" y="145" type="line" smooth="yes"/>
      <point x="146" y="205"/>
      <point x="180" y="239"/>
      <point x="284" y="239" type="curve" smooth="yes"/>
      <point x="347" y="239" type="line"/>
      <point x="347" y="145" type="line" smooth="yes"/>
      <point x="347" y="80"/>
      <point x="299" y="50"/>
    </contour>
    <contour>
      <point x="199" y="-12" type="curve" smooth="yes"/>
      <point x="290" y="-12"/>
      <point x="329" y="32"/>
      <point x="348" y="77" type="curve"/>
      <point x="352" y="77" type="line"/>
      <point x="352" y="71" type="line" smooth="yes"/>
      <point x="352" y="20"/>
      <point x="381" y="-12"/>
      <point x="438" y="-12" type="curve" smooth="yes"/>
      <point x="470" y="-12"/>
      <point x="498" y="-3"/>
      <point x="515" y="8" type="curve"/>
      <point x="515" y="47" type="line"/>
      <point x="443" y="47" type="line"/>
      <point x="443" y="366" type="line" smooth="yes"/>
      <point x="443" y="470"/>
      <point x="380" y="530"/>
      <point x="263" y="530" type="curve" smooth="yes"/>
      <point x="138" y="530"/>
      <point x="67" y="472"/>
      <point x="67" y="413" type="curve" smooth="yes"/>
      <point x="67" y="374"/>
      <point x="90" y="352"/>
      <point x="125" y="352" type="curve" smooth="yes"/>
      <point x="161" y="352"/>
      <point x="183" y="374"/>
      <point x="183" y="410" type="curve" smooth="yes"/>
      <point x="183" y="439"/>
      <point x="167" y="454"/>
      <point x="152" y="462" type="curve"/>
      <point x="152" y="464" type="line"/>
      <point x="171" y="475"/>
      <point x="199" y="480"/>
      <point x="232" y="480" type="curve" smooth="yes"/>
      <point x="309" y="480"/>
      <point x="347" y="436"/>
      <point x="347" y="355" type="curve" smooth="yes"/>
      <point x="347" y="282" type="line"/>
      <point x="274" y="282" type="line" smooth="yes"/>
      <point x="107" y="282"/>
      <point x="43" y="229"/>
      <point x="43" y="130" type="curve" smooth="yes"/>
      <point x="43" y="42"/>
      <point x="99" y="-12"/>
    </contour>
    <contour>
      <point x="257" y="584" type="line"/>
      <point x="389" y="740" type="line"/>
      <point x="301" y="783" type="line"/>
      <point x="226" y="600" type="line"/>
    </contour>
  </outline>
</glyph>
<glyph name="atilde" format="2">
  <advance width="549"/>
  <unicode hex="00E3"/>
  <outline>
    <contour>
      <point x="238" y="50" type="curve" smooth="yes"/>
      <point x="181" y="50"/>
      <point x="146" y="74"/>
      <point x="146" y="125" type="curve" smooth="yes"/>
      <point x="146" y="145" type="line" smooth="yes"/>
      <point x="146" y="205"/>
      <point x="180" y="239"/>
      <point x="284" y="239" type="curve" smooth="yes"/>
      <point x="347" y="239" type="line"/>
      <point x="347" y="145" type="line" smooth="yes"/>
      <point x="347" y="80"/>
      <point x="299" y="50"/>
    </contour>
    <contour>
      <point x="199" y="-12" type="curve" smooth="yes"/>
      <point x="290" y="-12"/>
      <point x="329" y="32"/>
      <point x="348" y="77" type="curve"/>
      <point x="352" y="77" type="line"/>
      <point x="352" y="71" type="line" smooth="yes"/>
      <point x="352" y="20"/>
      <point x="381" y="-12"/>
      <point x="438" y="-12" type="curve" smooth="yes"/>
      <point x="470" y="-12"/>
      <point x="498" y="-3"/>
      <point x="515" y="8" type="curve"/>
      <point x="515" y="47" type="line"/>
      <point x="443" y="47" type="line"/>
      <point x="443" y="366" type="line" smooth="yes"/>
      <point x="443" y="470"/>
      <point x="380" y="530"/>
      <point x="263" y="530" type="curve" smooth="yes"/>
      <point x="138" y="530"/>
      <point x="67" y="472"/>
      <point x="67" y="413" type="curve" smooth="yes"/>
      <point x="67" y="374"/>
      <point x="90" y="352"/>
      <point x="125" y="352" type="curve" smooth="yes"/>
      <point x="161" y="352"/>
      <point x="183" y="374"/>
      <point x="183" y="410" type="curve" smooth="yes"/>
      <point x="183" y="439"/>
      <point x="167" y="454"/>
      <point x="152" y="462" type="curve"/>
      <point x="152" y="464" type="line"/>
      <point x="171" y="475"/>
      <point x="199" y="480"/>
      <point x="232" y="480" type="curve" smooth="yes"/>
      <point x="309" y="480"/>
      <point x="347" y="436"/>
      <point x="347" y="355" type="curve" smooth="yes"/>
      <point x="347" y="282" type="line"/>
      <point x="274" y="282" type="line" smooth="yes"/>
      <point x="107" y="282"/>
      <point x="43" y="229"/>
      <point x="43" y="130" type="curve" smooth="yes"/>
      <point x="43" y="42"/>
      <point x="99" y="-12"/>
    </contour>
    <contour>
      <point x="327" y="614" type="curve" smooth="yes"/>
      <point x="370" y="614"/>
      <point x="393" y="644"/>
      <point x="426" y="688" type="curve"/>
      <point x="404" y="711" type="line"/>
      <point x="377" y="684"/>
      <point x="369" y="677"/>
      <point x="349" y="677" type="curve" smooth="yes"/>
      <point x="329" y="677"/>
      <point x="300" y="693"/>
      <point x="275" y="706" type="curve" smooth="yes"/>
      <point x="251" y="718"/>
      <point x="226" y="733"/>
      <point x="199" y="733" type="curve" smooth="yes"/>
      <point x="156" y="733"/>
      <point x="133" y="703"/>
      <point x="100" y="659" type="curve"/>
      <point x="122" y="636" type="line"/>
      <point x="149" y="663"/>
      <point x="157" y="670"/>
      <point x="177" y="670" type="curve" smooth="yes"/>
      <point x="197" y="670"/>
      <point x="226" y="654"/>
      <point x="251" y="641" type="curve" smooth="yes"/>
      <point x="275" y="629"/>
      <point x="300" y="614"/>
    </contour>
  </outline>
</glyph>
<glyph name="ae" format="2">
  <advance width="825"/>
  <unicode hex="00E6"/>
  <outline>
    <contour>
      <point x="443" y="321" type="line" smooth="yes"/>
      <point x="443" y="414"/>
      <point x="485" y="478"/>
      <point x="569" y="478" type="curve" smooth="yes"/>
      <point x="652" y="478"/>
      <point x="684" y="408"/>
      <point x="684" y="315" type="curve" smooth="yes"/>
      <point x="684" y="299" type="line"/>
      <point x="443" y="299" type="line"/>
    </contour>
    <contour>
      <point x="238" y="50" type="curve" smooth="yes"/>
      <point x="181" y="50"/>
      <point x="146" y="74"/>
      <point x="146" y="125" type="curve" smooth="yes"/>
      <point x="146" y="153" type="line" smooth="yes"/>
      <point x="146" y="213"/>
      <point x="180" y="248"/>
      <point x="284" y="248" type="curve" smooth="yes"/>
      <point x="347" y="248" type="line"/>
      <point x="347" y="145" type="line" smooth="yes"/>
      <point x="347" y="80"/>
      <point x="299" y="50"/>
    </contour>
    <contour>
      <point x="200" y="-12" type="curve" smooth="yes"/>
      <point x="297" y="-12"/>
      <point x="363" y="25"/>
      <point x="387" y="101" type="curve"/>
      <point x="393" y="101" type="line"/>
      <point x="414" y="41"/>
      <point x="482" y="-12"/>
      <point x="578" y="-12" type="curve" smooth="yes"/>
      <point x="690" y="-12"/>
      <point x="747" y="49"/>
      <point x="771" y="118" type="curve"/>
      <point x="734" y="142" type="line"/>
      <point x="707" y="89"/>
      <point x="675" y="58"/>
      <point x="594" y="58" type="curve" smooth="yes"/>
      <point x="502" y="58"/>
      <point x="443" y="124"/>
      <point x="443" y="232" type="curve" smooth="yes"/>
      <point x="443" y="250" type="line"/>
      <point x="783" y="250" type="line"/>
      <point x="783" y="280" type="line" smooth="yes"/>
      <point x="783" y="423"/>
      <point x="708" y="530"/>
      <point x="570" y="530" type="curve" smooth="yes"/>
      <point x="490" y="530"/>
      <point x="430" y="487"/>
      <point x="411" y="428" type="curve"/>
      <point x="405" y="428" type="line"/>
      <point x="394" y="481"/>
      <point x="346" y="530"/>
      <point x="262" y="530" type="curve" smooth="yes"/>
      <point x="138" y="530"/>
      <point x="67" y="472"/>
      <point x="67" y="413" type="curve" smooth="yes"/>
      <point x="67" y="374"/>
      <point x="90" y="352"/>
      <point x="125" y="352" type="curve" smooth="yes"/>
      <point x="161" y="352"/>
      <point x="183" y="374"/>
      <point x="183" y="410" type="curve" smooth="yes"/>
      <point x="183" y="439"/>
      <point x="167" y="454"/>
      <point x="152" y="462" type="curve"/>
      <point x="152" y="464" type="line"/>
      <point x="171" y="475"/>
      <point x="199" y="480"/>
      <point x="232" y="480" type="curve" smooth="yes"/>
      <point x="309" y="480"/>
      <point x="347" y="436"/>
      <point x="347" y="355" type="curve" smooth="yes"/>
      <point x="347" y="291" type="line"/>
      <point x="274" y="291" type="line" smooth="yes"/>
      <point x="107" y="291"/>
      <point x="43" y="241"/>
      <point x="43" y="134" type="curve" smooth="yes"/>
      <point x="43" y="46"/>
      <point x="99" y="-12"/>
    </contour>
  </outline>
</glyph>
<glyph name="ccedilla" format="2">
  <advance width="520"/>
  <unicode hex="00E7"/>
  <outline>
    <contour>
      <point x="292" y="-206" type="curve" smooth="yes"/>
      <point x="352" y="-206"/>
      <point x="405" y="-181"/>
      <point x="405" y="-123" type="curve" smooth="yes"/>
      <point x="405" y="-80"/>
      <point x="373" y="-58"/>
      <point x="330" y="-58" type="curve" smooth="yes"/>
      <point x="319" y="-58"/>
      <point x="306" y="-60"/>
      <point x="293" y="-63" type="curve"/>
      <point x="290" y="-60" type="line"/>
      <point x="300" y="-11" type="line"/>
      <point x="403" y="-6"/>
      <point x="458" y="61"/>
      <point x="482" y="126" type="curve"/>
      <point x="446" y="149" type="line"/>
      <point x="419" y="97"/>
      <point x="377" y="58"/>
      <point x="297" y="58" type="curve" smooth="yes"/>
      <point x="205" y="58"/>
      <point x="148" y="126"/>
      <point x="148" y="231" type="curve" smooth="yes"/>
      <point x="148" y="311" type="line" smooth="yes"/>
      <point x="148" y="408"/>
      <point x="211" y="478"/>
      <point x="302" y="478" type="curve" smooth="yes"/>
      <point x="342" y="478"/>
      <point x="367" y="472"/>
      <point x="383" y="464" type="curve"/>
      <point x="383" y="460" type="line"/>
      <point x="358" y="448"/>
      <point x="341" y="428"/>
      <point x="341" y="397" type="curve" smooth="yes"/>
      <point x="341" y="362"/>
      <point x="362" y="334"/>
      <point x="405" y="334" type="curve" smooth="yes"/>
      <point x="445" y="334"/>
      <point x="470" y="362"/>
      <point x="470" y="405" type="curve" smooth="yes"/>
      <point x="470" y="477"/>
      <point x="401" y="530"/>
      <point x="292" y="530" type="curve" smooth="yes"/>
      <point x="148" y="530"/>
      <point x="44" y="426"/>
      <point x="44" y="259" type="curve" smooth="yes"/>
      <point x="44" y="108"/>
      <point x="121" y="0"/>
      <point x="258" y="-11" type="curve"/>
      <point x="245" y="-76" type="line"/>
      <point x="272" y="-79" type="line" smooth="yes"/>
      <point x="323" y="-86"/>
      <point x="333" y="-105"/>
      <point x="333" y="-125" type="curve" smooth="yes"/>
      <point x="333" y="-153"/>
      <point x="312" y="-166"/>
      <point x="281" y="-166" type="curve" smooth="yes"/>
      <point x="254" y="-166"/>
      <point x="235" y="-157"/>
      <point x="222" y="-142" type="curve"/>
      <point x="200" y="-166" type="line"/>
      <point x="215" y="-185"/>
      <point x="241" y="-206"/>
    </contour>
  </outline>
</glyph>
<glyph name="eacute" format="2">
  <advance width="540"/>
  <unicode hex="00E9"/>
  <outline>
    <contour>
      <point x="148" y="322" type="line" smooth="yes"/>
      <point x="148" y="417"/>
      <point x="193" y="478"/>
      <point x="277" y="478" type="curve" smooth="yes"/>
      <point x="361" y="478"/>
      <point x="399" y="414"/>
      <point x="399" y="321" type="curve" smooth="yes"/>
      <point x="399" y="310" type="line"/>
      <point x="148" y="310" type="line"/>
    </contour>
    <contour>
      <point x="282" y="-12" type="curve" smooth="yes"/>
      <point x="396" y="-12"/>
      <point x="464" y="56"/>
      <point x="488" y="125" type="curve"/>
      <point x="451" y="149" type="line"/>
      <point x="424" y="96"/>
      <point x="379" y="58"/>
      <point x="299" y="58" type="curve" smooth="yes"/>
      <point x="207" y="58"/>
      <point x="148" y="124"/>
      <point x="148" y="232" type="curve" smooth="yes"/>
      <point x="148" y="261" type="line"/>
      <point x="498" y="261" type="line"/>
      <point x="498" y="286" type="line" smooth="yes"/>
      <point x="498" y="429"/>
      <point x="416" y="530"/>
      <point x="277" y="530" type="curve" smooth="yes"/>
      <point x="142" y="530"/>
      <point x="44" y="422"/>
      <point x="44" y="259" type="curve" smooth="yes"/>
      <point x="44" y="96"/>
      <point x="132" y="-12"/>
    </contour>
    <contour>
      <point x="270" y="584" type="line"/>
      <point x="402" y="740" type="line"/>
      <point x="314" y="783" type="line"/>
      <point x="239" y="600" type="line"/>
    </contour>
  </outline>
</glyph>
<glyph name="igrave" format="2">
  <advance width="319"/>
  <unicode hex="00EC"/>
  <outline>
    <contour>
      <point x="48" y="0" type="line"/>
      <point x="286" y="0" type="line"/>
      <point x="286" y="50" type="line"/>
      <point x="215" y="50" type="line"/>
      <point x="215" y="530" type="line"/>
      <point x="48" y="497" type="line"/>
      <point x="48" y="459" type="line"/>
      <point x="119" y="446" type="line"/>
      <point x="119" y="50" type="line"/>
      <point x="48" y="50" type="line"/>
    </contour>
    <contour>
      <point x="173" y="584" type="line"/>
      <point x="204" y="600" type="line"/>
      <point x="129" y="783" type="line"/>
      <point x="41" y="740" type="line"/>
    </contour>
  </outline>
</glyph>
<glyph name="iacute" format="2">
  <advance width="319"/>
  <unicode hex="00ED"/>
  <outline>
    <contour>
      <point x="48" y="0" type="line"/>
      <point x="286" y="0" type="line"/>
      <point x="286" y="50" type="line"/>
      <point x="215" y="50" type="line"/>
      <point x="215" y="530" type="line"/>
      <point x="48" y="497" type="line"/>
      <point x="48" y="459" type="line"/>
      <point x="119" y="446" type="line"/>
      <point x="119" y="50" type="line"/>
      <point x="48" y="50" type="line"/>
    </contour>
    <contour>
      <point x="161" y="584" type="line"/>
      <point x="293" y="740" type="line"/>
      <point x="205" y="783" type="line"/>
      <point x="130" y="600" type="line"/>
    </contour>
  </outline>
</glyph>
<glyph name="icircumflex" format="2">
  <advance width="319"/>
  <unicode hex="00EE"/>
  <outline>
    <contour>
      <point x="48" y="0" type="line"/>
      <point x="286" y="0" type="line"/>
      <point x="286" y="50" type="line"/>
      <point x="215" y="50" type="line"/>
      <point x="215" y="530" type="line"/>
      <point x="48" y="497" type="line"/>
      <point x="48" y="459" type="line"/>
      <point x="119" y="446" type="line"/>
      <point x="119" y="50" type="line"/>
      <point x="48" y="50" type="line"/>
    </contour>
    <contour>
      <point x="38" y="595" type="line"/>
      <point x="167" y="693" type="line"/>
      <point x="296" y="595" type="line"/>
      <point x="324" y="615" type="line"/>
      <point x="198" y="769" type="line"/>
      <point x="136" y="769" type="line"/>
      <point x="10" y="615" type="line"/>
    </contour>
  </outline>
</glyph>
<glyph name="eth" format="2">
  <advance width="570"/>
  <unicode hex="00F0"/>
  <outline>
    <contour>
      <point x="281" y="41" type="curve" smooth="yes"/>
      <point x="198" y="41"/>
      <point x="146" y="93"/>
      <point x="146" y="198" type="curve" smooth="yes"/>
      <point x="146" y="291" type="line" smooth="yes"/>
      <point x="146" y="396"/>
      <point x="198" y="448"/>
      <point x="281" y="448" type="curve" smooth="yes"/>
      <point x="364" y="448"/>
      <point x="416" y="396"/>
      <point x="416" y="291" type="curve" smooth="yes"/>
      <point x="416" y="198" type="line" smooth="yes"/>
      <point x="416" y="93"/>
      <point x="364" y="41"/>
    </contour>
    <contour>
      <point x="281" y="-12" type="curve" smooth="yes"/>
      <point x="426" y="-12"/>
      <point x="518" y="79"/>
      <point x="518" y="269" type="curve" smooth="yes"/>
      <point x="518" y="465"/>
      <point x="437" y="585"/>
      <point x="350" y="664" type="curve"/>
      <point x="426" y="718" type="line"/>
      <point x="394" y="760" type="line"/>
      <point x="307" y="698" type="line"/>
      <point x="282" y="717"/>
      <point x="253" y="737"/>
      <point x="230" y="748" type="curve"/>
      <point x="143" y="748" type="line"/>
      <point x="182" y="727"/>
      <point x="225" y="692"/>
      <point x="257" y="663" type="curve"/>
      <point x="172" y="604" type="line"/>
      <point x="204" y="562" type="line"/>
      <point x="293" y="625" type="line"/>
      <point x="340" y="573"/>
      <point x="374" y="507"/>
      <point x="397" y="440" type="curve"/>
      <point x="392" y="438" type="line"/>
      <point x="361" y="481"/>
      <point x="318" y="505"/>
      <point x="259" y="505" type="curve" smooth="yes"/>
      <point x="129" y="505"/>
      <point x="44" y="404"/>
      <point x="44" y="248" type="curve" smooth="yes"/>
      <point x="44" y="89"/>
      <point x="133" y="-12"/>
    </contour>
  </outline>
</glyph>
<glyph name="ntilde" format="2">
  <advance width="644"/>
  <unicode hex="00F1"/>
  <outline>
    <contour>
      <point x="48" y="0" type="line"/>
      <point x="286" y="0" type="line"/>
      <point x="286" y="50" type="line"/>
      <point x="215" y="50" type="line"/>
      <point x="215" y="367" type="line" smooth="yes"/>
      <point x="215" y="433"/>
      <point x="274" y="464"/>
      <point x="330" y="464" type="curve" smooth="yes"/>
      <point x="407" y="464"/>
      <point x="443" y="421"/>
      <point x="443" y="329" type="curve" smooth="yes"/>
      <point x="443" y="50" type="line"/>
      <point x="373" y="50" type="line"/>
      <point x="373" y="0" type="line"/>
      <point x="610" y="0" type="line"/>
      <point x="610" y="50" type="line"/>
      <point x="539" y="50" type="line"/>
      <point x="539" y="336" type="line" smooth="yes"/>
      <point x="539" y="465"/>
      <point x="490" y="530"/>
      <point x="365" y="530" type="curve" smooth="yes"/>
      <point x="283" y="530"/>
      <point x="233" y="481"/>
      <point x="217" y="438" type="curve"/>
      <point x="213" y="438" type="line"/>
      <point x="213" y="530" type="line"/>
      <point x="48" y="497" type="line"/>
      <point x="48" y="459" type="line"/>
      <point x="119" y="446" type="line"/>
      <point x="119" y="50" type="line"/>
      <point x="48" y="50" type="line"/>
    </contour>
    <contour>
      <point x="401" y="614" type="curve" smooth="yes"/>
      <point x="444" y="614"/>
      <point x="467" y="644"/>
      <point x="500" y="688" type="curve"/>
      <point x="478" y="711" type="line"/>
      <point x="451" y="684"/>
      <point x="443" y="677"/>
      <point x="423" y="677" type="curve" smooth="yes"/>
      <point x="403" y="677"/>
      <point x="374" y="693"/>
      <point x="349" y="706" type="curve" smooth="yes"/>
      <point x="325" y="718"/>
      <point x="300" y="733"/>
      <point x="273" y="733" type="curve" smooth="yes"/>
      <point x="230" y="733"/>
      <point x="207" y="703"/>
      <point x="174" y="659" type="curve"/>
      <point x="196" y="636" type="line"/>
      <point x="223" y="663"/>
      <point x="231" y="670"/>
      <point x="251" y="670" type="curve" smooth="yes"/>
      <point x="271" y="670"/>
      <point x="300" y="654"/>
      <point x="325" y="641" type="curve" smooth="yes"/>
      <point x="349" y="629"/>
      <point x="374" y="614"/>
    </contour>
  </outline>
</glyph>
<glyph name="oacute" format="2">
  <advance width="568"/>
  <unicode hex="00F3"/>
  <outline>
    <contour>
      <point x="284" y="-12" type="curve" smooth="yes"/>
      <point x="427" y="-12"/>
      <point x="524" y="93"/>
      <point x="524" y="259" type="curve" smooth="yes"/>
      <point x="524" y="424"/>
      <point x="427" y="530"/>
      <point x="284" y="530" type="curve" smooth="yes"/>
      <point x="139" y="530"/>
      <point x="44" y="424"/>
      <point x="44" y="259" type="curve" smooth="yes"/>
      <point x="44" y="93"/>
      <point x="139" y="-12"/>
    </contour>
    <contour>
      <point x="284" y="42" type="curve" smooth="yes"/>
      <point x="192" y="42"/>
      <point x="150" y="107"/>
      <point x="150" y="198" type="curve" smooth="yes"/>
      <point x="150" y="320" type="line" smooth="yes"/>
      <point x="150" y="411"/>
      <point x="192" y="476"/>
      <point x="284" y="476" type="curve" smooth="yes"/>
      <point x="376" y="476"/>
      <point x="418" y="411"/>
      <point x="418" y="320" type="curve" smooth="yes"/>
      <point x="418" y="198" type="line" smooth="yes"/>
      <point x="418" y="107"/>
      <point x="376" y="42"/>
    </contour>
    <contour>
      <point x="278" y="584" type="line"/>
      <point x="410" y="740" type="line"/>
      <point x="322" y="783" type="line"/>
      <point x="247" y="600" type="line"/>
    </contour>
  </outline>
</glyph>
<glyph name="otilde" format="2">
  <advance width="568"/>
  <unicode hex="00F5"/>
  <outline>
    <contour>
      <point x="284" y="-12" type="curve" smooth="yes"/>
      <point x="427" y="-12"/>
      <point x="524" y="93"/>
      <point x="524" y="259" type="curve" smooth="yes"/>
      <point x="524" y="424"/>
      <point x="427" y="530"/>
      <point x="284" y="530" type="curve" smooth="yes"/>
      <point x="139" y="530"/>
      <point x="44" y="424"/>
      <point x="44" y="259" type="curve" smooth="yes"/>
      <point x="44" y="93"/>
      <point x="139" y="-12"/>
    </contour>
    <contour>
      <point x="284" y="42" type="curve" smooth="yes"/>
      <point x="192" y="42"/>
      <point x="150" y="107"/>
      <point x="150" y="198" type="curve" smooth="yes"/>
      <point x="150" y="320" type="line" smooth="yes"/>
      <point x="150" y="411"/>
      <point x="192" y="476"/>
      <point x="284" y="476" type="curve" smooth="yes"/>
      <point x="376" y="476"/>
      <point x="418" y="411"/>
      <point x="418" y="320" type="curve" smooth="yes"/>
      <point x="418" y="198" type="line" smooth="yes"/>
      <point x="418" y="107"/>
      <point x="376" y="42"/>
    </contour>
    <contour>
      <point x="348" y="614" type="curve" smooth="yes"/>
      <point x="391" y="614"/>
      <point x="414" y="644"/>
      <point x="447" y="688" type="curve"/>
      <point x="425" y="711" type="line"/>
      <point x="398" y="684"/>
      <point x="390" y="677"/>
      <point x="370" y="677" type="curve" smooth="yes"/>
      <point x="350" y="677"/>
      <point x="321" y="693"/>
      <point x="296" y="706" type="curve" smooth="yes"/>
      <point x="272" y="718"/>
      <point x="247" y="733"/>
      <point x="220" y="733" type="curve" smooth="yes"/>
      <point x="177" y="733"/>
      <point x="154" y="703"/>
      <point x="121" y="659" type="curve"/>
      <point x="143" y="636" type="line"/>
      <point x="170" y="663"/>
      <point x="178" y="670"/>
      <point x="198" y="670" type="curve" smooth="yes"/>
      <point x="218" y="670"/>
      <point x="247" y="654"/>
      <point x="272" y="641" type="curve" smooth="yes"/>
      <point x="296" y="629"/>
      <point x="321" y="614"/>
    </contour>
  </outline>
</glyph>
<glyph name="odieresis" format="2">
  <advance width="568"/>
  <unicode hex="00F6"/>
  <outline>
    <contour>
      <point x="284" y="-12" type="curve" smooth="yes"/>
      <point x="427" y="-12"/>
      <point x="524" y="93"/>
      <point x="524" y="259" type="curve" smooth="yes"/>
      <point x="524" y="424"/>
      <point x="427" y="530"/>
      <point x="284" y="530" type="curve" smooth="yes"/>
      <point x="139" y="530"/>
      <point x="44" y="424"/>
      <point x="44" y="259" type="curve" smooth="yes"/>
      <point x="44" y="93"/>
      <point x="139" y="-12"/>
    </contour>
    <contour>
      <point x="284" y="42" type="curve" smooth="yes"/>
      <point x="192" y="42"/>
      <point x="150" y="107"/>
      <point x="150" y="198" type="curve" smooth="yes"/>
      <point x="150" y="320" type="line" smooth="yes"/>
      <point x="150" y="411"/>
      <point x="192" y="476"/>
      <point x="284" y="476" type="curve" smooth="yes"/>
      <point x="376" y="476"/>
      <point x="418" y="411"/>
      <point x="418" y="320" type="curve" smooth="yes"/>
      <point x="418" y="198" type="line" smooth="yes"/>
      <point x="418" y="107"/>
      <point x="376" y="42"/>
    </contour>
    <contour>
      <point x="378" y="615" type="curve" smooth="yes"/>
      <point x="413" y="615"/>
      <point x="433" y="637"/>
      <point x="433" y="668" type="curve" smooth="yes"/>
      <point x="433" y="672" type="line" smooth="yes"/>
      <point x="433" y="703"/>
      <point x="413" y="725"/>
      <point x="378" y="725" type="curve" smooth="yes"/>
      <point x="343" y="725"/>
      <point x="323" y="703"/>
      <point x="323" y="672" type="curve" smooth="yes"/>
      <point x="323" y="668" type="line" smooth="yes"/>
      <point x="323" y="637"/>
      <point x="343" y="615"/>
    </contour>
    <contour>
      <point x="190" y="615" type="curve" smooth="yes"/>
      <point x="225" y="615"/>
      <point x="245" y="637"/>
      <point x="245" y="668" type="curve" smooth="yes"/>
      <point x="245" y="672" type="line" smooth="yes"/>
      <point x="245" y="703"/>
      <point x="225" y="725"/>
      <point x="190" y="725" type="curve" smooth="yes"/>
      <point x="155" y="725"/>
      <point x="135" y="703"/>
      <point x="135" y="672" type="curve" smooth="yes"/>
      <point x="135" y="668" type="line" smooth="yes"/>
      <point x="135" y="637"/>
      <point x="155" y="615"/>
    </contour>
  </outline>
</glyph>
<glyph name="divide" format="2">
  <advance width="600"/>
  <unicode hex="00F7"/>
  <outline>
    <contour>
      <point x="66" y="276" type="line"/>
      <point x="534" y="276" type="line"/>
      <point x="534" y="334" type="line"/>
      <point x="66" y="334" type="line"/>
    </contour>
    <contour>
      <point x="300" y="425" type="curve" smooth="yes"/>
      <point x="340" y="425"/>
      <point x="363" y="453"/>
      <point x="363" y="486" type="curve" smooth="yes"/>
      <point x="363" y="492" type="line" smooth="yes"/>
      <point x="363" y="525"/>
      <point x="340" y="553"/>
      <point x="300" y="553" type="curve" smooth="yes"/>
      <point x="260" y="553"/>
      <point x="237" y="525"/>
      <point x="237" y="492" type="curve" smooth="yes"/>
      <point x="237" y="486" type="line" smooth="yes"/>
      <point x="237" y="453"/>
      <point x="260" y="425"/>
    </contour>
    <contour>
      <point x="300" y="57" type="curve" smooth="yes"/>
      <point x="340" y="57"/>
      <point x="363" y="85"/>
      <point x="363" y="118" type="curve" smooth="yes"/>
      <point x="363" y="124" type="line" smooth="yes"/>
      <point x="363" y="157"/>
      <point x="340" y="185"/>
      <point x="300" y="185" type="curve" smooth="yes"/>
      <point x="260" y="185"/>
      <point x="237" y="157"/>
      <point x="237" y="124" type="curve" smooth="yes"/>
      <point x="237" y="118" type="line" smooth="yes"/>
      <point x="237" y="85"/>
      <point x="260" y="57"/>
    </contour>
  </outline>
</glyph>
